<svg width="254" height="53" viewBox="0 0 254 53" fill="none" xmlns="http://www.w3.org/2000/svg">
    <path d="M254 4.78261V47.8261H183.877L64.5911 53L2.33743 47.8261L1.52588e-05 4.78261H93.7381H113.393L211.147 0L254 4.78261Z" fill="#FF008C"/>
    <mask id="path-2-outside-1_416_1144" maskUnits="userSpaceOnUse" x="37" y="16" width="165" height="23" fill="black">
    <rect fill="white" x="37" y="16" width="165" height="23"/>
    <path d="M41.7836 17.5996C42.4034 17.3171 43.0961 17.1758 43.8617 17.1758C44.6273 17.1758 45.3201 17.3171 45.9398 17.5996C46.5596 17.873 47.0746 18.265 47.4848 18.7754C47.904 19.2858 48.2595 19.8555 48.5512 20.4844C48.852 21.1133 49.0798 21.8197 49.2348 22.6035C49.3988 23.3874 49.5128 24.153 49.5766 24.9004C49.6495 25.6478 49.6859 26.4316 49.6859 27.252C49.6859 28.0723 49.6495 28.8561 49.5766 29.6035C49.5128 30.3509 49.3988 31.1165 49.2348 31.9004C49.0798 32.6842 48.852 33.3952 48.5512 34.0332C48.2595 34.6621 47.904 35.2318 47.4848 35.7422C47.0746 36.2526 46.5596 36.6491 45.9398 36.9316C45.3201 37.2051 44.6273 37.3418 43.8617 37.3418C43.0961 37.3418 42.4034 37.2051 41.7836 36.9316C41.1638 36.6491 40.6443 36.2526 40.225 35.7422C39.8148 35.2318 39.4594 34.6621 39.1586 34.0332C38.8669 33.3952 38.6391 32.6842 38.475 31.9004C38.3201 31.1165 38.2061 30.3509 38.1332 29.6035C38.0694 28.8561 38.0375 28.0723 38.0375 27.252C38.0375 26.4316 38.0694 25.6478 38.1332 24.9004C38.2061 24.153 38.3201 23.3874 38.475 22.6035C38.6391 21.8197 38.8669 21.1133 39.1586 20.4844C39.4594 19.8555 39.8148 19.2858 40.225 18.7754C40.6443 18.265 41.1638 17.873 41.7836 17.5996ZM39.8559 27.252C39.8559 32.821 41.1911 35.6055 43.8617 35.6055C46.5323 35.6055 47.8676 32.821 47.8676 27.252C47.8676 21.6921 46.5323 18.9121 43.8617 18.9121C41.1911 18.9121 39.8559 21.6921 39.8559 27.252ZM62.0655 37L55.5441 21.0176L55.6261 37H53.8077V17.3945H55.8995L62.4073 33.418L62.3116 17.3945H64.1437V37H62.0655ZM69.3592 37V17.3672H71.1776V35.1816H78.9022V37H69.3592ZM88.3423 37V28.127L83.0787 17.3945H85.1295L89.2447 26.2539L93.4146 17.3945H95.4244L90.1607 28.0996V37H88.3423ZM121.674 28.127L118.707 30.5059C117.878 31.1712 117.226 31.8594 116.752 32.5703C116.278 33.2812 115.959 34.1426 115.795 35.1543L125.01 35.1816V37L113.785 36.9727C113.885 35.1133 114.218 33.5911 114.783 32.4062C115.357 31.2122 116.314 30.082 117.654 29.0156L120.566 26.6914C120.621 26.6458 120.753 26.541 120.963 26.377C121.173 26.2038 121.309 26.0898 121.373 26.0352C121.446 25.9805 121.574 25.8711 121.756 25.707C121.938 25.543 122.061 25.4199 122.125 25.3379C122.198 25.2559 122.307 25.1328 122.453 24.9688C122.599 24.8047 122.704 24.6634 122.768 24.5449C122.831 24.4264 122.909 24.276 123 24.0938C123.091 23.9115 123.155 23.7383 123.191 23.5742C123.237 23.401 123.273 23.2096 123.301 23C123.337 22.7904 123.355 22.5762 123.355 22.3574C123.355 21.4186 123.023 20.6165 122.357 19.9512C121.692 19.2767 120.84 18.9395 119.801 18.9395C118.579 18.9395 117.618 19.3268 116.916 20.1016C116.214 20.8763 115.777 21.8789 115.604 23.1094H113.785C113.977 21.332 114.61 19.8919 115.686 18.7891C116.77 17.6771 118.142 17.1211 119.801 17.1211C121.332 17.1211 122.608 17.6361 123.629 18.666C124.659 19.6868 125.174 20.9173 125.174 22.3574C125.174 23.0137 125.087 23.6198 124.914 24.1758C124.75 24.7227 124.486 25.2376 124.121 25.7207C123.757 26.1947 123.401 26.5957 123.055 26.9238C122.708 27.252 122.248 27.653 121.674 28.127ZM144.997 37V17.3672H146.816V35.1816H154.54V37H144.997ZM168.971 26.2266V27.9492H161.793V35.2637H169.777V37H159.975V17.3945H169.777V19.1309H161.793V26.2266H168.971ZM183.989 26.2266V27.9492H176.784V37H174.966V17.3945H185.042V19.2266H176.784V26.2266H183.989ZM195.89 37H194.072V19.1309H189.341V17.3945H200.593V19.1309H195.89V37Z"/>
    </mask>
    <path d="M41.7836 17.5996C42.4034 17.3171 43.0961 17.1758 43.8617 17.1758C44.6273 17.1758 45.3201 17.3171 45.9398 17.5996C46.5596 17.873 47.0746 18.265 47.4848 18.7754C47.904 19.2858 48.2595 19.8555 48.5512 20.4844C48.852 21.1133 49.0798 21.8197 49.2348 22.6035C49.3988 23.3874 49.5128 24.153 49.5766 24.9004C49.6495 25.6478 49.6859 26.4316 49.6859 27.252C49.6859 28.0723 49.6495 28.8561 49.5766 29.6035C49.5128 30.3509 49.3988 31.1165 49.2348 31.9004C49.0798 32.6842 48.852 33.3952 48.5512 34.0332C48.2595 34.6621 47.904 35.2318 47.4848 35.7422C47.0746 36.2526 46.5596 36.6491 45.9398 36.9316C45.3201 37.2051 44.6273 37.3418 43.8617 37.3418C43.0961 37.3418 42.4034 37.2051 41.7836 36.9316C41.1638 36.6491 40.6443 36.2526 40.225 35.7422C39.8148 35.2318 39.4594 34.6621 39.1586 34.0332C38.8669 33.3952 38.6391 32.6842 38.475 31.9004C38.3201 31.1165 38.2061 30.3509 38.1332 29.6035C38.0694 28.8561 38.0375 28.0723 38.0375 27.252C38.0375 26.4316 38.0694 25.6478 38.1332 24.9004C38.2061 24.153 38.3201 23.3874 38.475 22.6035C38.6391 21.8197 38.8669 21.1133 39.1586 20.4844C39.4594 19.8555 39.8148 19.2858 40.225 18.7754C40.6443 18.265 41.1638 17.873 41.7836 17.5996ZM39.8559 27.252C39.8559 32.821 41.1911 35.6055 43.8617 35.6055C46.5323 35.6055 47.8676 32.821 47.8676 27.252C47.8676 21.6921 46.5323 18.9121 43.8617 18.9121C41.1911 18.9121 39.8559 21.6921 39.8559 27.252ZM62.0655 37L55.5441 21.0176L55.6261 37H53.8077V17.3945H55.8995L62.4073 33.418L62.3116 17.3945H64.1437V37H62.0655ZM69.3592 37V17.3672H71.1776V35.1816H78.9022V37H69.3592ZM88.3423 37V28.127L83.0787 17.3945H85.1295L89.2447 26.2539L93.4146 17.3945H95.4244L90.1607 28.0996V37H88.3423ZM121.674 28.127L118.707 30.5059C117.878 31.1712 117.226 31.8594 116.752 32.5703C116.278 33.2812 115.959 34.1426 115.795 35.1543L125.01 35.1816V37L113.785 36.9727C113.885 35.1133 114.218 33.5911 114.783 32.4062C115.357 31.2122 116.314 30.082 117.654 29.0156L120.566 26.6914C120.621 26.6458 120.753 26.541 120.963 26.377C121.173 26.2038 121.309 26.0898 121.373 26.0352C121.446 25.9805 121.574 25.8711 121.756 25.707C121.938 25.543 122.061 25.4199 122.125 25.3379C122.198 25.2559 122.307 25.1328 122.453 24.9688C122.599 24.8047 122.704 24.6634 122.768 24.5449C122.831 24.4264 122.909 24.276 123 24.0938C123.091 23.9115 123.155 23.7383 123.191 23.5742C123.237 23.401 123.273 23.2096 123.301 23C123.337 22.7904 123.355 22.5762 123.355 22.3574C123.355 21.4186 123.023 20.6165 122.357 19.9512C121.692 19.2767 120.84 18.9395 119.801 18.9395C118.579 18.9395 117.618 19.3268 116.916 20.1016C116.214 20.8763 115.777 21.8789 115.604 23.1094H113.785C113.977 21.332 114.61 19.8919 115.686 18.7891C116.77 17.6771 118.142 17.1211 119.801 17.1211C121.332 17.1211 122.608 17.6361 123.629 18.666C124.659 19.6868 125.174 20.9173 125.174 22.3574C125.174 23.0137 125.087 23.6198 124.914 24.1758C124.75 24.7227 124.486 25.2376 124.121 25.7207C123.757 26.1947 123.401 26.5957 123.055 26.9238C122.708 27.252 122.248 27.653 121.674 28.127ZM144.997 37V17.3672H146.816V35.1816H154.54V37H144.997ZM168.971 26.2266V27.9492H161.793V35.2637H169.777V37H159.975V17.3945H169.777V19.1309H161.793V26.2266H168.971ZM183.989 26.2266V27.9492H176.784V37H174.966V17.3945H185.042V19.2266H176.784V26.2266H183.989ZM195.89 37H194.072V19.1309H189.341V17.3945H200.593V19.1309H195.89V37Z" fill="#001BAC"/>
    <path d="M41.7836 17.5996L42.1873 18.5146L42.1984 18.5095L41.7836 17.5996ZM45.9398 17.5996L45.525 18.5096L45.5362 18.5145L45.9398 17.5996ZM47.4848 18.7754L46.7052 19.4018L46.712 19.4101L47.4848 18.7754ZM48.5512 20.4844L47.6439 20.9051L47.649 20.9158L48.5512 20.4844ZM49.2348 22.6035L48.2537 22.7974L48.256 22.8084L49.2348 22.6035ZM49.5766 24.9004L48.5801 24.9855L48.5813 24.9975L49.5766 24.9004ZM49.5766 29.6035L48.5812 29.5064L48.5802 29.5185L49.5766 29.6035ZM49.2348 31.9004L48.2559 31.6955L48.2537 31.7065L49.2348 31.9004ZM48.5512 34.0332L47.6466 33.6068L47.644 33.6125L48.5512 34.0332ZM47.4848 35.7422L46.712 35.1074L46.7053 35.1158L47.4848 35.7422ZM45.9398 36.9316L46.3435 37.8466L46.3547 37.8415L45.9398 36.9316ZM41.7836 36.9316L41.3688 37.8416L41.38 37.8466L41.7836 36.9316ZM40.225 35.7422L39.4454 36.3686L39.4523 36.3769L40.225 35.7422ZM39.1586 34.0332L38.2491 34.449L38.2527 34.4568L38.2565 34.4647L39.1586 34.0332ZM38.475 31.9004L37.4939 32.0943L37.4962 32.1053L38.475 31.9004ZM38.1332 29.6035L37.1368 29.6886L37.1379 29.7006L38.1332 29.6035ZM38.1332 24.9004L37.1379 24.8033L37.1368 24.8153L38.1332 24.9004ZM38.475 22.6035L37.4961 22.3986L37.494 22.4096L38.475 22.6035ZM39.1586 20.4844L38.2564 20.0529L38.2514 20.0637L39.1586 20.4844ZM40.225 18.7754L39.4522 18.1406L39.4455 18.149L40.225 18.7754ZM42.1984 18.5095C42.6727 18.2933 43.2214 18.1758 43.8617 18.1758V16.1758C42.9708 16.1758 42.1341 16.3408 41.3688 16.6897L42.1984 18.5095ZM43.8617 18.1758C44.502 18.1758 45.0508 18.2933 45.525 18.5095L46.3547 16.6897C45.5894 16.3408 44.7527 16.1758 43.8617 16.1758V18.1758ZM45.5362 18.5145C46.0146 18.7256 46.399 19.0207 46.7053 19.4018L48.2643 18.149C47.7502 17.5093 47.1046 17.0205 46.3435 16.6847L45.5362 18.5145ZM46.712 19.4101C47.075 19.852 47.3861 20.3491 47.644 20.9051L49.4584 20.0637C49.1329 19.3618 48.733 18.7196 48.2575 18.1407L46.712 19.4101ZM47.649 20.9158C47.9089 21.4591 48.1127 22.084 48.2537 22.7974L50.2158 22.4096C50.0469 21.5553 49.795 20.7674 49.4533 20.0529L47.649 20.9158ZM48.256 22.8084C48.4123 23.5553 48.52 24.2809 48.5802 24.9854L50.5729 24.8153C50.5055 24.0251 50.3853 23.2194 50.2136 22.3987L48.256 22.8084ZM48.5813 24.9975C48.6508 25.7098 48.6859 26.4611 48.6859 27.252H50.6859C50.6859 26.4021 50.6482 25.5857 50.5718 24.8033L48.5813 24.9975ZM48.6859 27.252C48.6859 28.0428 48.6508 28.7941 48.5813 29.5064L50.5718 29.7006C50.6482 28.9182 50.6859 28.1018 50.6859 27.252H48.6859ZM48.5802 29.5185C48.52 30.223 48.4123 30.9486 48.256 31.6955L50.2136 32.1053C50.3853 31.2845 50.5055 30.4788 50.5729 29.6886L48.5802 29.5185ZM48.2537 31.7065C48.1126 32.4204 47.9082 33.0519 47.6466 33.6068L49.4557 34.4596C49.7957 33.7385 50.047 32.9481 50.2158 32.0943L48.2537 31.7065ZM47.644 33.6125C47.3861 34.1684 47.075 34.6656 46.712 35.1074L48.2575 36.3769C48.733 35.798 49.1329 35.1558 49.4584 34.4539L47.644 33.6125ZM46.7053 35.1158C46.3969 35.4996 46.0087 35.8012 45.525 36.0217L46.3547 37.8415C47.1106 37.4969 47.7524 37.0056 48.2643 36.3686L46.7053 35.1158ZM45.5362 36.0167C45.0592 36.2272 44.5064 36.3418 43.8617 36.3418V38.3418C44.7483 38.3418 45.581 38.183 46.3435 37.8466L45.5362 36.0167ZM43.8617 36.3418C43.217 36.3418 42.6643 36.2272 42.1872 36.0167L41.38 37.8466C42.1425 38.183 42.9752 38.3418 43.8617 38.3418V36.3418ZM42.1984 36.0217C41.7129 35.8004 41.3172 35.4963 40.9977 35.1074L39.4523 36.3769C39.9714 37.0089 40.6147 37.4978 41.3688 37.8415L42.1984 36.0217ZM41.0045 35.1158C40.6456 34.6692 40.3304 34.1656 40.0607 33.6017L38.2565 34.4647C38.5883 35.1586 38.9841 35.7944 39.4455 36.3686L41.0045 35.1158ZM40.0681 33.6174C39.8112 33.0556 39.6047 32.4167 39.4538 31.6955L37.4962 32.1053C37.6734 32.9517 37.9226 33.7347 38.2491 34.449L40.0681 33.6174ZM39.456 31.7065C39.307 30.9526 39.198 30.2193 39.1285 29.5064L37.1379 29.7006C37.2142 30.4825 37.3331 31.2805 37.494 32.0943L39.456 31.7065ZM39.1296 29.5185C39.0684 28.8018 39.0375 28.0465 39.0375 27.252H37.0375C37.0375 28.0981 37.0704 28.9104 37.1368 29.6886L39.1296 29.5185ZM39.0375 27.252C39.0375 26.4574 39.0684 25.7021 39.1296 24.9854L37.1368 24.8153C37.0704 25.5935 37.0375 26.4058 37.0375 27.252H39.0375ZM39.1285 24.9975C39.198 24.2846 39.307 23.5513 39.456 22.7974L37.494 22.4096C37.3331 23.2234 37.2142 24.0214 37.1379 24.8033L39.1285 24.9975ZM39.4538 22.8084C39.6046 22.0878 39.8106 21.4553 40.0658 20.9051L38.2514 20.0637C37.9233 20.7712 37.6735 21.5516 37.4962 22.3987L39.4538 22.8084ZM40.0607 20.9158C40.3304 20.3519 40.6456 19.8484 41.0045 19.4018L39.4455 18.149C38.9841 18.7232 38.5883 19.359 38.2565 20.0529L40.0607 20.9158ZM40.9977 19.4101C41.315 19.0239 41.7069 18.7264 42.1872 18.5145L41.38 16.6847C40.6207 17.0197 39.9735 17.5061 39.4523 18.1407L40.9977 19.4101ZM38.8559 27.252C38.8559 30.0845 39.1903 32.3536 39.9556 33.9495C40.3447 34.7609 40.8626 35.4347 41.5384 35.9045C42.2226 36.3801 43.0103 36.6055 43.8617 36.6055V34.6055C43.3779 34.6055 42.9972 34.4828 42.6799 34.2623C42.3543 34.0359 42.0376 33.6656 41.759 33.0847C41.189 31.8961 40.8559 29.9884 40.8559 27.252H38.8559ZM43.8617 36.6055C44.7131 36.6055 45.5009 36.3801 46.185 35.9045C46.8609 35.4347 47.3787 34.7609 47.7678 33.9495C48.5331 32.3536 48.8676 30.0845 48.8676 27.252H46.8676C46.8676 29.9884 46.5344 31.8961 45.9644 33.0847C45.6859 33.6656 45.3692 34.0359 45.0435 34.2623C44.7262 34.4828 44.3456 34.6055 43.8617 34.6055V36.6055ZM48.8676 27.252C48.8676 24.4239 48.5331 22.1579 47.7675 20.5641C47.3783 19.7537 46.8603 19.0808 46.1844 18.6118C45.5003 18.137 44.7128 17.9121 43.8617 17.9121V19.9121C44.3459 19.9121 44.7268 20.0347 45.0441 20.2549C45.3698 20.4809 45.6863 20.8504 45.9647 21.43C46.5344 22.6162 46.8676 24.5202 46.8676 27.252H48.8676ZM43.8617 17.9121C43.0106 17.9121 42.2232 18.137 41.539 18.6118C40.8632 19.0808 40.3452 19.7537 39.9559 20.5641C39.1904 22.1579 38.8559 24.4239 38.8559 27.252H40.8559C40.8559 24.5202 41.189 22.6162 41.7587 21.43C42.0371 20.8504 42.3537 20.4809 42.6793 20.2549C42.9966 20.0347 43.3775 19.9121 43.8617 19.9121V17.9121ZM62.0655 37L61.1397 37.3778L61.3935 38H62.0655V37ZM55.5441 21.0176L56.4699 20.6398L54.5441 21.0227L55.5441 21.0176ZM55.6261 37V38H56.6312L56.6261 36.9949L55.6261 37ZM53.8077 37H52.8077V38H53.8077V37ZM53.8077 17.3945V16.3945H52.8077V17.3945H53.8077ZM55.8995 17.3945L56.826 17.0182L56.5727 16.3945H55.8995V17.3945ZM62.4073 33.418L61.4808 33.7943L63.4073 33.412L62.4073 33.418ZM62.3116 17.3945V16.3945H61.3056L61.3117 17.4005L62.3116 17.3945ZM64.1437 17.3945H65.1437V16.3945H64.1437V17.3945ZM64.1437 37V38H65.1437V37H64.1437ZM62.9914 36.6222L56.4699 20.6398L54.6182 21.3954L61.1397 37.3778L62.9914 36.6222ZM54.5441 21.0227L54.6261 37.0051L56.6261 36.9949L56.544 21.0124L54.5441 21.0227ZM55.6261 36H53.8077V38H55.6261V36ZM54.8077 37V17.3945H52.8077V37H54.8077ZM53.8077 18.3945H55.8995V16.3945H53.8077V18.3945ZM54.973 17.7708L61.4808 33.7943L63.3338 33.0417L56.826 17.0182L54.973 17.7708ZM63.4073 33.412L63.3116 17.3886L61.3117 17.4005L61.4074 33.4239L63.4073 33.412ZM62.3116 18.3945H64.1437V16.3945H62.3116V18.3945ZM63.1437 17.3945V37H65.1437V17.3945H63.1437ZM64.1437 36H62.0655V38H64.1437V36ZM69.3592 37H68.3592V38H69.3592V37ZM69.3592 17.3672V16.3672H68.3592V17.3672H69.3592ZM71.1776 17.3672H72.1776V16.3672H71.1776V17.3672ZM71.1776 35.1816H70.1776V36.1816H71.1776V35.1816ZM78.9022 35.1816H79.9022V34.1816H78.9022V35.1816ZM78.9022 37V38H79.9022V37H78.9022ZM70.3592 37V17.3672H68.3592V37H70.3592ZM69.3592 18.3672H71.1776V16.3672H69.3592V18.3672ZM70.1776 17.3672V35.1816H72.1776V17.3672H70.1776ZM71.1776 36.1816H78.9022V34.1816H71.1776V36.1816ZM77.9022 35.1816V37H79.9022V35.1816H77.9022ZM78.9022 36H69.3592V38H78.9022V36ZM88.3423 37H87.3423V38H88.3423V37ZM88.3423 28.127H89.3423V27.8949L89.2402 27.6866L88.3423 28.127ZM83.0787 17.3945V16.3945H81.4744L82.1808 17.8349L83.0787 17.3945ZM85.1295 17.3945L86.0364 16.9733L85.7676 16.3945H85.1295V17.3945ZM89.2447 26.2539L88.3378 26.6752L89.2387 28.6148L90.1495 26.6798L89.2447 26.2539ZM93.4146 17.3945V16.3945H92.7801L92.5098 16.9687L93.4146 17.3945ZM95.4244 17.3945L96.3218 17.8358L97.0304 16.3945H95.4244V17.3945ZM90.1607 28.0996L89.2633 27.6584L89.1607 27.8671V28.0996H90.1607ZM90.1607 37V38H91.1607V37H90.1607ZM89.3423 37V28.127H87.3423V37H89.3423ZM89.2402 27.6866L83.9765 16.9542L82.1808 17.8349L87.4445 28.5673L89.2402 27.6866ZM83.0787 18.3945H85.1295V16.3945H83.0787V18.3945ZM84.2225 17.8158L88.3378 26.6752L90.1516 25.8326L86.0364 16.9733L84.2225 17.8158ZM90.1495 26.6798L94.3194 17.8204L92.5098 16.9687L88.3399 25.828L90.1495 26.6798ZM93.4146 18.3945H95.4244V16.3945H93.4146V18.3945ZM94.527 16.9533L89.2633 27.6584L91.0581 28.5409L96.3218 17.8358L94.527 16.9533ZM89.1607 28.0996V37H91.1607V28.0996H89.1607ZM90.1607 36H88.3423V38H90.1607V36ZM121.674 28.127L122.299 28.9071L122.305 28.9027L122.31 28.8982L121.674 28.127ZM118.707 30.5059L118.081 29.7257L118.081 29.7258L118.707 30.5059ZM115.795 35.1543L114.808 34.9942L114.62 36.1508L115.792 36.1543L115.795 35.1543ZM125.01 35.1816H126.01V34.1846L125.013 34.1816L125.01 35.1816ZM125.01 37L125.007 38L126.01 38.0024V37H125.01ZM113.785 36.9727L112.787 36.9188L112.73 37.9701L113.783 37.9727L113.785 36.9727ZM114.783 32.4062L113.882 31.9728L113.881 31.9758L114.783 32.4062ZM117.654 29.0156L118.277 29.798L118.278 29.7972L117.654 29.0156ZM120.566 26.6914L121.19 27.473L121.198 27.4664L121.207 27.4596L120.566 26.6914ZM120.963 26.377L121.579 27.1645L121.59 27.1563L121.6 27.1479L120.963 26.377ZM121.373 26.0352L120.773 25.2352L120.747 25.2547L120.722 25.2759L121.373 26.0352ZM122.125 25.3379L121.378 24.6735L121.356 24.6981L121.336 24.724L122.125 25.3379ZM123.191 23.5742L122.224 23.3197L122.219 23.3384L122.215 23.3573L123.191 23.5742ZM123.301 23L122.316 22.8287L122.312 22.8496L122.309 22.8707L123.301 23ZM122.357 19.9512L121.646 20.6535L121.65 20.6583L122.357 19.9512ZM115.604 23.1094V24.1094H116.473L116.594 23.2487L115.604 23.1094ZM113.785 23.1094L112.791 23.0023L112.672 24.1094H113.785V23.1094ZM115.686 18.7891L114.97 18.0908L114.97 18.0909L115.686 18.7891ZM123.629 18.666L122.919 19.37L122.925 19.3763L123.629 18.666ZM124.914 24.1758L123.959 23.8784L123.956 23.8884L124.914 24.1758ZM124.121 25.7207L124.914 26.3304L124.919 26.3231L124.121 25.7207ZM121.048 27.3468L118.081 29.7257L119.333 31.286L122.299 28.9071L121.048 27.3468ZM118.081 29.7258C117.191 30.4403 116.463 31.2016 115.92 32.0156L117.584 33.125C117.989 32.5172 118.565 31.9021 119.333 31.2859L118.081 29.7258ZM115.92 32.0156C115.352 32.8668 114.99 33.8691 114.808 34.9942L116.782 35.3144C116.928 34.4161 117.204 33.6957 117.584 33.125L115.92 32.0156ZM115.792 36.1543L125.007 36.1816L125.013 34.1816L115.798 34.1543L115.792 36.1543ZM124.01 35.1816V37H126.01V35.1816H124.01ZM125.012 36L113.788 35.9727L113.783 37.9727L125.007 38L125.012 36ZM114.784 37.0265C114.88 35.2472 115.195 33.8652 115.686 32.8367L113.881 31.9758C113.241 33.3171 112.891 34.9793 112.787 36.9188L114.784 37.0265ZM115.684 32.8397C116.177 31.8152 117.022 30.7971 118.277 29.798L117.032 28.2332C115.607 29.367 114.538 30.6093 113.882 31.9728L115.684 32.8397ZM118.278 29.7972L121.19 27.473L119.943 25.9098L117.03 28.234L118.278 29.7972ZM121.207 27.4596C121.247 27.426 121.366 27.3316 121.579 27.1645L120.347 25.5894C120.141 25.7504 119.995 25.8657 119.926 25.9232L121.207 27.4596ZM121.6 27.1479C121.808 26.976 121.952 26.8561 122.024 26.7944L120.722 25.2759C120.667 25.3236 120.537 25.4315 120.326 25.606L121.6 27.1479ZM121.973 26.8352C122.087 26.75 122.245 26.6118 122.425 26.4503L121.087 24.9637C120.902 25.1303 120.805 25.211 120.773 25.2352L121.973 26.8352ZM122.425 26.4503C122.608 26.2854 122.791 26.1107 122.914 25.9518L121.336 24.724C121.34 24.7178 121.327 24.7357 121.278 24.7846C121.232 24.8299 121.17 24.8891 121.087 24.9637L122.425 26.4503ZM122.872 26.0023C122.877 25.9969 122.925 25.9435 122.934 25.933C122.937 25.9292 122.965 25.8978 122.97 25.8927C122.998 25.8613 122.98 25.8811 123.009 25.8484C123.037 25.8167 123.002 25.8569 123.03 25.8249C123.032 25.8232 123.05 25.8024 123.052 25.8004C123.053 25.7995 123.062 25.7887 123.063 25.7878C123.063 25.7873 123.068 25.7818 123.069 25.7814C123.069 25.7811 123.069 25.7808 123.069 25.7806C123.07 25.7803 123.07 25.78 123.07 25.7798C123.07 25.7795 123.071 25.7792 123.071 25.7789C123.071 25.7787 123.071 25.7784 123.072 25.7781C123.072 25.7775 123.073 25.7771 123.073 25.7765C123.073 25.7763 123.074 25.776 123.074 25.7757C123.074 25.7754 123.074 25.7752 123.074 25.7749C123.076 25.773 123.076 25.7736 123.077 25.7717C123.078 25.7714 123.08 25.7686 123.08 25.7684C123.081 25.7679 123.086 25.7623 123.086 25.7618C123.09 25.7579 123.089 25.7591 123.092 25.7552C123.096 25.7502 123.094 25.7535 123.098 25.7485C123.107 25.7385 123.113 25.7314 123.122 25.7211C123.133 25.7087 123.136 25.7054 123.148 25.6927C123.202 25.6312 123.119 25.7253 123.174 25.6634C123.174 25.6624 123.199 25.6344 123.201 25.6331L121.706 24.3044C121.592 24.432 121.418 24.628 121.378 24.6735L122.872 26.0023ZM123.201 25.6331C123.37 25.4425 123.532 25.235 123.648 25.019L121.887 24.0708C121.876 24.0918 121.828 24.1669 121.706 24.3044L123.201 25.6331ZM123.648 25.019C123.718 24.8884 123.801 24.7282 123.894 24.541L122.106 23.6465C122.017 23.8239 121.944 23.9645 121.887 24.0708L123.648 25.019ZM123.894 24.541C124.015 24.3004 124.11 24.0498 124.168 23.7911L122.215 23.3573C122.2 23.4268 122.168 23.5225 122.106 23.6465L123.894 24.541ZM124.158 23.8287C124.217 23.6078 124.26 23.3739 124.292 23.1293L122.309 22.8707C122.286 23.0454 122.257 23.1943 122.224 23.3197L124.158 23.8287ZM124.286 23.1713C124.333 22.9036 124.355 22.632 124.355 22.3574H122.355C122.355 22.5203 122.342 22.6772 122.316 22.8287L124.286 23.1713ZM124.355 22.3574C124.355 21.1527 123.917 20.0965 123.065 19.2441L121.65 20.6583C122.129 21.1366 122.355 21.6845 122.355 22.3574H124.355ZM123.069 19.2489C122.197 18.3645 121.079 17.9395 119.801 17.9395V19.9395C120.601 19.9395 121.187 20.1888 121.646 20.6535L123.069 19.2489ZM119.801 17.9395C118.349 17.9395 117.099 18.4104 116.175 19.4302L117.657 20.7729C118.137 20.2432 118.81 19.9395 119.801 19.9395V17.9395ZM116.175 19.4302C115.315 20.3795 114.809 21.5794 114.613 22.97L116.594 23.2487C116.744 22.1784 117.113 21.3731 117.657 20.7729L116.175 19.4302ZM115.604 22.1094H113.785V24.1094H115.604V22.1094ZM114.779 23.2164C114.951 21.6244 115.507 20.4048 116.401 19.4872L114.97 18.0909C113.713 19.379 113.002 21.0396 112.791 23.0023L114.779 23.2164ZM116.401 19.4873C117.284 18.5824 118.391 18.1211 119.801 18.1211V16.1211C117.893 16.1211 116.256 16.7718 114.97 18.0908L116.401 19.4873ZM119.801 18.1211C121.082 18.1211 122.097 18.541 122.919 19.37L124.339 17.9621C123.119 16.7312 121.582 16.1211 119.801 16.1211V18.1211ZM122.925 19.3763C123.767 20.2108 124.174 21.1862 124.174 22.3574H126.174C126.174 20.6485 125.551 19.1629 124.333 17.9558L122.925 19.3763ZM124.174 22.3574C124.174 22.9254 124.099 23.43 123.959 23.8784L125.869 24.4732C126.076 23.8096 126.174 23.1019 126.174 22.3574H124.174ZM123.956 23.8884C123.828 24.315 123.62 24.7242 123.323 25.1183L124.919 26.3231C125.351 25.7511 125.672 25.1303 125.872 24.4631L123.956 23.8884ZM123.328 25.111C122.988 25.5534 122.667 25.9134 122.367 26.1979L123.742 27.6498C124.135 27.278 124.525 26.8359 124.914 26.3304L123.328 25.111ZM122.367 26.1979C122.044 26.5042 121.602 26.8892 121.037 27.3557L122.31 28.8982C122.894 28.4168 123.373 27.9997 123.742 27.6498L122.367 26.1979ZM144.997 37H143.997V38H144.997V37ZM144.997 17.3672V16.3672H143.997V17.3672H144.997ZM146.816 17.3672H147.816V16.3672H146.816V17.3672ZM146.816 35.1816H145.816V36.1816H146.816V35.1816ZM154.54 35.1816H155.54V34.1816H154.54V35.1816ZM154.54 37V38H155.54V37H154.54ZM145.997 37V17.3672H143.997V37H145.997ZM144.997 18.3672H146.816V16.3672H144.997V18.3672ZM145.816 17.3672V35.1816H147.816V17.3672H145.816ZM146.816 36.1816H154.54V34.1816H146.816V36.1816ZM153.54 35.1816V37H155.54V35.1816H153.54ZM154.54 36H144.997V38H154.54V36ZM168.971 26.2266H169.971V25.2266H168.971V26.2266ZM168.971 27.9492V28.9492H169.971V27.9492H168.971ZM161.793 27.9492V26.9492H160.793V27.9492H161.793ZM161.793 35.2637H160.793V36.2637H161.793V35.2637ZM169.777 35.2637H170.777V34.2637H169.777V35.2637ZM169.777 37V38H170.777V37H169.777ZM159.975 37H158.975V38H159.975V37ZM159.975 17.3945V16.3945H158.975V17.3945H159.975ZM169.777 17.3945H170.777V16.3945H169.777V17.3945ZM169.777 19.1309V20.1309H170.777V19.1309H169.777ZM161.793 19.1309V18.1309H160.793V19.1309H161.793ZM161.793 26.2266H160.793V27.2266H161.793V26.2266ZM167.971 26.2266V27.9492H169.971V26.2266H167.971ZM168.971 26.9492H161.793V28.9492H168.971V26.9492ZM160.793 27.9492V35.2637H162.793V27.9492H160.793ZM161.793 36.2637H169.777V34.2637H161.793V36.2637ZM168.777 35.2637V37H170.777V35.2637H168.777ZM169.777 36H159.975V38H169.777V36ZM160.975 37V17.3945H158.975V37H160.975ZM159.975 18.3945H169.777V16.3945H159.975V18.3945ZM168.777 17.3945V19.1309H170.777V17.3945H168.777ZM169.777 18.1309H161.793V20.1309H169.777V18.1309ZM160.793 19.1309V26.2266H162.793V19.1309H160.793ZM161.793 27.2266H168.971V25.2266H161.793V27.2266ZM183.989 26.2266H184.989V25.2266H183.989V26.2266ZM183.989 27.9492V28.9492H184.989V27.9492H183.989ZM176.784 27.9492V26.9492H175.784V27.9492H176.784ZM176.784 37V38H177.784V37H176.784ZM174.966 37H173.966V38H174.966V37ZM174.966 17.3945V16.3945H173.966V17.3945H174.966ZM185.042 17.3945H186.042V16.3945H185.042V17.3945ZM185.042 19.2266V20.2266H186.042V19.2266H185.042ZM176.784 19.2266V18.2266H175.784V19.2266H176.784ZM176.784 26.2266H175.784V27.2266H176.784V26.2266ZM182.989 26.2266V27.9492H184.989V26.2266H182.989ZM183.989 26.9492H176.784V28.9492H183.989V26.9492ZM175.784 27.9492V37H177.784V27.9492H175.784ZM176.784 36H174.966V38H176.784V36ZM175.966 37V17.3945H173.966V37H175.966ZM174.966 18.3945H185.042V16.3945H174.966V18.3945ZM184.042 17.3945V19.2266H186.042V17.3945H184.042ZM185.042 18.2266H176.784V20.2266H185.042V18.2266ZM175.784 19.2266V26.2266H177.784V19.2266H175.784ZM176.784 27.2266H183.989V25.2266H176.784V27.2266ZM195.89 37V38H196.89V37H195.89ZM194.072 37H193.072V38H194.072V37ZM194.072 19.1309H195.072V18.1309H194.072V19.1309ZM189.341 19.1309H188.341V20.1309H189.341V19.1309ZM189.341 17.3945V16.3945H188.341V17.3945H189.341ZM200.593 17.3945H201.593V16.3945H200.593V17.3945ZM200.593 19.1309V20.1309H201.593V19.1309H200.593ZM195.89 19.1309V18.1309H194.89V19.1309H195.89ZM195.89 36H194.072V38H195.89V36ZM195.072 37V19.1309H193.072V37H195.072ZM194.072 18.1309H189.341V20.1309H194.072V18.1309ZM190.341 19.1309V17.3945H188.341V19.1309H190.341ZM189.341 18.3945H200.593V16.3945H189.341V18.3945ZM199.593 17.3945V19.1309H201.593V17.3945H199.593ZM200.593 18.1309H195.89V20.1309H200.593V18.1309ZM194.89 19.1309V37H196.89V19.1309H194.89Z" fill="#001BAC" mask="url(#path-2-outside-1_416_1144)"/>
    </svg>
    