<svg width="160" height="54" viewBox="0 0 160 54" fill="none" xmlns="http://www.w3.org/2000/svg">
    <path d="M160 5.78261V48.8261H115.828L40.6873 54L1.4724 48.8261L0 5.78261H59.0476H71.4286L133.006 1L160 5.78261Z" fill="#FF008C"/>
    <mask id="path-2-outside-1_416_1145" maskUnits="userSpaceOnUse" x="26" y="16" width="88" height="20" fill="black">
    <rect fill="white" x="26" y="16" width="88" height="20"/>
    <path d="M33.5059 25.3262C34.6146 25.4954 35.5498 26.0244 36.3115 26.9131C37.0732 27.8018 37.4541 28.8174 37.4541 29.96C37.4541 31.5088 36.9463 32.7783 35.9307 33.7686C34.9235 34.7588 33.6286 35.2539 32.0459 35.2539C31.2334 35.2539 30.4886 35.1227 29.8115 34.8604C29.1429 34.5895 28.5801 34.2256 28.123 33.7686C27.6745 33.3031 27.3021 32.7995 27.0059 32.2578C26.7096 31.7077 26.4811 31.1152 26.3203 30.4805H28.0723C28.3177 31.4284 28.7832 32.1943 29.4688 32.7783C30.1543 33.3623 31.0303 33.6543 32.0967 33.6543C33.1969 33.6543 34.0814 33.3115 34.75 32.626C35.4271 31.932 35.7656 31.0433 35.7656 29.96C35.7656 29.139 35.554 28.4408 35.1309 27.8652C34.7077 27.2812 34.1491 26.8581 33.4551 26.5957C32.7611 26.3249 31.9697 26.1895 31.0811 26.1895H30.4336V24.5771H31.0811C32.249 24.5771 33.2223 24.2682 34.001 23.6504C34.7796 23.0326 35.1689 22.1777 35.1689 21.0859C35.1689 20.2396 34.8727 19.5456 34.2803 19.0039C33.6963 18.4538 32.9769 18.1787 32.1221 18.1787C31.1911 18.1787 30.387 18.4622 29.71 19.0293C29.0329 19.5879 28.5801 20.3115 28.3516 21.2002H26.6631C26.8747 19.8714 27.4883 18.7627 28.5039 17.874C29.5195 16.9854 30.7256 16.541 32.1221 16.541C33.4593 16.541 34.5807 16.9727 35.4863 17.8359C36.4004 18.6908 36.8574 19.7741 36.8574 21.0859C36.8574 22 36.54 22.8675 35.9053 23.6885C35.279 24.5094 34.4792 25.0553 33.5059 25.3262ZM49.833 25.9229C49.833 27.8356 49.6511 29.4775 49.2871 30.8486C48.9317 32.2197 48.3562 33.3031 47.5606 34.0986C46.765 34.8857 45.7748 35.2835 44.5899 35.292C43.7012 35.292 42.9226 35.0719 42.2539 34.6318C41.5938 34.1833 41.0564 33.5443 40.6416 32.7148C40.2269 31.8854 39.918 30.9036 39.7149 29.7695C39.5118 28.6354 39.4102 27.3532 39.4102 25.9229C39.4102 24.4925 39.5118 23.2103 39.7149 22.0762C39.918 20.9421 40.2269 19.9603 40.6416 19.1309C41.0564 18.3014 41.5938 17.6667 42.2539 17.2266C42.9226 16.7865 43.7012 16.5664 44.5899 16.5664C46.3503 16.5664 47.6621 17.3958 48.5254 19.0547C49.3972 20.7051 49.833 22.9945 49.833 25.9229ZM48.0938 25.9229C48.0938 24.7549 48.0261 23.7139 47.8907 22.7998C47.7552 21.8857 47.5479 21.0902 47.2686 20.4131C46.9978 19.7275 46.6338 19.207 46.1768 18.8516C45.7282 18.4876 45.1993 18.3057 44.5899 18.3057C42.2624 18.3057 41.0987 20.8447 41.0987 25.9229C41.0987 28.3519 41.3822 30.2393 41.9493 31.585C42.5163 32.9222 43.3965 33.5908 44.5899 33.5908C45.1823 33.5908 45.7028 33.4046 46.1514 33.0322C46.6 32.6598 46.9639 32.1309 47.2432 31.4453C47.531 30.7513 47.7426 29.943 47.878 29.0205C48.0218 28.098 48.0938 27.0654 48.0938 25.9229ZM62.085 22L58.2638 28.4746L62.1104 35H60.2442L57.4132 29.9346L54.5821 35H52.7032L56.5499 28.4746L52.7286 22H54.6075L57.4132 27.0146L60.2188 22H62.085ZM73.7657 35H72.0773V30.9756H64.6251V29.3633L72.0773 16.7695H73.7657V29.3633H75.8478V30.9756H73.7657V35ZM66.4913 29.3633H72.0773V19.9434L66.4913 29.3633ZM88.0744 25.9229C88.0744 27.8356 87.8924 29.4775 87.5285 30.8486C87.173 32.2197 86.5975 33.3031 85.8019 34.0986C85.0063 34.8857 84.0161 35.2835 82.8312 35.292C81.9425 35.292 81.1639 35.0719 80.4953 34.6318C79.8351 34.1833 79.2977 33.5443 78.883 32.7148C78.4683 31.8854 78.1593 30.9036 77.9562 29.7695C77.7531 28.6354 77.6515 27.3532 77.6515 25.9229C77.6515 24.4925 77.7531 23.2103 77.9562 22.0762C78.1593 20.9421 78.4683 19.9603 78.883 19.1309C79.2977 18.3014 79.8351 17.6667 80.4953 17.2266C81.1639 16.7865 81.9425 16.5664 82.8312 16.5664C84.5916 16.5664 85.9035 17.3958 86.7668 19.0547C87.6385 20.7051 88.0744 22.9945 88.0744 25.9229ZM86.3351 25.9229C86.3351 24.7549 86.2674 23.7139 86.132 22.7998C85.9966 21.8857 85.7892 21.0902 85.5099 20.4131C85.2391 19.7275 84.8752 19.207 84.4181 18.8516C83.9696 18.4876 83.4406 18.3057 82.8312 18.3057C80.5037 18.3057 79.34 20.8447 79.34 25.9229C79.34 28.3519 79.6235 30.2393 80.1906 31.585C80.7576 32.9222 81.6379 33.5908 82.8312 33.5908C83.4237 33.5908 83.9442 33.4046 84.3927 33.0322C84.8413 32.6598 85.2052 32.1309 85.4845 31.4453C85.7723 30.7513 85.9839 29.943 86.1193 29.0205C86.2632 28.098 86.3351 27.0654 86.3351 25.9229ZM94.0676 32.8926C94.5754 33.4004 95.1975 33.6543 95.9338 33.6543C96.6701 33.6543 97.2541 33.4089 97.6857 32.918C98.1174 32.4186 98.3924 31.7331 98.5109 30.8613H100.225C100.064 32.224 99.5985 33.2988 98.8283 34.0859C98.0666 34.8646 97.1018 35.2539 95.9338 35.2539C94.8843 35.2539 93.9787 34.945 93.217 34.3271C92.4637 33.7008 91.9051 32.8926 91.5412 31.9023C91.1773 30.9036 90.9953 29.7865 90.9953 28.5508V28.5254C90.9953 27.2897 91.1773 26.1768 91.5412 25.1865C91.9051 24.1878 92.4637 23.3796 93.217 22.7617C93.9787 22.1354 94.8843 21.8223 95.9338 21.8223C97.1018 21.8223 98.0666 22.2158 98.8283 23.0029C99.5985 23.7816 100.064 24.8522 100.225 26.2148H98.5109C98.3924 25.3431 98.1174 24.6618 97.6857 24.1709C97.2541 23.68 96.6701 23.4346 95.9338 23.4346C95.3752 23.4346 94.8801 23.5785 94.4484 23.8662C94.0253 24.154 93.6867 24.5433 93.4328 25.0342C93.1874 25.5251 93.0012 26.0667 92.8742 26.6592C92.7473 27.2432 92.6838 27.8652 92.6838 28.5254C92.6838 29.4225 92.7896 30.2477 93.0012 31.001C93.2128 31.7458 93.5682 32.3763 94.0676 32.8926ZM111.283 21.708C111.876 21.708 112.363 21.8942 112.743 22.2666C113.124 22.639 113.382 23.0918 113.518 23.625C113.662 24.1582 113.734 24.7676 113.734 25.4531V35H112.096V25.542C112.096 25.2627 112.092 25.0342 112.083 24.8564C112.075 24.6787 112.049 24.484 112.007 24.2725C111.965 24.0524 111.906 23.8831 111.829 23.7646C111.753 23.6377 111.643 23.5319 111.499 23.4473C111.355 23.3626 111.182 23.3203 110.979 23.3203C110.674 23.3203 110.412 23.4049 110.192 23.5742C109.972 23.7435 109.802 23.9508 109.684 24.1963C109.574 24.4333 109.485 24.7422 109.417 25.123C109.358 25.5039 109.32 25.8467 109.303 26.1514C109.286 26.4476 109.278 26.7988 109.278 27.2051V35H107.614V25.9482C107.614 25.0088 107.538 24.3359 107.386 23.9297C107.242 23.5234 106.929 23.3203 106.447 23.3203C106.091 23.3203 105.786 23.4473 105.532 23.7012C105.279 23.9466 105.088 24.2809 104.961 24.7041C104.843 25.1188 104.758 25.5293 104.707 25.9355C104.656 26.3418 104.631 26.765 104.631 27.2051V35H102.993L103.044 22H104.441L104.555 23.7393C104.783 23.0622 105.097 22.5544 105.494 22.2158C105.901 21.8773 106.349 21.708 106.84 21.708C107.424 21.708 107.881 21.9027 108.211 22.292C108.541 22.6729 108.753 23.1807 108.846 23.8154C109.388 22.4105 110.2 21.708 111.283 21.708Z"/>
    </mask>
    <path d="M33.5059 25.3262C34.6146 25.4954 35.5498 26.0244 36.3115 26.9131C37.0732 27.8018 37.4541 28.8174 37.4541 29.96C37.4541 31.5088 36.9463 32.7783 35.9307 33.7686C34.9235 34.7588 33.6286 35.2539 32.0459 35.2539C31.2334 35.2539 30.4886 35.1227 29.8115 34.8604C29.1429 34.5895 28.5801 34.2256 28.123 33.7686C27.6745 33.3031 27.3021 32.7995 27.0059 32.2578C26.7096 31.7077 26.4811 31.1152 26.3203 30.4805H28.0723C28.3177 31.4284 28.7832 32.1943 29.4688 32.7783C30.1543 33.3623 31.0303 33.6543 32.0967 33.6543C33.1969 33.6543 34.0814 33.3115 34.75 32.626C35.4271 31.932 35.7656 31.0433 35.7656 29.96C35.7656 29.139 35.554 28.4408 35.1309 27.8652C34.7077 27.2812 34.1491 26.8581 33.4551 26.5957C32.7611 26.3249 31.9697 26.1895 31.0811 26.1895H30.4336V24.5771H31.0811C32.249 24.5771 33.2223 24.2682 34.001 23.6504C34.7796 23.0326 35.1689 22.1777 35.1689 21.0859C35.1689 20.2396 34.8727 19.5456 34.2803 19.0039C33.6963 18.4538 32.9769 18.1787 32.1221 18.1787C31.1911 18.1787 30.387 18.4622 29.71 19.0293C29.0329 19.5879 28.5801 20.3115 28.3516 21.2002H26.6631C26.8747 19.8714 27.4883 18.7627 28.5039 17.874C29.5195 16.9854 30.7256 16.541 32.1221 16.541C33.4593 16.541 34.5807 16.9727 35.4863 17.8359C36.4004 18.6908 36.8574 19.7741 36.8574 21.0859C36.8574 22 36.54 22.8675 35.9053 23.6885C35.279 24.5094 34.4792 25.0553 33.5059 25.3262ZM49.833 25.9229C49.833 27.8356 49.6511 29.4775 49.2871 30.8486C48.9317 32.2197 48.3562 33.3031 47.5606 34.0986C46.765 34.8857 45.7748 35.2835 44.5899 35.292C43.7012 35.292 42.9226 35.0719 42.2539 34.6318C41.5938 34.1833 41.0564 33.5443 40.6416 32.7148C40.2269 31.8854 39.918 30.9036 39.7149 29.7695C39.5118 28.6354 39.4102 27.3532 39.4102 25.9229C39.4102 24.4925 39.5118 23.2103 39.7149 22.0762C39.918 20.9421 40.2269 19.9603 40.6416 19.1309C41.0564 18.3014 41.5938 17.6667 42.2539 17.2266C42.9226 16.7865 43.7012 16.5664 44.5899 16.5664C46.3503 16.5664 47.6621 17.3958 48.5254 19.0547C49.3972 20.7051 49.833 22.9945 49.833 25.9229ZM48.0938 25.9229C48.0938 24.7549 48.0261 23.7139 47.8907 22.7998C47.7552 21.8857 47.5479 21.0902 47.2686 20.4131C46.9978 19.7275 46.6338 19.207 46.1768 18.8516C45.7282 18.4876 45.1993 18.3057 44.5899 18.3057C42.2624 18.3057 41.0987 20.8447 41.0987 25.9229C41.0987 28.3519 41.3822 30.2393 41.9493 31.585C42.5163 32.9222 43.3965 33.5908 44.5899 33.5908C45.1823 33.5908 45.7028 33.4046 46.1514 33.0322C46.6 32.6598 46.9639 32.1309 47.2432 31.4453C47.531 30.7513 47.7426 29.943 47.878 29.0205C48.0218 28.098 48.0938 27.0654 48.0938 25.9229ZM62.085 22L58.2638 28.4746L62.1104 35H60.2442L57.4132 29.9346L54.5821 35H52.7032L56.5499 28.4746L52.7286 22H54.6075L57.4132 27.0146L60.2188 22H62.085ZM73.7657 35H72.0773V30.9756H64.6251V29.3633L72.0773 16.7695H73.7657V29.3633H75.8478V30.9756H73.7657V35ZM66.4913 29.3633H72.0773V19.9434L66.4913 29.3633ZM88.0744 25.9229C88.0744 27.8356 87.8924 29.4775 87.5285 30.8486C87.173 32.2197 86.5975 33.3031 85.8019 34.0986C85.0063 34.8857 84.0161 35.2835 82.8312 35.292C81.9425 35.292 81.1639 35.0719 80.4953 34.6318C79.8351 34.1833 79.2977 33.5443 78.883 32.7148C78.4683 31.8854 78.1593 30.9036 77.9562 29.7695C77.7531 28.6354 77.6515 27.3532 77.6515 25.9229C77.6515 24.4925 77.7531 23.2103 77.9562 22.0762C78.1593 20.9421 78.4683 19.9603 78.883 19.1309C79.2977 18.3014 79.8351 17.6667 80.4953 17.2266C81.1639 16.7865 81.9425 16.5664 82.8312 16.5664C84.5916 16.5664 85.9035 17.3958 86.7668 19.0547C87.6385 20.7051 88.0744 22.9945 88.0744 25.9229ZM86.3351 25.9229C86.3351 24.7549 86.2674 23.7139 86.132 22.7998C85.9966 21.8857 85.7892 21.0902 85.5099 20.4131C85.2391 19.7275 84.8752 19.207 84.4181 18.8516C83.9696 18.4876 83.4406 18.3057 82.8312 18.3057C80.5037 18.3057 79.34 20.8447 79.34 25.9229C79.34 28.3519 79.6235 30.2393 80.1906 31.585C80.7576 32.9222 81.6379 33.5908 82.8312 33.5908C83.4237 33.5908 83.9442 33.4046 84.3927 33.0322C84.8413 32.6598 85.2052 32.1309 85.4845 31.4453C85.7723 30.7513 85.9839 29.943 86.1193 29.0205C86.2632 28.098 86.3351 27.0654 86.3351 25.9229ZM94.0676 32.8926C94.5754 33.4004 95.1975 33.6543 95.9338 33.6543C96.6701 33.6543 97.2541 33.4089 97.6857 32.918C98.1174 32.4186 98.3924 31.7331 98.5109 30.8613H100.225C100.064 32.224 99.5985 33.2988 98.8283 34.0859C98.0666 34.8646 97.1018 35.2539 95.9338 35.2539C94.8843 35.2539 93.9787 34.945 93.217 34.3271C92.4637 33.7008 91.9051 32.8926 91.5412 31.9023C91.1773 30.9036 90.9953 29.7865 90.9953 28.5508V28.5254C90.9953 27.2897 91.1773 26.1768 91.5412 25.1865C91.9051 24.1878 92.4637 23.3796 93.217 22.7617C93.9787 22.1354 94.8843 21.8223 95.9338 21.8223C97.1018 21.8223 98.0666 22.2158 98.8283 23.0029C99.5985 23.7816 100.064 24.8522 100.225 26.2148H98.5109C98.3924 25.3431 98.1174 24.6618 97.6857 24.1709C97.2541 23.68 96.6701 23.4346 95.9338 23.4346C95.3752 23.4346 94.8801 23.5785 94.4484 23.8662C94.0253 24.154 93.6867 24.5433 93.4328 25.0342C93.1874 25.5251 93.0012 26.0667 92.8742 26.6592C92.7473 27.2432 92.6838 27.8652 92.6838 28.5254C92.6838 29.4225 92.7896 30.2477 93.0012 31.001C93.2128 31.7458 93.5682 32.3763 94.0676 32.8926ZM111.283 21.708C111.876 21.708 112.363 21.8942 112.743 22.2666C113.124 22.639 113.382 23.0918 113.518 23.625C113.662 24.1582 113.734 24.7676 113.734 25.4531V35H112.096V25.542C112.096 25.2627 112.092 25.0342 112.083 24.8564C112.075 24.6787 112.049 24.484 112.007 24.2725C111.965 24.0524 111.906 23.8831 111.829 23.7646C111.753 23.6377 111.643 23.5319 111.499 23.4473C111.355 23.3626 111.182 23.3203 110.979 23.3203C110.674 23.3203 110.412 23.4049 110.192 23.5742C109.972 23.7435 109.802 23.9508 109.684 24.1963C109.574 24.4333 109.485 24.7422 109.417 25.123C109.358 25.5039 109.32 25.8467 109.303 26.1514C109.286 26.4476 109.278 26.7988 109.278 27.2051V35H107.614V25.9482C107.614 25.0088 107.538 24.3359 107.386 23.9297C107.242 23.5234 106.929 23.3203 106.447 23.3203C106.091 23.3203 105.786 23.4473 105.532 23.7012C105.279 23.9466 105.088 24.2809 104.961 24.7041C104.843 25.1188 104.758 25.5293 104.707 25.9355C104.656 26.3418 104.631 26.765 104.631 27.2051V35H102.993L103.044 22H104.441L104.555 23.7393C104.783 23.0622 105.097 22.5544 105.494 22.2158C105.901 21.8773 106.349 21.708 106.84 21.708C107.424 21.708 107.881 21.9027 108.211 22.292C108.541 22.6729 108.753 23.1807 108.846 23.8154C109.388 22.4105 110.2 21.708 111.283 21.708Z" fill="#E9E9E9"/>
    <path d="M33.5059 25.3262L33.4522 25.1335L33.4757 25.5239L33.5059 25.3262ZM35.9307 33.7686L35.791 33.6254L35.7904 33.6259L35.9307 33.7686ZM29.8115 34.8604L29.7364 35.0457L29.7393 35.0468L29.8115 34.8604ZM28.123 33.7686L27.979 33.9074L27.9816 33.91L28.123 33.7686ZM27.0059 32.2578L26.8298 32.3526L26.8304 32.3538L27.0059 32.2578ZM26.3203 30.4805V30.2805H26.0633L26.1264 30.5296L26.3203 30.4805ZM28.0723 30.4805L28.2659 30.4303L28.2271 30.2805H28.0723V30.4805ZM34.75 32.626L34.6068 32.4863L34.6068 32.4863L34.75 32.626ZM35.1309 27.8652L34.9689 27.9826L34.9697 27.9837L35.1309 27.8652ZM33.4551 26.5957L33.3824 26.782L33.3844 26.7828L33.4551 26.5957ZM30.4336 26.1895H30.2336V26.3895H30.4336V26.1895ZM30.4336 24.5771V24.3771H30.2336V24.5771H30.4336ZM34.2803 19.0039L34.1431 19.1495L34.1453 19.1515L34.2803 19.0039ZM29.71 19.0293L29.8372 19.1836L29.8384 19.1826L29.71 19.0293ZM28.3516 21.2002V21.4002H28.5066L28.5453 21.25L28.3516 21.2002ZM26.6631 21.2002L26.4656 21.1687L26.4287 21.4002H26.6631V21.2002ZM35.4863 17.8359L35.3483 17.9807L35.3497 17.982L35.4863 17.8359ZM35.9053 23.6885L35.747 23.5661L35.7463 23.5672L35.9053 23.6885ZM33.4757 25.5239C34.5349 25.6856 35.4276 26.1892 36.1597 27.0432L36.4634 26.7829C35.672 25.8596 34.6943 25.3053 33.536 25.1285L33.4757 25.5239ZM36.1597 27.0432C36.8912 27.8966 37.2541 28.8664 37.2541 29.96H37.6541C37.6541 28.7684 37.2553 27.7069 36.4634 26.7829L36.1597 27.0432ZM37.2541 29.96C37.2541 31.4603 36.7643 32.6764 35.791 33.6254L36.0703 33.9118C37.1283 32.8802 37.6541 31.5572 37.6541 29.96H37.2541ZM35.7904 33.6259C34.8253 34.5748 33.583 35.0539 32.0459 35.0539V35.4539C33.6741 35.4539 35.0217 34.9427 36.0709 33.9112L35.7904 33.6259ZM32.0459 35.0539C31.2552 35.0539 30.5352 34.9263 29.8838 34.6739L29.7393 35.0468C30.442 35.3191 31.2116 35.4539 32.0459 35.4539V35.0539ZM29.8866 34.675C29.2399 34.413 28.7005 34.0631 28.2645 33.6271L27.9816 33.91C28.4597 34.388 29.0459 34.766 29.7364 35.0457L29.8866 34.675ZM28.2671 33.6298C27.8303 33.1765 27.4686 32.6872 27.1813 32.1618L26.8304 32.3538C27.1355 32.9118 27.5187 33.4296 27.979 33.9073L28.2671 33.6298ZM27.182 32.163C26.8939 31.628 26.6712 31.051 26.5142 30.4314L26.1264 30.5296C26.2911 31.1795 26.5254 31.7874 26.8298 32.3526L27.182 32.163ZM26.3203 30.6805H28.0723V30.2805H26.3203V30.6805ZM27.8787 30.5306C28.1335 31.5147 28.6195 32.3176 29.3391 32.9306L29.5984 32.6261C28.9469 32.0711 28.502 31.3421 28.2659 30.4303L27.8787 30.5306ZM29.3391 32.9306C30.0672 33.5509 30.9919 33.8543 32.0967 33.8543V33.4543C31.0686 33.4543 30.2414 33.1738 29.5984 32.6261L29.3391 32.9306ZM32.0967 33.8543C33.2421 33.8543 34.1812 33.4956 34.8932 32.7656L34.6068 32.4863C33.9815 33.1274 33.1518 33.4543 32.0967 33.4543V33.8543ZM34.8932 32.7656C35.6111 32.0298 35.9656 31.0888 35.9656 29.96H35.5656C35.5656 30.9978 35.2431 31.8342 34.6068 32.4863L34.8932 32.7656ZM35.9656 29.96C35.9656 29.103 35.7441 28.3616 35.292 27.7468L34.9697 27.9837C35.364 28.5199 35.5656 29.175 35.5656 29.96H35.9656ZM35.2928 27.7479C34.846 27.1313 34.2553 26.6844 33.5258 26.4086L33.3844 26.7828C34.0429 27.0317 34.5694 27.4312 34.9689 27.9826L35.2928 27.7479ZM33.5278 26.4094C32.8066 26.1279 31.9899 25.9895 31.0811 25.9895V26.3895C31.9495 26.3895 32.7155 26.5218 33.3824 26.782L33.5278 26.4094ZM31.0811 25.9895H30.4336V26.3895H31.0811V25.9895ZM30.6336 26.1895V24.5771H30.2336V26.1895H30.6336ZM30.4336 24.7771H31.0811V24.3771H30.4336V24.7771ZM31.0811 24.7771C32.2859 24.7771 33.3053 24.4577 34.1253 23.8071L33.8767 23.4937C33.1393 24.0788 32.2121 24.3771 31.0811 24.3771V24.7771ZM34.1253 23.8071C34.9569 23.1472 35.3689 22.2319 35.3689 21.0859H34.9689C34.9689 22.1236 34.6024 22.9179 33.8767 23.4937L34.1253 23.8071ZM35.3689 21.0859C35.3689 20.1869 35.0516 19.4381 34.4152 18.8563L34.1453 19.1515C34.6939 19.653 34.9689 20.2923 34.9689 21.0859H35.3689ZM34.4174 18.8583C33.7937 18.2708 33.0242 17.9787 32.1221 17.9787V18.3787C32.9296 18.3787 33.5988 18.6367 34.1431 19.1495L34.4174 18.8583ZM32.1221 17.9787C31.1469 17.9787 30.2967 18.277 29.5815 18.876L29.8384 19.1826C30.4774 18.6474 31.2353 18.3787 32.1221 18.3787V17.9787ZM29.5827 18.875C28.8714 19.4618 28.3964 20.2227 28.1579 21.1504L28.5453 21.25C28.7638 20.4003 29.1943 19.714 29.8372 19.1836L29.5827 18.875ZM28.3516 21.0002H26.6631V21.4002H28.3516V21.0002ZM26.8606 21.2316C27.0648 19.9492 27.655 18.8825 28.6356 18.0245L28.3722 17.7235C27.3215 18.6429 26.6845 19.7937 26.4656 21.1687L26.8606 21.2316ZM28.6356 18.0245C29.6134 17.169 30.7722 16.741 32.1221 16.741V16.341C30.679 16.341 29.4257 16.8017 28.3722 17.7235L28.6356 18.0245ZM32.1221 16.741C33.4118 16.741 34.4826 17.1555 35.3483 17.9807L35.6243 17.6912C34.6788 16.7898 33.5068 16.341 32.1221 16.341V16.741ZM35.3497 17.982C36.2212 18.797 36.6574 19.8265 36.6574 21.0859H37.0574C37.0574 19.7217 36.5796 18.5845 35.6229 17.6899L35.3497 17.982ZM36.6574 21.0859C36.6574 21.9498 36.3586 22.7752 35.7471 23.5661L36.0635 23.8108C36.7215 22.9598 37.0574 22.0502 37.0574 21.0859H36.6574ZM35.7463 23.5672C35.1458 24.3543 34.3826 24.8746 33.4522 25.1335L33.5595 25.5189C34.5757 25.2361 35.4122 24.6646 36.0643 23.8098L35.7463 23.5672ZM49.2871 30.8486L49.0938 30.7973L49.0935 30.7984L49.2871 30.8486ZM47.5606 34.0986L47.7013 34.2408L47.702 34.2401L47.5606 34.0986ZM44.5899 35.292V35.492L44.5913 35.492L44.5899 35.292ZM42.2539 34.6318L42.1415 34.7973L42.144 34.7989L42.2539 34.6318ZM40.6416 32.7148L40.4628 32.8043L40.6416 32.7148ZM39.7149 22.0762L39.518 22.0409L39.7149 22.0762ZM40.6416 19.1309L40.4628 19.0414L40.6416 19.1309ZM42.2539 17.2266L42.144 17.0595L42.143 17.0602L42.2539 17.2266ZM48.5254 19.0547L48.348 19.147L48.3486 19.1481L48.5254 19.0547ZM47.2686 20.4131L47.0826 20.4866L47.0837 20.4894L47.2686 20.4131ZM46.1768 18.8516L46.0508 19.0069L46.054 19.0094L46.1768 18.8516ZM41.9493 31.585L41.765 31.6626L41.7651 31.663L41.9493 31.585ZM47.2432 31.4453L47.0585 31.3687L47.058 31.3699L47.2432 31.4453ZM47.878 29.0205L47.6803 28.9897L47.6801 28.9915L47.878 29.0205ZM49.633 25.9229C49.633 27.8239 49.4521 29.4476 49.0938 30.7973L49.4805 30.8999C49.8501 29.5075 50.033 27.8473 50.033 25.9229H49.633ZM49.0935 30.7984C48.7447 32.1438 48.1838 33.1926 47.4192 33.9572L47.702 34.2401C48.5285 33.4135 49.1186 32.2956 49.4807 30.8988L49.0935 30.7984ZM47.4199 33.9565C46.6638 34.7046 45.7246 35.0839 44.5885 35.092L44.5913 35.492C45.825 35.4832 46.8662 35.0669 47.7012 34.2408L47.4199 33.9565ZM44.5899 35.092C43.7358 35.092 42.9963 34.8811 42.3639 34.4648L42.144 34.7989C42.8488 35.2628 43.6666 35.492 44.5899 35.492V35.092ZM42.3664 34.4664C41.7388 34.04 41.2224 33.4292 40.8205 32.6254L40.4628 32.8043C40.8903 33.6593 41.4488 34.3266 42.1415 34.7973L42.3664 34.4664ZM40.8205 32.6254C40.4161 31.8166 40.1123 30.8539 39.9117 29.7343L39.518 29.8048C39.7237 30.9534 40.0377 31.9542 40.4628 32.8043L40.8205 32.6254ZM39.9117 29.7343C39.7111 28.6142 39.6102 27.3441 39.6102 25.9229H39.2102C39.2102 27.3623 39.3124 28.6567 39.518 29.8048L39.9117 29.7343ZM39.6102 25.9229C39.6102 24.5016 39.7111 23.2315 39.9117 22.1114L39.518 22.0409C39.3124 23.1891 39.2102 24.4834 39.2102 25.9229H39.6102ZM39.9117 22.1114C40.1123 20.9918 40.4161 20.0291 40.8205 19.2203L40.4628 19.0414C40.0377 19.8915 39.7237 20.8923 39.518 22.0409L39.9117 22.1114ZM40.8205 19.2203C41.2223 18.4167 41.7382 17.8107 42.3649 17.393L42.143 17.0602C41.4493 17.5226 40.8904 18.1862 40.4628 19.0414L40.8205 19.2203ZM42.3639 17.3936C42.9963 16.9773 43.7358 16.7664 44.5899 16.7664V16.3664C43.6666 16.3664 42.8488 16.5956 42.144 17.0595L42.3639 17.3936ZM44.5899 16.7664C45.4375 16.7664 46.1674 16.9656 46.7872 17.3575C47.4077 17.7498 47.9293 18.3425 48.348 19.147L48.7028 18.9624C48.2582 18.108 47.6923 17.4566 47.001 17.0194C46.3089 16.5819 45.5027 16.3664 44.5899 16.3664V16.7664ZM48.3486 19.1481C49.1989 20.7579 49.633 23.0103 49.633 25.9229H50.033C50.033 22.9786 49.5955 20.6523 48.7023 18.9613L48.3486 19.1481ZM48.2938 25.9229C48.2938 24.7475 48.2257 23.6964 48.0885 22.7705L47.6928 22.8291C47.8265 23.7313 47.8938 24.7623 47.8938 25.9229H48.2938ZM48.0885 22.7705C47.9513 21.8443 47.7404 21.0323 47.4535 20.3368L47.0837 20.4894C47.3554 21.148 47.5592 21.9272 47.6928 22.8291L48.0885 22.7705ZM47.4546 20.3396C47.1742 19.6297 46.7916 19.0764 46.2996 18.6937L46.054 19.0094C46.4761 19.3377 46.8214 19.8254 47.0826 20.4866L47.4546 20.3396ZM46.3028 18.6963C45.8165 18.3017 45.2424 18.1057 44.5899 18.1057V18.5057C45.1561 18.5057 45.6399 18.6735 46.0508 19.0069L46.3028 18.6963ZM44.5899 18.1057C43.9692 18.1057 43.4182 18.2758 42.9448 18.62C42.4737 18.9627 42.0908 19.4696 41.7897 20.1266C41.1897 21.4357 40.8987 23.3748 40.8987 25.9229H41.2987C41.2987 23.3928 41.5896 21.5233 42.1533 20.2933C42.434 19.6808 42.7785 19.2356 43.1801 18.9435C43.5796 18.6529 44.0468 18.5057 44.5899 18.5057V18.1057ZM40.8987 25.9229C40.8987 28.3632 41.1829 30.2813 41.765 31.6626L42.1336 31.5073C41.5815 30.1972 41.2987 28.3406 41.2987 25.9229H40.8987ZM41.7651 31.663C42.0581 32.354 42.4385 32.8876 42.9137 33.2486C43.3915 33.6115 43.9532 33.7908 44.5899 33.7908V33.3908C44.0332 33.3908 43.5582 33.2358 43.1557 32.9301C42.7507 32.6225 42.4075 32.1532 42.1334 31.5069L41.7651 31.663ZM44.5899 33.7908C45.2282 33.7908 45.7941 33.5888 46.2792 33.1861L46.0237 32.8783C45.6116 33.2204 45.1365 33.3908 44.5899 33.3908V33.7908ZM46.2792 33.1861C46.759 32.7878 47.14 32.2288 47.4284 31.5208L47.058 31.3699C46.7878 32.033 46.441 32.5319 46.0237 32.8783L46.2792 33.1861ZM47.428 31.5219C47.7233 30.8095 47.9386 29.9847 48.0758 29.0496L47.6801 28.9915C47.5465 29.9014 47.3386 30.6931 47.0585 31.3687L47.428 31.5219ZM48.0756 29.0513C48.2214 28.1166 48.2938 27.0736 48.2938 25.9229H47.8938C47.8938 27.0573 47.8223 28.0793 47.6804 28.9897L48.0756 29.0513ZM62.085 22L62.2573 22.1017L62.4353 21.8H62.085V22ZM58.2637 28.4746L58.0915 28.373L58.0316 28.4745L58.0915 28.5762L58.2637 28.4746ZM62.1104 35V35.2H62.4605L62.2827 34.8984L62.1104 35ZM60.2442 35L60.0696 35.0976L60.1269 35.2H60.2442V35ZM57.4132 29.9346L57.5877 29.837L57.4132 29.5246L57.2386 29.837L57.4132 29.9346ZM54.5821 35V35.2H54.6994L54.7567 35.0976L54.5821 35ZM52.7032 35L52.5309 34.8984L52.3531 35.2H52.7032V35ZM56.5499 28.4746L56.7222 28.5762L56.7821 28.4745L56.7221 28.373L56.5499 28.4746ZM52.7286 22V21.8H52.3783L52.5564 22.1017L52.7286 22ZM54.6075 22L54.782 21.9023L54.7248 21.8H54.6075V22ZM57.4132 27.0146L57.2386 27.1123L57.4132 27.4243L57.5877 27.1123L57.4132 27.0146ZM60.2188 22V21.8H60.1016L60.0443 21.9023L60.2188 22ZM61.9128 21.8983L58.0915 28.373L58.436 28.5763L62.2573 22.1017L61.9128 21.8983ZM58.0915 28.5762L61.9381 35.1016L62.2827 34.8984L58.436 28.373L58.0915 28.5762ZM62.1104 34.8H60.2442V35.2H62.1104V34.8ZM60.4188 34.9024L57.5877 29.837L57.2386 30.0321L60.0696 35.0976L60.4188 34.9024ZM57.2386 29.837L54.4075 34.9024L54.7567 35.0976L57.5877 30.0321L57.2386 29.837ZM54.5821 34.8H52.7032V35.2H54.5821V34.8ZM52.8755 35.1016L56.7222 28.5762L56.3776 28.373L52.5309 34.8984L52.8755 35.1016ZM56.7221 28.373L52.9008 21.8983L52.5564 22.1017L56.3776 28.5763L56.7221 28.373ZM52.7286 22.2H54.6075V21.8H52.7286V22.2ZM54.433 22.0977L57.2386 27.1123L57.5877 26.917L54.782 21.9023L54.433 22.0977ZM57.5877 27.1123L60.3934 22.0977L60.0443 21.9023L57.2386 26.917L57.5877 27.1123ZM60.2188 22.2H62.085V21.8H60.2188V22.2ZM73.7657 35V35.2H73.9657V35H73.7657ZM72.0773 35H71.8773V35.2H72.0773V35ZM72.0773 30.9756H72.2773V30.7756H72.0773V30.9756ZM64.6251 30.9756H64.4251V31.1756H64.6251V30.9756ZM64.6251 29.3633L64.453 29.2614L64.4251 29.3085V29.3633H64.6251ZM72.0773 16.7695V16.5695H71.9632L71.9051 16.6677L72.0773 16.7695ZM73.7657 16.7695H73.9657V16.5695H73.7657V16.7695ZM73.7657 29.3633H73.5657V29.5633H73.7657V29.3633ZM75.8478 29.3633H76.0478V29.1633H75.8478V29.3633ZM75.8478 30.9756V31.1756H76.0478V30.9756H75.8478ZM73.7657 30.9756V30.7756H73.5657V30.9756H73.7657ZM66.4913 29.3633L66.3193 29.2613L66.1402 29.5633H66.4913V29.3633ZM72.0773 29.3633V29.5633H72.2773V29.3633H72.0773ZM72.0773 19.9434H72.2773V19.214L71.9052 19.8413L72.0773 19.9434ZM73.7657 34.8H72.0773V35.2H73.7657V34.8ZM72.2773 35V30.9756H71.8773V35H72.2773ZM72.0773 30.7756H64.6251V31.1756H72.0773V30.7756ZM64.8251 30.9756V29.3633H64.4251V30.9756H64.8251ZM64.7972 29.4651L72.2494 16.8714L71.9051 16.6677L64.453 29.2614L64.7972 29.4651ZM72.0773 16.9695H73.7657V16.5695H72.0773V16.9695ZM73.5657 16.7695V29.3633H73.9657V16.7695H73.5657ZM73.7657 29.5633H75.8478V29.1633H73.7657V29.5633ZM75.6478 29.3633V30.9756H76.0478V29.3633H75.6478ZM75.8478 30.7756H73.7657V31.1756H75.8478V30.7756ZM73.5657 30.9756V35H73.9657V30.9756H73.5657ZM66.4913 29.5633H72.0773V29.1633H66.4913V29.5633ZM72.2773 29.3633V19.9434H71.8773V29.3633H72.2773ZM71.9052 19.8413L66.3193 29.2613L66.6634 29.4653L72.2493 20.0454L71.9052 19.8413ZM87.5285 30.8486L87.3352 30.7973L87.3349 30.7984L87.5285 30.8486ZM85.8019 34.0986L85.9426 34.2408L85.9433 34.2401L85.8019 34.0986ZM82.8312 35.292V35.492L82.8326 35.492L82.8312 35.292ZM80.4953 34.6318L80.3829 34.7973L80.3853 34.7989L80.4953 34.6318ZM78.883 32.7148L78.7041 32.8043L78.883 32.7148ZM77.9562 22.0762L77.7593 22.0409L77.9562 22.0762ZM78.883 19.1309L78.7041 19.0414L78.883 19.1309ZM80.4953 17.2266L80.3853 17.0595L80.3843 17.0602L80.4953 17.2266ZM86.7668 19.0547L86.5893 19.147L86.5899 19.1481L86.7668 19.0547ZM85.5099 20.4131L85.3239 20.4866L85.325 20.4894L85.5099 20.4131ZM84.4181 18.8516L84.2921 19.0069L84.2953 19.0094L84.4181 18.8516ZM80.1906 31.585L80.0063 31.6626L80.0065 31.663L80.1906 31.585ZM85.4845 31.4453L85.2998 31.3687L85.2993 31.3699L85.4845 31.4453ZM86.1193 29.0205L85.9217 28.9897L85.9214 28.9915L86.1193 29.0205ZM87.8744 25.9229C87.8744 27.8239 87.6934 29.4476 87.3352 30.7973L87.7218 30.8999C88.0914 29.5075 88.2744 27.8473 88.2744 25.9229H87.8744ZM87.3349 30.7984C86.9861 32.1438 86.4251 33.1926 85.6605 33.9572L85.9433 34.2401C86.7699 33.4135 87.3599 32.2956 87.7221 30.8988L87.3349 30.7984ZM85.6613 33.9565C84.9051 34.7046 83.9659 35.0839 82.8298 35.092L82.8326 35.492C84.0663 35.4832 85.1076 35.0669 85.9426 34.2408L85.6613 33.9565ZM82.8312 35.092C81.9772 35.092 81.2377 34.8811 80.6052 34.4648L80.3853 34.7989C81.0901 35.2628 81.9079 35.492 82.8312 35.492V35.092ZM80.6077 34.4664C79.9801 34.04 79.4638 33.4292 79.0619 32.6254L78.7041 32.8043C79.1316 33.6593 79.6901 34.3266 80.3829 34.7973L80.6077 34.4664ZM79.0619 32.6254C78.6575 31.8166 78.3536 30.8539 78.1531 29.7343L77.7593 29.8048C77.9651 30.9534 78.279 31.9542 78.7041 32.8043L79.0619 32.6254ZM78.1531 29.7343C77.9525 28.6142 77.8515 27.3441 77.8515 25.9229H77.4515C77.4515 27.3623 77.5537 28.6567 77.7593 29.8048L78.1531 29.7343ZM77.8515 25.9229C77.8515 24.5016 77.9525 23.2315 78.1531 22.1114L77.7593 22.0409C77.5537 23.1891 77.4515 24.4834 77.4515 25.9229H77.8515ZM78.1531 22.1114C78.3536 20.9918 78.6575 20.0291 79.0619 19.2203L78.7041 19.0414C78.279 19.8915 77.9651 20.8923 77.7593 22.0409L78.1531 22.1114ZM79.0619 19.2203C79.4636 18.4167 79.9796 17.8107 80.6062 17.393L80.3843 17.0602C79.6907 17.5226 79.1317 18.1862 78.7041 19.0414L79.0619 19.2203ZM80.6052 17.3936C81.2377 16.9773 81.9772 16.7664 82.8312 16.7664V16.3664C81.9079 16.3664 81.0901 16.5956 80.3853 17.0595L80.6052 17.3936ZM82.8312 16.7664C83.6788 16.7664 84.4087 16.9656 85.0285 17.3575C85.649 17.7498 86.1707 18.3425 86.5893 19.147L86.9442 18.9624C86.4996 18.108 85.9337 17.4566 85.2423 17.0194C84.5502 16.5819 83.744 16.3664 82.8312 16.3664V16.7664ZM86.5899 19.1481C87.4402 20.7579 87.8744 23.0103 87.8744 25.9229H88.2744C88.2744 22.9786 87.8368 20.6523 86.9436 18.9613L86.5899 19.1481ZM86.5351 25.9229C86.5351 24.7475 86.467 23.6964 86.3298 22.7705L85.9342 22.8291C86.0678 23.7313 86.1351 24.7623 86.1351 25.9229H86.5351ZM86.3298 22.7705C86.1926 21.8443 85.9817 21.0323 85.6948 20.3368L85.325 20.4894C85.5967 21.148 85.8005 21.9272 85.9342 22.8291L86.3298 22.7705ZM85.6959 20.3396C85.4155 19.6297 85.0329 19.0764 84.5409 18.6937L84.2953 19.0094C84.7174 19.3377 85.0627 19.8254 85.3239 20.4866L85.6959 20.3396ZM84.5441 18.6963C84.0579 18.3017 83.4838 18.1057 82.8312 18.1057V18.5057C83.3974 18.5057 83.8812 18.6735 84.2921 19.0069L84.5441 18.6963ZM82.8312 18.1057C82.2106 18.1057 81.6595 18.2758 81.1862 18.62C80.715 18.9627 80.3321 19.4696 80.031 20.1266C79.431 21.4357 79.14 23.3748 79.14 25.9229H79.54C79.54 23.3928 79.8309 21.5233 80.3946 20.2933C80.6753 19.6808 81.0198 19.2356 81.4214 18.9435C81.8209 18.6529 82.2881 18.5057 82.8312 18.5057V18.1057ZM79.14 25.9229C79.14 28.3632 79.4242 30.2813 80.0063 31.6626L80.3749 31.5073C79.8228 30.1972 79.54 28.3406 79.54 25.9229H79.14ZM80.0065 31.663C80.2994 32.354 80.6798 32.8876 81.1551 33.2486C81.6328 33.6115 82.1945 33.7908 82.8312 33.7908V33.3908C82.2745 33.3908 81.7995 33.2358 81.397 32.9301C80.9921 32.6225 80.6488 32.1532 80.3747 31.5069L80.0065 31.663ZM82.8312 33.7908C83.4695 33.7908 84.0354 33.5888 84.5205 33.1861L84.265 32.8783C83.8529 33.2204 83.3778 33.3908 82.8312 33.3908V33.7908ZM84.5205 33.1861C85.0003 32.7878 85.3813 32.2288 85.6698 31.5208L85.2993 31.3699C85.0292 32.033 84.6823 32.5319 84.265 32.8783L84.5205 33.1861ZM85.6693 31.5219C85.9647 30.8095 86.1799 29.9847 86.3172 29.0496L85.9214 28.9915C85.7878 29.9014 85.5799 30.6931 85.2998 31.3687L85.6693 31.5219ZM86.3169 29.0513C86.4627 28.1166 86.5351 27.0736 86.5351 25.9229H86.1351C86.1351 27.0573 86.0637 28.0793 85.9217 28.9897L86.3169 29.0513ZM94.0676 32.8926L93.9238 33.0316L93.9262 33.034L94.0676 32.8926ZM97.6857 32.918L97.8359 33.05L97.8371 33.0488L97.6857 32.918ZM98.5109 30.8613V30.6613H98.3363L98.3128 30.8344L98.5109 30.8613ZM100.225 30.8613L100.423 30.8848L100.45 30.6613H100.225V30.8613ZM98.8283 34.0859L98.6854 33.9461L98.6854 33.9461L98.8283 34.0859ZM93.217 34.3271L93.0891 34.4809L93.091 34.4825L93.217 34.3271ZM91.5412 31.9023L91.3533 31.9708L91.3535 31.9713L91.5412 31.9023ZM91.5412 25.1865L91.7289 25.2555L91.7291 25.255L91.5412 25.1865ZM93.217 22.7617L93.3438 22.9164L93.344 22.9162L93.217 22.7617ZM98.8283 23.0029L98.6846 23.142L98.6861 23.1436L98.8283 23.0029ZM100.225 26.2148V26.4148H100.45L100.423 26.1914L100.225 26.2148ZM98.5109 26.2148L98.3128 26.2418L98.3363 26.4148H98.5109V26.2148ZM94.4484 23.8662L94.3375 23.6998L94.336 23.7008L94.4484 23.8662ZM93.4328 25.0342L93.2551 24.9423L93.2539 24.9447L93.4328 25.0342ZM92.8742 26.6592L93.0697 26.7017L93.0698 26.7011L92.8742 26.6592ZM93.0012 31.001L92.8086 31.0551L92.8088 31.0556L93.0012 31.001ZM93.9262 33.034C94.4725 33.5804 95.1459 33.8543 95.9338 33.8543V33.4543C95.249 33.4543 94.6783 33.2204 94.209 32.7512L93.9262 33.034ZM95.9338 33.8543C96.7195 33.8543 97.3613 33.5898 97.8359 33.05L97.5355 32.7859C97.1469 33.2279 96.6207 33.4543 95.9338 33.4543V33.8543ZM97.8371 33.0488C98.3012 32.5118 98.5871 31.7859 98.7091 30.8883L98.3128 30.8344C98.1978 31.6802 97.9336 32.3255 97.5344 32.7872L97.8371 33.0488ZM98.5109 31.0613H100.225V30.6613H98.5109V31.0613ZM100.026 30.8379C99.8693 32.1676 99.4177 33.1976 98.6854 33.9461L98.9713 34.2258C99.7793 33.4 100.259 32.2803 100.423 30.8848L100.026 30.8379ZM98.6854 33.9461C97.9642 34.6833 97.0523 35.0539 95.9338 35.0539V35.4539C97.1512 35.4539 98.169 35.0459 98.9713 34.2258L98.6854 33.9461ZM95.9338 35.0539C94.9267 35.0539 94.0665 34.7587 93.343 34.1718L93.091 34.4825C93.8909 35.1313 94.8419 35.4539 95.9338 35.4539V35.0539ZM93.3449 34.1734C92.6207 33.5713 92.0817 32.7932 91.7289 31.8334L91.3535 31.9713C91.7286 32.992 92.3067 33.8304 93.0891 34.4809L93.3449 34.1734ZM91.7291 31.8339C91.3744 30.8604 91.1953 29.7668 91.1953 28.5508H90.7953C90.7953 29.8061 90.9802 30.9469 91.3533 31.9708L91.7291 31.8339ZM91.1953 28.5508V28.5254H90.7953V28.5508H91.1953ZM91.1953 28.5254C91.1953 27.3093 91.3744 26.2202 91.7289 25.2555L91.3535 25.1175C90.9802 26.1333 90.7953 27.2701 90.7953 28.5254H91.1953ZM91.7291 25.255C92.0819 24.2868 92.6208 23.5094 93.3438 22.9164L93.0902 22.6071C92.3067 23.2497 91.7283 24.0888 91.3533 25.118L91.7291 25.255ZM93.344 22.9162C94.0675 22.3213 94.9274 22.0223 95.9338 22.0223V21.6223C94.8412 21.6223 93.8899 21.9495 93.09 22.6072L93.344 22.9162ZM95.9338 22.0223C97.0516 22.0223 97.9633 22.3966 98.6846 23.142L98.972 22.8638C98.1699 22.035 97.1519 21.6223 95.9338 21.6223V22.0223ZM98.6861 23.1436C99.4177 23.8832 99.8693 24.9085 100.026 26.2383L100.423 26.1914C100.259 24.7959 99.7793 23.6799 98.9705 22.8623L98.6861 23.1436ZM100.225 26.0148H98.5109V26.4148H100.225V26.0148ZM98.7091 26.1879C98.5871 25.2903 98.3011 24.5679 97.8359 24.0388L97.5355 24.303C97.9336 24.7557 98.1978 25.3959 98.3128 26.2418L98.7091 26.1879ZM97.8359 24.0388C97.3613 23.499 96.7195 23.2346 95.9338 23.2346V23.6346C96.6207 23.6346 97.1469 23.861 97.5355 24.303L97.8359 24.0388ZM95.9338 23.2346C95.3389 23.2346 94.8045 23.3884 94.3375 23.6998L94.5594 24.0326C94.9556 23.7685 95.4115 23.6346 95.9338 23.6346V23.2346ZM94.336 23.7008C93.8831 24.0088 93.5231 24.4243 93.2552 24.9423L93.6105 25.1261C93.8503 24.6623 94.1674 24.2992 94.5609 24.0316L94.336 23.7008ZM93.2539 24.9447C93.0002 25.4522 92.8088 26.01 92.6787 26.6173L93.0698 26.7011C93.1936 26.1234 93.3745 25.598 93.6117 25.1236L93.2539 24.9447ZM92.6788 26.6167C92.5485 27.216 92.4838 27.8524 92.4838 28.5254H92.8838C92.8838 27.878 92.946 27.2703 93.0697 26.7017L92.6788 26.6167ZM92.4838 28.5254C92.4838 29.4382 92.5914 30.2818 92.8086 31.0551L93.1937 30.9469C92.9877 30.2136 92.8838 29.4069 92.8838 28.5254H92.4838ZM92.8088 31.0556C93.0287 31.8296 93.3998 32.4898 93.9238 33.0316L94.2113 32.7535C93.7367 32.2628 93.3969 31.6619 93.1936 30.9463L92.8088 31.0556ZM112.743 22.2666L112.883 22.1236L112.743 22.2666ZM113.518 23.625L113.324 23.6742L113.325 23.6771L113.518 23.625ZM113.734 35V35.2H113.934V35H113.734ZM112.096 35H111.896V35.2H112.096V35ZM112.007 24.2725L111.811 24.3102L111.811 24.3117L112.007 24.2725ZM111.829 23.7646L111.658 23.8676L111.661 23.8728L111.829 23.7646ZM109.684 24.1963L109.504 24.1093L109.502 24.1121L109.684 24.1963ZM109.417 25.123L109.22 25.088L109.22 25.0923L109.417 25.123ZM109.303 26.1514L109.503 26.1628L109.503 26.1625L109.303 26.1514ZM109.278 35V35.2H109.478V35H109.278ZM107.614 35H107.414V35.2H107.614V35ZM107.386 23.9297L107.197 23.9965L107.199 23.9999L107.386 23.9297ZM105.532 23.7012L105.671 23.845L105.674 23.8426L105.532 23.7012ZM104.961 24.7041L104.77 24.6466L104.769 24.6492L104.961 24.7041ZM104.631 35V35.2H104.831V35H104.631ZM102.993 35L102.793 34.9992L102.793 35.2H102.993V35ZM103.044 22V21.8H102.845L102.844 21.9992L103.044 22ZM104.441 22L104.64 21.9869L104.628 21.8H104.441V22ZM104.555 23.7393L104.355 23.7524L104.744 23.8032L104.555 23.7393ZM105.494 22.2158L105.366 22.0622L105.365 22.0635L105.494 22.2158ZM108.211 22.292L108.059 22.4213L108.06 22.423L108.211 22.292ZM108.846 23.8154L108.648 23.8445L108.759 24.598L109.033 23.8874L108.846 23.8154ZM111.283 21.908C111.83 21.908 112.264 22.078 112.604 22.4096L112.883 22.1236C112.461 21.7104 111.922 21.508 111.283 21.508V21.908ZM112.604 22.4096C112.957 22.7554 113.197 23.1754 113.324 23.6742L113.712 23.5758C113.568 23.0082 113.291 22.5226 112.883 22.1236L112.604 22.4096ZM113.325 23.6771C113.463 24.1898 113.534 24.7811 113.534 25.4531H113.934C113.934 24.754 113.86 24.1266 113.711 23.5729L113.325 23.6771ZM113.534 25.4531V35H113.934V25.4531H113.534ZM113.734 34.8H112.096V35.2H113.734V34.8ZM112.296 35V25.542H111.896V35H112.296ZM112.296 25.542C112.296 25.2611 112.292 25.0291 112.283 24.8469L111.883 24.866C111.892 25.0393 111.896 25.2643 111.896 25.542H112.296ZM112.283 24.8469C112.274 24.6574 112.247 24.4526 112.203 24.2332L111.811 24.3117C111.852 24.5155 111.876 24.7 111.883 24.866L112.283 24.8469ZM112.203 24.2347C112.159 24.0027 112.093 23.8053 111.998 23.6565L111.661 23.8728C111.718 23.9609 111.771 24.1022 111.811 24.3102L112.203 24.2347ZM112.001 23.6617C111.905 23.5026 111.77 23.3743 111.601 23.2749L111.398 23.6197C111.517 23.6895 111.601 23.7727 111.658 23.8675L112.001 23.6617ZM111.601 23.2749C111.42 23.1686 111.21 23.1203 110.979 23.1203V23.5203C111.154 23.5203 111.291 23.5566 111.398 23.6197L111.601 23.2749ZM110.979 23.1203C110.635 23.1203 110.328 23.2169 110.07 23.4157L110.314 23.7327C110.495 23.593 110.714 23.5203 110.979 23.5203V23.1203ZM110.07 23.4157C109.825 23.6036 109.636 23.8353 109.504 24.1093L109.864 24.2832C109.969 24.0664 110.118 23.8834 110.314 23.7327L110.07 23.4157ZM109.502 24.1121C109.383 24.3703 109.29 24.6975 109.22 25.088L109.614 25.1581C109.68 24.7869 109.765 24.4963 109.865 24.2805L109.502 24.1121ZM109.22 25.0923C109.16 25.4781 109.121 25.8276 109.103 26.1403L109.503 26.1625C109.519 25.8658 109.556 25.5297 109.615 25.1538L109.22 25.0923ZM109.103 26.14C109.086 26.4411 109.078 26.7963 109.078 27.2051H109.478C109.478 26.8014 109.486 26.4541 109.503 26.1628L109.103 26.14ZM109.078 27.2051V35H109.478V27.2051H109.078ZM109.278 34.8H107.614V35.2H109.278V34.8ZM107.814 35V25.9482H107.414V35H107.814ZM107.814 25.9482C107.814 25.0062 107.739 24.302 107.573 23.8595L107.199 23.9999C107.337 24.3699 107.414 25.0114 107.414 25.9482H107.814ZM107.575 23.8629C107.49 23.625 107.351 23.434 107.152 23.3049C106.955 23.1769 106.715 23.1203 106.447 23.1203V23.5203C106.66 23.5203 106.818 23.5653 106.934 23.6404C107.048 23.7144 107.138 23.8282 107.197 23.9965L107.575 23.8629ZM106.447 23.1203C106.037 23.1203 105.682 23.2688 105.391 23.5597L105.674 23.8426C105.891 23.6258 106.145 23.5203 106.447 23.5203V23.1203ZM105.393 23.5574C105.109 23.8319 104.904 24.1988 104.77 24.6466L105.153 24.7616C105.272 24.3631 105.448 24.0613 105.671 23.845L105.393 23.5574ZM104.769 24.6492C104.648 25.0732 104.561 25.4938 104.509 25.9107L104.906 25.9604C104.955 25.5648 105.038 25.1644 105.153 24.759L104.769 24.6492ZM104.509 25.9107C104.457 26.3258 104.431 26.7573 104.431 27.2051H104.831C104.831 26.7727 104.856 26.3578 104.906 25.9604L104.509 25.9107ZM104.431 27.2051V35H104.831V27.2051H104.431ZM104.631 34.8H102.993V35.2H104.631V34.8ZM103.193 35.0008L103.244 22.0008L102.844 21.9992L102.793 34.9992L103.193 35.0008ZM103.044 22.2H104.441V21.8H103.044V22.2ZM104.241 22.0131L104.355 23.7524L104.754 23.7261L104.64 21.9869L104.241 22.0131ZM104.744 23.8032C104.965 23.1483 105.262 22.6761 105.624 22.3681L105.365 22.0635C104.931 22.4326 104.601 22.976 104.365 23.6753L104.744 23.8032ZM105.622 22.3695C105.996 22.0584 106.4 21.908 106.84 21.908V21.508C106.299 21.508 105.806 21.6962 105.366 22.0622L105.622 22.3695ZM106.84 21.908C107.375 21.908 107.772 22.0836 108.059 22.4213L108.364 22.1627C107.99 21.7218 107.473 21.508 106.84 21.508V21.908ZM108.06 22.423C108.359 22.7681 108.559 23.2372 108.648 23.8445L109.044 23.7864C108.947 23.1241 108.723 22.5776 108.362 22.161L108.06 22.423ZM109.033 23.8874C109.296 23.2039 109.619 22.709 109.992 22.3862C110.362 22.0666 110.789 21.908 111.283 21.908V21.508C110.694 21.508 110.174 21.7006 109.731 22.0836C109.292 22.4632 108.937 23.022 108.659 23.7435L109.033 23.8874Z" fill="#E9E9E9" mask="url(#path-2-outside-1_416_1145)"/>
    </svg>
    