<svg width="87" height="28" viewBox="0 0 87 28" fill="none" xmlns="http://www.w3.org/2000/svg">
<path d="M57.3409 2.52666V25.2666H41.5106L14.5816 28L0.52771 25.2666L3.43323e-05 2.52666H21.1616H25.5987L47.6669 0L57.3409 2.52666Z" fill="#0892F7"/>
<mask id="path-2-outside-1_770_56" maskUnits="userSpaceOnUse" x="7.90906" y="8" width="37" height="14" fill="black">
<rect fill="white" x="7.90906" y="8" width="37" height="14"/>
<path d="M16.3891 17.448C16.3891 18.0347 16.3037 18.568 16.1331 19.048C15.9624 19.5173 15.7117 19.9227 15.3811 20.264C15.0611 20.5947 14.6664 20.8507 14.1971 21.032C13.7384 21.224 13.2157 21.32 12.6291 21.32C11.4557 21.32 10.5384 20.9467 9.87706 20.2C9.22639 19.4427 8.87439 18.36 8.82106 16.952H10.1971C10.1971 17.8587 10.4211 18.568 10.8691 19.08C11.3277 19.5813 11.9357 19.832 12.6931 19.832C13.3757 19.832 13.9304 19.6347 14.3571 19.24C14.7837 18.8453 14.9971 18.3067 14.9971 17.624C14.9971 17.2293 14.9331 16.92 14.8051 16.696C14.6771 16.4613 14.4851 16.2747 14.2291 16.136C13.9837 15.9867 13.6797 15.8587 13.3171 15.752C12.9544 15.6347 12.5384 15.5013 12.0691 15.352C11.6104 15.2027 11.1997 15.048 10.8371 14.888C10.4744 14.7173 10.1651 14.5147 9.90906 14.28C9.66372 14.0347 9.47172 13.7413 9.33306 13.4C9.20506 13.048 9.14106 12.6053 9.14106 12.072C9.14106 11.528 9.22106 11.0373 9.38106 10.6C9.54106 10.152 9.77039 9.768 10.0691 9.448C10.3677 9.128 10.7197 8.88267 11.1251 8.712C11.5411 8.53067 11.9997 8.44 12.5011 8.44C13.6424 8.44 14.5277 8.78133 15.1571 9.464C15.7864 10.1467 16.1011 11.1173 16.1011 12.376V12.408H14.7251C14.6717 11.5867 14.4531 10.9627 14.0691 10.536C13.6957 10.1093 13.1891 9.896 12.5491 9.896C11.9411 9.896 11.4557 10.072 11.0931 10.424C10.7411 10.776 10.5651 11.2453 10.5651 11.832C10.5651 12.1947 10.6077 12.488 10.6931 12.712C10.7891 12.936 10.9384 13.1227 11.1411 13.272C11.3437 13.4213 11.6051 13.5493 11.9251 13.656C12.2557 13.752 12.6504 13.864 13.1091 13.992C13.6317 14.1307 14.0957 14.28 14.5011 14.44C14.9064 14.6 15.2477 14.8027 15.5251 15.048C15.8024 15.2933 16.0157 15.608 16.1651 15.992C16.3144 16.376 16.3891 16.8613 16.3891 17.448ZM25.9077 14.872C25.9077 15.896 25.8117 16.808 25.6197 17.608C25.4383 18.408 25.177 19.0853 24.8357 19.64C24.4943 20.184 24.0837 20.6 23.6037 20.888C23.1237 21.176 22.585 21.32 21.9877 21.32C21.3903 21.32 20.8517 21.176 20.3717 20.888C19.8917 20.6 19.481 20.184 19.1397 19.64C18.809 19.0853 18.5477 18.408 18.3557 17.608C18.1743 16.808 18.0837 15.896 18.0837 14.872C18.0837 13.8373 18.1743 12.92 18.3557 12.12C18.537 11.32 18.7983 10.648 19.1397 10.104C19.481 9.54933 19.8917 9.13333 20.3717 8.856C20.8517 8.568 21.3903 8.424 21.9877 8.424C22.585 8.424 23.1237 8.568 23.6037 8.856C24.0837 9.144 24.4943 9.56533 24.8357 10.12C25.177 10.664 25.4383 11.336 25.6197 12.136C25.8117 12.936 25.9077 13.848 25.9077 14.872ZM24.4357 14.872C24.4357 13.2613 24.2117 12.0293 23.7637 11.176C23.3157 10.3227 22.7237 9.896 21.9877 9.896C21.2623 9.896 20.6757 10.3227 20.2277 11.176C19.7797 12.0187 19.5557 13.2507 19.5557 14.872C19.5557 16.4933 19.7797 17.7253 20.2277 18.568C20.6757 19.4107 21.2623 19.832 21.9877 19.832C22.7237 19.832 23.3157 19.4107 23.7637 18.568C24.2117 17.7147 24.4357 16.4827 24.4357 14.872ZM35.2983 14.872C35.2983 15.896 35.2023 16.808 35.0103 17.608C34.829 18.408 34.5676 19.0853 34.2263 19.64C33.885 20.184 33.4743 20.6 32.9943 20.888C32.5143 21.176 31.9756 21.32 31.3783 21.32C30.781 21.32 30.2423 21.176 29.7623 20.888C29.2823 20.6 28.8716 20.184 28.5303 19.64C28.1996 19.0853 27.9383 18.408 27.7463 17.608C27.565 16.808 27.4743 15.896 27.4743 14.872C27.4743 13.8373 27.565 12.92 27.7463 12.12C27.9276 11.32 28.189 10.648 28.5303 10.104C28.8716 9.54933 29.2823 9.13333 29.7623 8.856C30.2423 8.568 30.781 8.424 31.3783 8.424C31.9756 8.424 32.5143 8.568 32.9943 8.856C33.4743 9.144 33.885 9.56533 34.2263 10.12C34.5676 10.664 34.829 11.336 35.0103 12.136C35.2023 12.936 35.2983 13.848 35.2983 14.872ZM33.8263 14.872C33.8263 13.2613 33.6023 12.0293 33.1543 11.176C32.7063 10.3227 32.1143 9.896 31.3783 9.896C30.653 9.896 30.0663 10.3227 29.6183 11.176C29.1703 12.0187 28.9463 13.2507 28.9463 14.872C28.9463 16.4933 29.1703 17.7253 29.6183 18.568C30.0663 19.4107 30.653 19.832 31.3783 19.832C32.1143 19.832 32.7063 19.4107 33.1543 18.568C33.6023 17.7147 33.8263 16.4827 33.8263 14.872ZM44.2409 20.984H42.4489L38.5769 11.128V20.984H37.3129V8.76H39.1209L42.9609 18.776V8.76H44.2409V20.984Z"/>
</mask>
<path d="M16.3891 17.448C16.3891 18.0347 16.3037 18.568 16.1331 19.048C15.9624 19.5173 15.7117 19.9227 15.3811 20.264C15.0611 20.5947 14.6664 20.8507 14.1971 21.032C13.7384 21.224 13.2157 21.32 12.6291 21.32C11.4557 21.32 10.5384 20.9467 9.87706 20.2C9.22639 19.4427 8.87439 18.36 8.82106 16.952H10.1971C10.1971 17.8587 10.4211 18.568 10.8691 19.08C11.3277 19.5813 11.9357 19.832 12.6931 19.832C13.3757 19.832 13.9304 19.6347 14.3571 19.24C14.7837 18.8453 14.9971 18.3067 14.9971 17.624C14.9971 17.2293 14.9331 16.92 14.8051 16.696C14.6771 16.4613 14.4851 16.2747 14.2291 16.136C13.9837 15.9867 13.6797 15.8587 13.3171 15.752C12.9544 15.6347 12.5384 15.5013 12.0691 15.352C11.6104 15.2027 11.1997 15.048 10.8371 14.888C10.4744 14.7173 10.1651 14.5147 9.90906 14.28C9.66372 14.0347 9.47172 13.7413 9.33306 13.4C9.20506 13.048 9.14106 12.6053 9.14106 12.072C9.14106 11.528 9.22106 11.0373 9.38106 10.6C9.54106 10.152 9.77039 9.768 10.0691 9.448C10.3677 9.128 10.7197 8.88267 11.1251 8.712C11.5411 8.53067 11.9997 8.44 12.5011 8.44C13.6424 8.44 14.5277 8.78133 15.1571 9.464C15.7864 10.1467 16.1011 11.1173 16.1011 12.376V12.408H14.7251C14.6717 11.5867 14.4531 10.9627 14.0691 10.536C13.6957 10.1093 13.1891 9.896 12.5491 9.896C11.9411 9.896 11.4557 10.072 11.0931 10.424C10.7411 10.776 10.5651 11.2453 10.5651 11.832C10.5651 12.1947 10.6077 12.488 10.6931 12.712C10.7891 12.936 10.9384 13.1227 11.1411 13.272C11.3437 13.4213 11.6051 13.5493 11.9251 13.656C12.2557 13.752 12.6504 13.864 13.1091 13.992C13.6317 14.1307 14.0957 14.28 14.5011 14.44C14.9064 14.6 15.2477 14.8027 15.5251 15.048C15.8024 15.2933 16.0157 15.608 16.1651 15.992C16.3144 16.376 16.3891 16.8613 16.3891 17.448ZM25.9077 14.872C25.9077 15.896 25.8117 16.808 25.6197 17.608C25.4383 18.408 25.177 19.0853 24.8357 19.64C24.4943 20.184 24.0837 20.6 23.6037 20.888C23.1237 21.176 22.585 21.32 21.9877 21.32C21.3903 21.32 20.8517 21.176 20.3717 20.888C19.8917 20.6 19.481 20.184 19.1397 19.64C18.809 19.0853 18.5477 18.408 18.3557 17.608C18.1743 16.808 18.0837 15.896 18.0837 14.872C18.0837 13.8373 18.1743 12.92 18.3557 12.12C18.537 11.32 18.7983 10.648 19.1397 10.104C19.481 9.54933 19.8917 9.13333 20.3717 8.856C20.8517 8.568 21.3903 8.424 21.9877 8.424C22.585 8.424 23.1237 8.568 23.6037 8.856C24.0837 9.144 24.4943 9.56533 24.8357 10.12C25.177 10.664 25.4383 11.336 25.6197 12.136C25.8117 12.936 25.9077 13.848 25.9077 14.872ZM24.4357 14.872C24.4357 13.2613 24.2117 12.0293 23.7637 11.176C23.3157 10.3227 22.7237 9.896 21.9877 9.896C21.2623 9.896 20.6757 10.3227 20.2277 11.176C19.7797 12.0187 19.5557 13.2507 19.5557 14.872C19.5557 16.4933 19.7797 17.7253 20.2277 18.568C20.6757 19.4107 21.2623 19.832 21.9877 19.832C22.7237 19.832 23.3157 19.4107 23.7637 18.568C24.2117 17.7147 24.4357 16.4827 24.4357 14.872ZM35.2983 14.872C35.2983 15.896 35.2023 16.808 35.0103 17.608C34.829 18.408 34.5676 19.0853 34.2263 19.64C33.885 20.184 33.4743 20.6 32.9943 20.888C32.5143 21.176 31.9756 21.32 31.3783 21.32C30.781 21.32 30.2423 21.176 29.7623 20.888C29.2823 20.6 28.8716 20.184 28.5303 19.64C28.1996 19.0853 27.9383 18.408 27.7463 17.608C27.565 16.808 27.4743 15.896 27.4743 14.872C27.4743 13.8373 27.565 12.92 27.7463 12.12C27.9276 11.32 28.189 10.648 28.5303 10.104C28.8716 9.54933 29.2823 9.13333 29.7623 8.856C30.2423 8.568 30.781 8.424 31.3783 8.424C31.9756 8.424 32.5143 8.568 32.9943 8.856C33.4743 9.144 33.885 9.56533 34.2263 10.12C34.5676 10.664 34.829 11.336 35.0103 12.136C35.2023 12.936 35.2983 13.848 35.2983 14.872ZM33.8263 14.872C33.8263 13.2613 33.6023 12.0293 33.1543 11.176C32.7063 10.3227 32.1143 9.896 31.3783 9.896C30.653 9.896 30.0663 10.3227 29.6183 11.176C29.1703 12.0187 28.9463 13.2507 28.9463 14.872C28.9463 16.4933 29.1703 17.7253 29.6183 18.568C30.0663 19.4107 30.653 19.832 31.3783 19.832C32.1143 19.832 32.7063 19.4107 33.1543 18.568C33.6023 17.7147 33.8263 16.4827 33.8263 14.872ZM44.2409 20.984H42.4489L38.5769 11.128V20.984H37.3129V8.76H39.1209L42.9609 18.776V8.76H44.2409V20.984Z" fill="#080808"/>
<path d="M16.1331 19.048L16.509 19.1847L16.5099 19.182L16.1331 19.048ZM15.3811 20.264L15.0938 19.9857L15.0936 19.9858L15.3811 20.264ZM14.1971 21.032L14.0528 20.6587L14.0426 20.663L14.1971 21.032ZM9.87706 20.2L9.57362 20.4607L9.57762 20.4652L9.87706 20.2ZM8.82106 16.952V16.552H8.40562L8.42134 16.9671L8.82106 16.952ZM10.1971 16.952H10.5971V16.552H10.1971V16.952ZM10.8691 19.08L10.568 19.3435L10.5739 19.35L10.8691 19.08ZM14.3571 19.24L14.6287 19.5336L14.3571 19.24ZM14.8051 16.696L14.4538 16.8876L14.4578 16.8945L14.8051 16.696ZM14.2291 16.136L14.0211 16.4777L14.0297 16.4829L14.0385 16.4877L14.2291 16.136ZM13.3171 15.752L13.1939 16.1327L13.2042 16.1357L13.3171 15.752ZM12.0691 15.352L11.9452 15.7324L11.9478 15.7332L12.0691 15.352ZM10.8371 14.888L10.6667 15.25L10.6756 15.254L10.8371 14.888ZM9.90906 14.28L9.62621 14.5628L9.63236 14.569L9.63877 14.5749L9.90906 14.28ZM9.33306 13.4L8.95714 13.5367L8.95968 13.5437L8.96247 13.5506L9.33306 13.4ZM9.38106 10.6L9.75672 10.7374L9.75775 10.7345L9.38106 10.6ZM10.0691 9.448L9.77664 9.17507L9.77664 9.17507L10.0691 9.448ZM11.1251 8.712L11.2803 9.08068L11.2849 9.07868L11.1251 8.712ZM15.1571 9.464L14.863 9.73512V9.73512L15.1571 9.464ZM16.1011 12.408V12.808H16.5011V12.408H16.1011ZM14.7251 12.408L14.3259 12.4339L14.3502 12.808H14.7251V12.408ZM14.0691 10.536L13.768 10.7994L13.7717 10.8036L14.0691 10.536ZM11.0931 10.424L10.8144 10.1369L10.8102 10.1412L11.0931 10.424ZM10.6931 12.712L10.3193 12.8544L10.3222 12.862L10.3254 12.8696L10.6931 12.712ZM11.1411 13.272L10.9038 13.594H10.9038L11.1411 13.272ZM11.9251 13.656L11.7986 14.0355L11.806 14.038L11.8135 14.0401L11.9251 13.656ZM13.1091 13.992L13.0015 14.3773L13.0065 14.3786L13.1091 13.992ZM14.5011 14.44L14.6479 14.0679H14.6479L14.5011 14.44ZM15.5251 15.048L15.26 15.3476L15.5251 15.048ZM16.1651 15.992L16.5379 15.847L16.1651 15.992ZM15.9891 17.448C15.9891 17.9958 15.9094 18.483 15.7562 18.914L16.5099 19.182C16.698 18.653 16.7891 18.0735 16.7891 17.448H15.9891ZM15.7571 18.9113C15.6047 19.3305 15.3833 19.6868 15.0938 19.9857L15.6684 20.5423C16.0402 20.1585 16.3201 19.7042 16.509 19.1847L15.7571 18.9113ZM15.0936 19.9858C14.8176 20.2711 14.4733 20.4965 14.0529 20.6589L14.3412 21.4051C14.8595 21.2049 15.3045 20.9183 15.6685 20.5422L15.0936 19.9858ZM14.0426 20.663C13.6408 20.8312 13.1721 20.92 12.6291 20.92V21.72C13.2594 21.72 13.836 21.6168 14.3515 21.401L14.0426 20.663ZM12.6291 20.92C11.548 20.92 10.7483 20.5804 10.1765 19.9348L9.57762 20.4652C10.3284 21.3129 11.3634 21.72 12.6291 21.72V20.92ZM10.1805 19.9393C9.60875 19.2739 9.27206 18.2909 9.22077 16.9369L8.42134 16.9671C8.47672 18.4291 8.84403 19.6114 9.57366 20.4607L10.1805 19.9393ZM8.82106 17.352H10.1971V16.552H8.82106V17.352ZM9.79706 16.952C9.79706 17.9229 10.0376 18.7372 10.568 19.3434L11.1701 18.8166C10.8045 18.3988 10.5971 17.7944 10.5971 16.952H9.79706ZM10.5739 19.35C11.1175 19.9441 11.8377 20.232 12.6931 20.232V19.432C12.0337 19.432 11.5379 19.2185 11.1642 18.81L10.5739 19.35ZM12.6931 20.232C13.4577 20.232 14.1154 20.0084 14.6287 19.5336L14.0854 18.9464C13.7454 19.2609 13.2937 19.432 12.6931 19.432V20.232ZM14.6287 19.5336C15.1516 19.05 15.3971 18.3969 15.3971 17.624H14.5971C14.5971 18.2164 14.4159 18.6407 14.0854 18.9464L14.6287 19.5336ZM15.3971 17.624C15.3971 17.1936 15.3285 16.8058 15.1524 16.4975L14.4578 16.8945C14.5376 17.0342 14.5971 17.2651 14.5971 17.624H15.3971ZM15.1562 16.5045C14.988 16.196 14.7372 15.9563 14.4196 15.7843L14.0385 16.4877C14.233 16.593 14.3662 16.7267 14.4539 16.8875L15.1562 16.5045ZM14.437 15.7943C14.1543 15.6222 13.8161 15.4818 13.4299 15.3683L13.2042 16.1357C13.5433 16.2355 13.8131 16.3511 14.0211 16.4777L14.437 15.7943ZM13.4402 15.3714C13.0768 15.2538 12.6601 15.1203 12.1903 14.9708L11.9478 15.7332C12.4167 15.8824 12.832 16.0155 13.1939 16.1326L13.4402 15.3714ZM12.1929 14.9717C11.7444 14.8256 11.3466 14.6756 10.9985 14.522L10.6756 15.254C11.0529 15.4204 11.4764 15.5797 11.9452 15.7323L12.1929 14.9717ZM11.0074 14.5261C10.6757 14.37 10.4014 14.1887 10.1793 13.9851L9.63877 14.5749C9.92869 14.8406 10.2731 15.0647 10.6667 15.2499L11.0074 14.5261ZM10.1919 13.9972C9.98666 13.7919 9.82346 13.5444 9.70364 13.2494L8.96247 13.5506C9.11999 13.9383 9.34079 14.2774 9.62621 14.5628L10.1919 13.9972ZM9.70898 13.2633C9.60211 12.9694 9.54106 12.5768 9.54106 12.072H8.74106C8.74106 12.6338 8.80801 13.1266 8.95714 13.5367L9.70898 13.2633ZM9.54106 12.072C9.54106 11.5672 9.61527 11.124 9.75671 10.7374L9.00541 10.4626C8.82684 10.9506 8.74106 11.4888 8.74106 12.072H9.54106ZM9.75775 10.7345C9.90101 10.3334 10.1032 9.99767 10.3615 9.72093L9.77664 9.17507C9.4376 9.53832 9.18111 9.97057 9.00436 10.4655L9.75775 10.7345ZM10.3615 9.72093C10.6215 9.44235 10.9267 9.22955 11.2803 9.08065L10.9698 8.34335C10.5128 8.53579 10.114 8.81365 9.77664 9.17507L10.3615 9.72093ZM11.2849 9.07868C11.6454 8.92152 12.0489 8.84 12.5011 8.84V8.04C11.9505 8.04 11.4367 8.13981 10.9652 8.34532L11.2849 9.07868ZM12.5011 8.84C13.5582 8.84 14.3262 9.15289 14.863 9.73512L15.4512 9.19288C14.7292 8.40978 13.7266 8.04 12.5011 8.04V8.84ZM14.863 9.73512C15.4031 10.321 15.7011 11.1816 15.7011 12.376H16.5011C16.5011 11.0531 16.1697 9.97232 15.4512 9.19288L14.863 9.73512ZM15.7011 12.376V12.408H16.5011V12.376H15.7011ZM16.1011 12.008H14.7251V12.808H16.1011V12.008ZM15.1242 12.3821C15.0675 11.5089 14.8318 10.7855 14.3664 10.2684L13.7717 10.8036C14.0744 11.1398 14.2759 11.6644 14.3259 12.4339L15.1242 12.3821ZM14.3701 10.2726C13.9105 9.74739 13.2878 9.496 12.5491 9.496V10.296C13.0903 10.296 13.4809 10.4713 13.768 10.7994L14.3701 10.2726ZM12.5491 9.496C11.8595 9.496 11.2665 9.69824 10.8145 10.137L11.3716 10.711C11.645 10.4458 12.0226 10.296 12.5491 10.296V9.496ZM10.8102 10.1412C10.3699 10.5815 10.1651 11.1596 10.1651 11.832H10.9651C10.9651 11.331 11.1122 10.9705 11.3759 10.7068L10.8102 10.1412ZM10.1651 11.832C10.1651 12.2209 10.2101 12.5678 10.3193 12.8544L11.0669 12.5696C11.0054 12.4082 10.9651 12.1684 10.9651 11.832H10.1651ZM10.3254 12.8696C10.4504 13.1612 10.6458 13.4039 10.9038 13.594L11.3783 12.95C11.231 12.8414 11.1277 12.7108 11.0607 12.5544L10.3254 12.8696ZM10.9038 13.594C11.1494 13.775 11.4515 13.9198 11.7986 14.0355L12.0515 13.2765C11.7587 13.1789 11.5381 13.0677 11.3783 12.95L10.9038 13.594ZM11.8135 14.0401C12.1459 14.1366 12.542 14.249 13.0015 14.3773L13.2166 13.6067C12.7588 13.479 12.3655 13.3674 12.0366 13.2719L11.8135 14.0401ZM13.0065 14.3786C13.5175 14.5142 13.9663 14.6589 14.3542 14.8121L14.6479 14.0679C14.2252 13.9011 13.7459 13.7471 13.2116 13.6054L13.0065 14.3786ZM14.3542 14.8121C14.7237 14.9579 15.0231 15.138 15.26 15.3476L15.7901 14.7484C15.4723 14.4673 15.0891 14.2421 14.6479 14.0679L14.3542 14.8121ZM15.26 15.3476C15.4845 15.5461 15.6634 15.8056 15.7923 16.137L16.5379 15.847C16.3681 15.4104 16.1203 15.0405 15.7901 14.7484L15.26 15.3476ZM15.7923 16.137C15.9177 16.4596 15.9891 16.8916 15.9891 17.448H16.7891C16.7891 16.8311 16.7111 16.2924 16.5379 15.847L15.7923 16.137ZM25.6197 17.608L25.2307 17.5146L25.2296 17.5196L25.6197 17.608ZM24.8357 19.64L25.1745 19.8526L25.1763 19.8496L24.8357 19.64ZM23.6037 20.888L23.8095 21.231L23.6037 20.888ZM20.3717 20.888L20.1659 21.231L20.3717 20.888ZM19.1397 19.64L18.796 19.8449L18.8009 19.8526L19.1397 19.64ZM18.3557 17.608L17.9655 17.6964L17.9667 17.7013L18.3557 17.608ZM18.3557 12.12L18.7458 12.2084L18.3557 12.12ZM19.1397 10.104L19.4785 10.3166L19.4803 10.3136L19.1397 10.104ZM20.3717 8.856L20.5718 9.20239L20.5775 9.199L20.3717 8.856ZM23.6037 8.856L23.8095 8.513L23.8095 8.513L23.6037 8.856ZM24.8357 10.12L24.495 10.3296L24.4969 10.3326L24.8357 10.12ZM25.6197 12.136L25.2295 12.2244L25.2307 12.2293L25.6197 12.136ZM20.2277 11.176L20.5809 11.3638L20.5818 11.3619L20.2277 11.176ZM20.2277 18.568L20.5809 18.3802L20.2277 18.568ZM23.7637 18.568L24.1169 18.7558L24.1178 18.7539L23.7637 18.568ZM25.5077 14.872C25.5077 15.8719 25.4139 16.7516 25.2307 17.5147L26.0086 17.7013C26.2095 16.8644 26.3077 15.9201 26.3077 14.872H25.5077ZM25.2296 17.5196C25.0555 18.2873 24.8082 18.9214 24.495 19.4304L25.1763 19.8496C25.5458 19.2493 25.8211 18.5287 26.0098 17.6964L25.2296 17.5196ZM24.4969 19.4274C24.184 19.926 23.8164 20.2939 23.3979 20.545L23.8095 21.231C24.3509 20.9061 24.8047 20.442 25.1745 19.8526L24.4969 19.4274ZM23.3979 20.545C22.9842 20.7932 22.5176 20.92 21.9877 20.92V21.72C22.6525 21.72 23.2631 21.5588 23.8095 21.231L23.3979 20.545ZM21.9877 20.92C21.4578 20.92 20.9911 20.7932 20.5775 20.545L20.1659 21.231C20.7122 21.5588 21.3229 21.72 21.9877 21.72V20.92ZM20.5775 20.545C20.1589 20.2939 19.7913 19.926 19.4785 19.4274L18.8009 19.8526C19.1707 20.442 19.6244 20.9061 20.1659 21.231L20.5775 20.545ZM19.4833 19.4352C19.178 18.9232 18.9297 18.2856 18.7446 17.5147L17.9667 17.7013C18.1657 18.5304 18.44 19.2475 18.7961 19.8448L19.4833 19.4352ZM18.7458 17.5196C18.5724 16.7547 18.4837 15.8732 18.4837 14.872H17.6837C17.6837 15.9188 17.7763 16.8613 17.9656 17.6964L18.7458 17.5196ZM18.4837 14.872C18.4837 13.8597 18.5725 12.973 18.7458 12.2084L17.9656 12.0316C17.7762 12.867 17.6837 13.8149 17.6837 14.872H18.4837ZM18.7458 12.2084C18.9198 11.4408 19.1667 10.8135 19.4785 10.3166L18.8009 9.8914C18.43 10.4825 18.1543 11.1992 17.9656 12.0316L18.7458 12.2084ZM19.4803 10.3136C19.793 9.80559 20.1585 9.44111 20.5718 9.20235L20.1716 8.50965C19.6248 8.82556 19.169 9.29307 18.799 9.89436L19.4803 10.3136ZM20.5775 9.199C20.9911 8.95081 21.4578 8.824 21.9877 8.824V8.024C21.3229 8.024 20.7122 8.18518 20.1659 8.513L20.5775 9.199ZM21.9877 8.824C22.5176 8.824 22.9842 8.95081 23.3979 9.199L23.8095 8.513C23.2631 8.18518 22.6525 8.024 21.9877 8.024V8.824ZM23.3979 9.199C23.8145 9.44899 24.1818 9.82065 24.495 10.3296L25.1763 9.91036C24.8069 9.31002 24.3528 8.83901 23.8095 8.513L23.3979 9.199ZM24.4969 10.3326C24.8086 10.8295 25.0556 11.4568 25.2296 12.2244L26.0098 12.0476C25.8211 11.2152 25.5454 10.4985 25.1745 9.9074L24.4969 10.3326ZM25.2307 12.2293C25.4139 12.9924 25.5077 13.8721 25.5077 14.872H26.3077C26.3077 13.8239 26.2095 12.8796 26.0086 12.0427L25.2307 12.2293ZM24.8357 14.872C24.8357 13.2348 24.6098 11.927 24.1178 10.9901L23.4095 11.3619C23.8136 12.1316 24.0357 13.2879 24.0357 14.872H24.8357ZM24.1178 10.9901C23.6257 10.0526 22.9193 9.496 21.9877 9.496V10.296C22.5281 10.296 23.0057 10.5927 23.4095 11.3619L24.1178 10.9901ZM21.9877 9.496C21.0644 9.496 20.3643 10.0553 19.8735 10.9901L20.5818 11.3619C20.9871 10.59 21.4603 10.296 21.9877 10.296V9.496ZM19.8745 10.9882C19.3813 11.9159 19.1557 13.2252 19.1557 14.872H19.9557C19.9557 13.2762 20.1781 12.1214 20.5809 11.3638L19.8745 10.9882ZM19.1557 14.872C19.1557 16.5188 19.3813 17.8281 19.8745 18.7558L20.5809 18.3802C20.1781 17.6226 19.9557 16.4678 19.9557 14.872H19.1557ZM19.8745 18.7558C20.3665 19.6811 21.0671 20.232 21.9877 20.232V19.432C21.4576 19.432 20.9849 19.1402 20.5809 18.3802L19.8745 18.7558ZM21.9877 20.232C22.9166 20.232 23.6235 19.6838 24.1169 18.7558L23.4105 18.3802C23.0079 19.1376 22.5307 19.432 21.9877 19.432V20.232ZM24.1178 18.7539C24.6098 17.817 24.8357 16.5092 24.8357 14.872H24.0357C24.0357 16.4561 23.8136 17.6124 23.4095 18.3821L24.1178 18.7539ZM35.0103 17.608L34.6213 17.5146L34.6202 17.5196L35.0103 17.608ZM34.2263 19.64L34.5651 19.8526L34.567 19.8496L34.2263 19.64ZM32.9943 20.888L33.2001 21.231L32.9943 20.888ZM29.7623 20.888L29.5565 21.231L29.7623 20.888ZM28.5303 19.64L28.1866 19.8449L28.1915 19.8526L28.5303 19.64ZM27.7463 17.608L27.3562 17.6964L27.3574 17.7013L27.7463 17.608ZM27.7463 12.12L28.1364 12.2084L27.7463 12.12ZM28.5303 10.104L28.8691 10.3166L28.871 10.3136L28.5303 10.104ZM29.7623 8.856L29.9624 9.20239L29.9681 9.199L29.7623 8.856ZM32.9943 8.856L33.2001 8.513V8.513L32.9943 8.856ZM34.2263 10.12L33.8856 10.3296L33.8875 10.3326L34.2263 10.12ZM35.0103 12.136L34.6202 12.2244L34.6214 12.2293L35.0103 12.136ZM29.6183 11.176L29.9715 11.3638L29.9725 11.3619L29.6183 11.176ZM29.6183 18.568L29.9715 18.3802L29.6183 18.568ZM33.1543 18.568L33.5075 18.7558L33.5085 18.7539L33.1543 18.568ZM34.8983 14.872C34.8983 15.8719 34.8045 16.7516 34.6214 17.5147L35.3993 17.7013C35.6001 16.8644 35.6983 15.9201 35.6983 14.872H34.8983ZM34.6202 17.5196C34.4462 18.2873 34.1989 18.9214 33.8856 19.4304L34.567 19.8496C34.9364 19.2493 35.2118 18.5287 35.4004 17.6964L34.6202 17.5196ZM33.8875 19.4274C33.5747 19.926 33.2071 20.2939 32.7885 20.545L33.2001 21.231C33.7416 20.9061 34.1953 20.442 34.5651 19.8526L33.8875 19.4274ZM32.7885 20.545C32.3749 20.7932 31.9082 20.92 31.3783 20.92V21.72C32.0431 21.72 32.6537 21.5588 33.2001 21.231L32.7885 20.545ZM31.3783 20.92C30.8484 20.92 30.3817 20.7932 29.9681 20.545L29.5565 21.231C30.1029 21.5588 30.7135 21.72 31.3783 21.72V20.92ZM29.9681 20.545C29.5495 20.2939 29.182 19.926 28.8691 19.4274L28.1915 19.8526C28.5613 20.442 29.0151 20.9061 29.5565 21.231L29.9681 20.545ZM28.8739 19.4352C28.5686 18.9232 28.3203 18.2856 28.1353 17.5147L27.3574 17.7013C27.5563 18.5304 27.8306 19.2475 28.1867 19.8448L28.8739 19.4352ZM28.1364 17.5196C27.963 16.7547 27.8743 15.8732 27.8743 14.872H27.0743C27.0743 15.9188 27.1669 16.8613 27.3562 17.6964L28.1364 17.5196ZM27.8743 14.872C27.8743 13.8597 27.9631 12.973 28.1364 12.2084L27.3562 12.0316C27.1668 12.867 27.0743 13.8149 27.0743 14.872H27.8743ZM28.1364 12.2084C28.3104 11.4408 28.5574 10.8135 28.8691 10.3166L28.1915 9.8914C27.8206 10.4825 27.5449 11.1992 27.3562 12.0316L28.1364 12.2084ZM28.871 10.3136C29.1836 9.80559 29.5492 9.44111 29.9624 9.20235L29.5622 8.50965C29.0154 8.82556 28.5597 9.29307 28.1896 9.89436L28.871 10.3136ZM29.9681 9.199C30.3817 8.95081 30.8484 8.824 31.3783 8.824V8.024C30.7135 8.024 30.1029 8.18518 29.5565 8.513L29.9681 9.199ZM31.3783 8.824C31.9082 8.824 32.3749 8.95081 32.7885 9.199L33.2001 8.513C32.6537 8.18518 32.0431 8.024 31.3783 8.024V8.824ZM32.7885 9.199C33.2052 9.44899 33.5724 9.82065 33.8856 10.3296L34.567 9.91036C34.1975 9.31002 33.7435 8.83901 33.2001 8.513L32.7885 9.199ZM33.8875 10.3326C34.1992 10.8295 34.4462 11.4568 34.6202 12.2244L35.4004 12.0476C35.2117 11.2152 34.936 10.4985 34.5651 9.9074L33.8875 10.3326ZM34.6214 12.2293C34.8045 12.9924 34.8983 13.8721 34.8983 14.872H35.6983C35.6983 13.8239 35.6001 12.8796 35.3993 12.0427L34.6214 12.2293ZM34.2263 14.872C34.2263 13.2348 34.0004 11.927 33.5085 10.9901L32.8001 11.3619C33.2042 12.1316 33.4263 13.2879 33.4263 14.872H34.2263ZM33.5085 10.9901C33.0163 10.0526 32.3099 9.496 31.3783 9.496V10.296C31.9187 10.296 32.3963 10.5927 32.8001 11.3619L33.5085 10.9901ZM31.3783 9.496C30.4551 9.496 29.7549 10.0553 29.2641 10.9901L29.9725 11.3619C30.3777 10.59 30.8509 10.296 31.3783 10.296V9.496ZM29.2651 10.9882C28.7719 11.9159 28.5463 13.2252 28.5463 14.872H29.3463C29.3463 13.2762 29.5687 12.1214 29.9715 11.3638L29.2651 10.9882ZM28.5463 14.872C28.5463 16.5188 28.7719 17.8281 29.2651 18.7558L29.9715 18.3802C29.5687 17.6226 29.3463 16.4678 29.3463 14.872H28.5463ZM29.2651 18.7558C29.7571 19.6811 30.4577 20.232 31.3783 20.232V19.432C30.8482 19.432 30.3755 19.1402 29.9715 18.3802L29.2651 18.7558ZM31.3783 20.232C32.3073 20.232 33.0141 19.6838 33.5075 18.7558L32.8011 18.3802C32.3985 19.1376 31.9213 19.432 31.3783 19.432V20.232ZM33.5085 18.7539C34.0004 17.817 34.2263 16.5092 34.2263 14.872H33.4263C33.4263 16.4561 33.2042 17.6124 32.8001 18.3821L33.5085 18.7539ZM44.2409 20.984V21.384H44.6409V20.984H44.2409ZM42.4489 20.984L42.0766 21.1303L42.1763 21.384H42.4489V20.984ZM38.5769 11.128L38.9492 10.9817L38.1769 11.128H38.5769ZM38.5769 20.984V21.384H38.9769V20.984H38.5769ZM37.3129 20.984H36.9129V21.384H37.3129V20.984ZM37.3129 8.76V8.36H36.9129V8.76H37.3129ZM39.1209 8.76L39.4944 8.61681L39.396 8.36H39.1209V8.76ZM42.9609 18.776L42.5874 18.9192L43.3609 18.776H42.9609ZM42.9609 8.76V8.36H42.5609V8.76H42.9609ZM44.2409 8.76H44.6409V8.36H44.2409V8.76ZM44.2409 20.584H42.4489V21.384H44.2409V20.584ZM42.8212 20.8377L38.9492 10.9817L38.2046 11.2743L42.0766 21.1303L42.8212 20.8377ZM38.1769 11.128V20.984H38.9769V11.128H38.1769ZM38.5769 20.584H37.3129V21.384H38.5769V20.584ZM37.7129 20.984V8.76H36.9129V20.984H37.7129ZM37.3129 9.16H39.1209V8.36H37.3129V9.16ZM38.7474 8.90319L42.5874 18.9192L43.3344 18.6328L39.4944 8.61681L38.7474 8.90319ZM43.3609 18.776V8.76H42.5609V18.776H43.3609ZM42.9609 9.16H44.2409V8.36H42.9609V9.16ZM43.8409 8.76V20.984H44.6409V8.76H43.8409Z" fill="#080808" mask="url(#path-2-outside-1_770_56)"/>
</svg>
