<?xml version="1.0" standalone="no"?>
<!DOCTYPE svg PUBLIC "-//W3C//DTD SVG 20010904//EN"
 "http://www.w3.org/TR/2001/REC-SVG-20010904/DTD/svg10.dtd">
<svg version="1.0" xmlns="http://www.w3.org/2000/svg"
 width="700.000000pt" height="700.000000pt" viewBox="0 0 700.000000 700.000000"
 preserveAspectRatio="xMidYMid meet">
<metadata>
Created by potrace 1.14, written by Peter Selinger 2001-2017
</metadata>
<g transform="translate(0.000000,700.000000) scale(0.100000,-0.100000)"
fill="#000000" stroke="none">
<path d="M0 3500 l0 -3500 3500 0 3500 0 0 3500 0 3500 -3500 0 -3500 0 0
-3500z m5530 3071 c0 -10 -30 -24 -37 -17 -3 3 -2 9 2 15 8 13 35 15 35 2z
m-53 -73 c-3 -7 -5 -2 -5 12 0 14 2 19 5 13 2 -7 2 -19 0 -25z m160 10 c-3 -8
-6 -5 -6 6 -1 11 2 17 5 13 3 -3 4 -12 1 -19z m-6 -71 c-10 -9 -11 -8 -5 6 3
10 9 15 12 12 3 -3 0 -11 -7 -18z m384 -221 c31 -13 41 -30 36 -60 -4 -19 13
-49 50 -92 21 -25 39 -49 39 -54 0 -5 3 -17 7 -27 5 -14 -1 -12 -23 8 -16 15
-44 34 -62 43 -18 9 -30 20 -28 25 3 4 -2 17 -10 29 -12 17 -19 20 -34 12 -24
-13 -76 9 -113 48 l-28 29 38 26 c44 30 79 33 128 13z m-1580 -1602 c-9 -49
-47 -183 -95 -329 -21 -66 -111 -347 -200 -625 -90 -278 -186 -577 -214 -665
l-52 -160 -143 -9 c-78 -4 -144 -6 -147 -3 -3 3 36 135 86 294 219 687 265
830 331 1038 38 121 75 231 82 244 9 17 333 245 356 250 2 1 0 -15 -4 -35z
m-785 -626 c-40 -128 -87 -280 -105 -338 -63 -205 -257 -825 -259 -827 -1 -1
-71 8 -156 21 -118 17 -155 26 -154 37 2 18 324 1069 334 1088 7 14 402 261
408 255 2 -1 -29 -108 -68 -236z m-780 -580 c-72 -232 -136 -438 -142 -456
l-10 -33 -101 7 c-56 4 -104 8 -106 10 -4 3 192 699 208 738 6 17 271 169 279
161 2 -2 -56 -194 -128 -427z m2770 115 c0 -5 -5 -15 -10 -23 -8 -12 -10 -11
-10 8 0 12 5 22 10 22 6 0 10 -3 10 -7z m-360 -547 c0 -18 -72 -76 -94 -76 -9
0 -13 -6 -10 -13 3 -8 -3 -20 -12 -28 -15 -12 -16 -12 -9 10 5 16 4 21 -4 17
-8 -5 -8 -1 0 16 9 20 102 87 122 88 4 0 7 -6 7 -14z m-146 -135 c8 -12 -63
-56 -72 -46 -4 4 -1 10 5 12 7 3 23 13 35 23 27 23 25 22 32 11z m-94 -61 c0
-5 -4 -10 -9 -10 -5 0 -12 -9 -16 -19 -7 -22 -196 -138 -286 -176 -36 -15 -71
-24 -84 -21 -12 3 -25 2 -29 -2 -4 -4 -29 -12 -54 -19 -26 -6 -76 -22 -112
-35 -36 -14 -70 -23 -76 -21 -6 2 -17 -3 -24 -12 -7 -8 -22 -15 -34 -15 -11 0
-48 -11 -81 -24 -33 -14 -77 -27 -97 -31 -21 -3 -59 -22 -85 -43 -64 -50 -104
-75 -110 -69 -11 12 24 63 54 77 17 8 39 27 48 43 9 15 20 25 25 22 5 -3 17
-1 27 4 10 5 48 23 85 41 37 18 69 39 72 46 3 8 14 14 25 14 10 0 21 7 25 15
3 8 12 15 19 15 25 0 140 40 156 54 24 20 52 27 65 17 13 -11 85 7 128 31 13
7 32 13 43 14 11 1 35 5 53 8 27 4 32 2 32 -14 0 -27 19 -25 60 5 19 14 40 25
47 25 8 0 29 15 47 33 51 49 86 69 86 47z m-1124 -495 c-10 -33 -26 -48 -26
-25 0 10 29 60 35 60 1 0 -3 -16 -9 -35z m414 16 c0 -6 -4 -13 -10 -16 -5 -3
-10 1 -10 9 0 9 5 16 10 16 6 0 10 -4 10 -9z m-1240 -31 c0 -5 -2 -10 -4 -10
-3 0 -8 5 -11 10 -3 6 -1 10 4 10 6 0 11 -4 11 -10z m777 -72 c-3 -8 -6 -5 -6
6 -1 11 2 17 5 13 3 -3 4 -12 1 -19z m-38 -42 c-9 -8 -10 -7 -5 7 3 10 7 24 7
30 1 7 3 4 6 -7 3 -10 -1 -23 -8 -30z m-19 -21 c0 -8 -4 -15 -10 -15 -5 0 -7
7 -4 15 4 8 8 15 10 15 2 0 4 -7 4 -15z m-71 -314 c12 -8 12 -14 3 -33 -7 -13
-11 -16 -8 -8 2 8 -3 23 -12 33 -16 18 -6 23 17 8z m-39 -219 c0 -15 -2 -15
-10 -2 -13 20 -13 33 0 25 6 -3 10 -14 10 -23z m120 -82 c0 -5 -10 -10 -22
-10 -19 0 -20 2 -8 10 19 13 30 13 30 0z m4 -54 c-3 -15 -8 -25 -11 -23 -2 3
-1 17 3 31 3 15 8 25 11 23 2 -3 1 -17 -3 -31z m24 -60 c-22 -16 -23 -26 -3
-26 13 0 14 -4 5 -20 -6 -11 -16 -18 -21 -14 -6 3 -10 0 -8 -7 1 -8 1 -22 0
-33 -1 -14 -4 -16 -15 -7 -15 12 -10 62 7 73 7 4 7 11 -1 21 -15 18 -6 27 27
27 24 -1 24 -2 9 -14z m47 -16 c3 -5 -1 -10 -9 -10 -9 0 -16 5 -16 10 0 6 4
10 9 10 6 0 13 -4 16 -10z m13 -41 c-2 -6 -8 -10 -13 -10 -5 0 -11 4 -13 10
-2 6 4 11 13 11 9 0 15 -5 13 -11z m-123 -69 c3 -5 1 -10 -4 -10 -6 0 -11 5
-11 10 0 6 2 10 4 10 3 0 8 -4 11 -10z"/>
</g>
</svg>
