<svg width="606" height="141" viewBox="0 0 606 141" fill="none" xmlns="http://www.w3.org/2000/svg">
    <g clip-path="url(#clip0_599_3)">
    <g filter="url(#filter0_i_599_3)">
    <path d="M46.0869 7.47812V67.2071V124.339H123.537L297.8 132.13L542.066 124.339L600.153 136.567L592.706 78.8932L600.153 37.3426V7.47812L553.981 0.98584L418.443 7.47812H218.86L123.537 13.9704L46.0869 7.47812Z" fill="#597C0C"/>
    </g>
    </g>
    <g filter="url(#filter1_i_599_3)">
    <path d="M0 4.93051L3.07402 68.7013L5.63571 98.41L0 127.122H85.5346L271.071 135.089L531.139 127.122L592.984 135.089L585.055 80.651L592.984 38.1632V7.62505L543.825 0.986328L399.519 7.62505H187.024L85.5346 14.2638L0 4.93051Z" fill="#597C0C"/>
    </g>
    <rect width="9.21629" height="53.7331" transform="matrix(0.998513 -0.0545235 0.0588048 0.998269 3.62158 49.1147)" fill="#080808"/>
    <g filter="url(#filter2_i_599_3)">
    <path d="M598.617 136.074L591.448 120.298L578.302 85.2929L572.341 65.6421L578.302 21.5461H547.003L424.784 26.0196H327.158H209.411H134.142H69.3069H12.669L0 4.93018V33.3839L5.96188 60.5295V89.9572L0 129.172H80.9081L269.352 135.088L530.511 127.693L598.617 136.074Z" fill="#597C0C"/>
    </g>
    <defs>
    <filter id="filter0_i_599_3" x="42.0869" y="0.98584" width="558.066" height="139.782" filterUnits="userSpaceOnUse" color-interpolation-filters="sRGB">
    <feFlood flood-opacity="0" result="BackgroundImageFix"/>
    <feBlend mode="normal" in="SourceGraphic" in2="BackgroundImageFix" result="shape"/>
    <feColorMatrix in="SourceAlpha" type="matrix" values="0 0 0 0 0 0 0 0 0 0 0 0 0 0 0 0 0 0 127 0" result="hardAlpha"/>
    <feOffset dx="-4" dy="5"/>
    <feGaussianBlur stdDeviation="2.1"/>
    <feComposite in2="hardAlpha" operator="arithmetic" k2="-1" k3="1"/>
    <feColorMatrix type="matrix" values="0 0 0 0 0.0313726 0 0 0 0 0.0313726 0 0 0 0 0.0313726 0 0 0 1 0"/>
    <feBlend mode="normal" in2="shape" result="effect1_innerShadow_599_3"/>
    </filter>
    <filter id="filter1_i_599_3" x="0" y="0.986328" width="597.184" height="138.302" filterUnits="userSpaceOnUse" color-interpolation-filters="sRGB">
    <feFlood flood-opacity="0" result="BackgroundImageFix"/>
    <feBlend mode="normal" in="SourceGraphic" in2="BackgroundImageFix" result="shape"/>
    <feColorMatrix in="SourceAlpha" type="matrix" values="0 0 0 0 0 0 0 0 0 0 0 0 0 0 0 0 0 0 127 0" result="hardAlpha"/>
    <feOffset dx="5" dy="5"/>
    <feGaussianBlur stdDeviation="2.1"/>
    <feComposite in2="hardAlpha" operator="arithmetic" k2="-1" k3="1"/>
    <feColorMatrix type="matrix" values="0 0 0 0 0.0313726 0 0 0 0 0.0313726 0 0 0 0 0.0313726 0 0 0 1 0"/>
    <feBlend mode="normal" in2="shape" result="effect1_innerShadow_599_3"/>
    </filter>
    <filter id="filter2_i_599_3" x="0" y="0.730176" width="602.817" height="135.344" filterUnits="userSpaceOnUse" color-interpolation-filters="sRGB">
    <feFlood flood-opacity="0" result="BackgroundImageFix"/>
    <feBlend mode="normal" in="SourceGraphic" in2="BackgroundImageFix" result="shape"/>
    <feColorMatrix in="SourceAlpha" type="matrix" values="0 0 0 0 0 0 0 0 0 0 0 0 0 0 0 0 0 0 127 0" result="hardAlpha"/>
    <feOffset dx="5" dy="-5"/>
    <feGaussianBlur stdDeviation="2.1"/>
    <feComposite in2="hardAlpha" operator="arithmetic" k2="-1" k3="1"/>
    <feColorMatrix type="matrix" values="0 0 0 0 0.0313726 0 0 0 0 0.0313726 0 0 0 0 0.0313726 0 0 0 1 0"/>
    <feBlend mode="normal" in2="shape" result="effect1_innerShadow_599_3"/>
    </filter>
    <clipPath id="clip0_599_3">
    <rect width="463.941" height="141.005" fill="white" transform="translate(141.333)"/>
    </clipPath>
    </defs>
    </svg>
    