<svg width="198" height="116" viewBox="0 0 198 116" fill="none" xmlns="http://www.w3.org/2000/svg">
    <path d="M31.9688 55V10.5625H25.4375V0H49.5V10.5625H42.9688V55H31.9688ZM52.0625 55V0H62.6875V55H52.0625ZM67.0625 55V0H83.8125L88.4375 33.5312L93.0312 0H109.938V55H99.875V15.375L93.5625 55H83.6875L77 15.375V55H67.0625ZM127.531 55.5C122.948 55.5 119.573 54.2188 117.406 51.6562C115.24 49.0729 114.156 45.2812 114.156 40.2812V0H124.844V39.8438C124.844 40.7604 124.896 41.6458 125 42.5C125.104 43.3333 125.344 44.0208 125.719 44.5625C126.094 45.1042 126.698 45.375 127.531 45.375C128.385 45.375 129 45.1146 129.375 44.5938C129.75 44.0521 129.979 43.3542 130.062 42.5C130.167 41.6458 130.219 40.7604 130.219 39.8438V0H140.906V40.2812C140.906 45.2812 139.823 49.0729 137.656 51.6562C135.49 54.2188 132.115 55.5 127.531 55.5ZM145.125 55V0H162C164.812 0 166.938 0.645833 168.375 1.9375C169.812 3.20833 170.771 5 171.25 7.3125C171.75 9.60417 172 12.3021 172 15.4062C172 18.4062 171.615 20.8021 170.844 22.5938C170.094 24.3854 168.667 25.625 166.562 26.3125C168.292 26.6667 169.5 27.5312 170.188 28.9062C170.896 30.2604 171.25 32.0208 171.25 34.1875V55H160.406V33.4688C160.406 31.8646 160.073 30.875 159.406 30.5C158.76 30.1042 157.708 29.9062 156.25 29.9062V55H145.125ZM156.312 20.375H158.969C160.49 20.375 161.25 18.7188 161.25 15.4062C161.25 13.2604 161.083 11.8542 160.75 11.1875C160.417 10.5208 159.792 10.1875 158.875 10.1875H156.312V20.375ZM0.84375 115V60H11.8438V105.625H23.1562V115H0.84375ZM30.9375 115V96.9062L22.1562 60H33.0625L36.125 78.625L39.1875 60H50.0625L41.3125 96.9062V115H30.9375ZM65.9062 115.5C60.8854 115.5 57.2604 114.25 55.0312 111.75C52.8229 109.25 51.7188 105.271 51.7188 99.8125V94.4375H62.5938V101.312C62.5938 102.583 62.7812 103.583 63.1562 104.312C63.5521 105.021 64.2292 105.375 65.1875 105.375C66.1875 105.375 66.875 105.083 67.25 104.5C67.6458 103.917 67.8438 102.958 67.8438 101.625C67.8438 99.9375 67.6771 98.5312 67.3438 97.4062C67.0104 96.2604 66.4271 95.1771 65.5938 94.1562C64.7812 93.1146 63.6458 91.9062 62.1875 90.5312L57.25 85.8438C53.5625 82.3646 51.7188 78.3854 51.7188 73.9062C51.7188 69.2188 52.8021 65.6458 54.9688 63.1875C57.1562 60.7292 60.3125 59.5 64.4375 59.5C69.4792 59.5 73.0521 60.8438 75.1562 63.5312C77.2812 66.2188 78.3438 70.3021 78.3438 75.7812H67.1562V72C67.1562 71.25 66.9375 70.6667 66.5 70.25C66.0833 69.8333 65.5104 69.625 64.7812 69.625C63.9062 69.625 63.2604 69.875 62.8438 70.375C62.4479 70.8542 62.25 71.4792 62.25 72.25C62.25 73.0208 62.4583 73.8542 62.875 74.75C63.2917 75.6458 64.1146 76.6771 65.3438 77.8438L71.6875 83.9375C72.9583 85.1458 74.125 86.4271 75.1875 87.7812C76.25 89.1146 77.1042 90.6771 77.75 92.4688C78.3958 94.2396 78.7188 96.4062 78.7188 98.9688C78.7188 104.135 77.7604 108.188 75.8438 111.125C73.9479 114.042 70.6354 115.5 65.9062 115.5ZM82.4062 115V60H104.406V70.625H93.5938V81.3438H103.969V91.6875H93.5938V104.281H105.125V115H82.4062ZM108.781 115V60H120.094L125.156 86.3438V60H135.781V115H125.031L119.531 87.5V115H108.781ZM140.656 115V60H151.531V82.0312L156.656 60H167.719L161.562 85.1875L169 115H157.594L151.594 88.375V115H140.656ZM184.031 115.5C179.635 115.5 176.271 114.177 173.938 111.531C171.625 108.865 170.469 105.021 170.469 100V73.875C170.469 69.1667 171.615 65.5938 173.906 63.1562C176.219 60.7188 179.594 59.5 184.031 59.5C188.469 59.5 191.833 60.7188 194.125 63.1562C196.438 65.5938 197.594 69.1667 197.594 73.875V100C197.594 105.021 196.427 108.865 194.094 111.531C191.781 114.177 188.427 115.5 184.031 115.5ZM184.125 105.375C185.792 105.375 186.625 103.76 186.625 100.531V73.6875C186.625 70.9792 185.812 69.625 184.188 69.625C182.354 69.625 181.438 71.0104 181.438 73.7812V100.594C181.438 102.302 181.646 103.531 182.062 104.281C182.479 105.01 183.167 105.375 184.125 105.375Z" fill="#080808"/>
    </svg>
    