<svg xmlns="http://www.w3.org/2000/svg" width="40" height="40" viewBox="0 0 40 40" fill="none">
    <path d="M31.7213 30.6346L26.0547 24.968C27.5684 23.1826 28.4999 20.8927 28.4999 18.4087C28.4999 12.8197 23.9588 8.31744 18.4086 8.31744C12.8196 8.31744 8.31738 12.8585 8.31738 18.4087C8.31738 23.9977 12.8584 28.4999 18.4086 28.4999C20.9314 28.4999 23.2214 27.5684 24.9679 26.0548L30.6346 31.7214L31.7213 30.6346ZM9.83107 18.4087C9.83107 13.6736 13.6735 9.86994 18.3698 9.86994C23.1049 9.86994 26.9086 13.7124 26.9086 18.4087C26.9086 23.105 23.0661 26.9474 18.3698 26.9474C13.6735 26.9474 9.83107 23.105 9.83107 18.4087Z" fill="#080808"/>
    </svg>