<svg width="383" height="108" viewBox="0 0 383 108" fill="none" xmlns="http://www.w3.org/2000/svg">
    <path d="M0 9.74569V97.4569H105.736L285.605 108L379.475 97.4569L383 9.74569H241.655H212.018L64.6166 0L0 9.74569Z" fill="#618201"/>
    <mask id="path-2-outside-1_416_1146" maskUnits="userSpaceOnUse" x="39" y="38" width="306" height="35" fill="black">
    <rect fill="white" x="39" y="38" width="306" height="35"/>
    <path d="M55.1198 54.0703V56.7773H43.7975V71H40.9401V40.1914H56.7741V43.0703H43.7975V54.0703H55.1198ZM78.2258 61.2246C78.5695 62.2129 79.1424 63.8027 79.9445 65.9941C80.7609 68.1712 81.3625 69.8398 81.7492 71H78.7414L75.7551 62.1914C75.2824 60.8164 74.5591 59.6921 73.5852 58.8184C72.6255 57.9447 71.3866 57.5293 69.8684 57.5723L66.6887 57.6152V71.043L63.8313 71V40.1914H72.8977C75.2896 40.1914 77.2375 41.015 78.7414 42.6621C80.2453 44.2949 80.9973 46.3359 80.9973 48.7852C80.9973 50.9622 80.4387 52.7812 79.3215 54.2422C78.2043 55.6888 76.7219 56.6413 74.8742 57.0996C75.619 57.5293 76.2922 58.1309 76.8938 58.9043C77.4953 59.6634 77.9393 60.4368 78.2258 61.2246ZM66.6887 42.9629V54.8867L72.3605 54.8438C74.1652 54.8438 75.576 54.2852 76.593 53.168C77.6242 52.0508 78.1398 50.5898 78.1398 48.7852C78.1398 47.0234 77.6672 45.6055 76.7219 44.5312C75.7909 43.457 74.4732 42.9199 72.7688 42.9199L66.6887 42.9629ZM102.836 54.0703V56.7773H91.5564V68.2715H104.103V71H88.699V40.1914H104.103V42.9199H91.5564V54.0703H102.836ZM126.608 54.0703V56.7773H115.328V68.2715H127.875V71H112.471V40.1914H127.875V42.9199H115.328V54.0703H126.608ZM158.576 62.3848H161.433C161.677 64.3613 162.407 65.8939 163.624 66.9824C164.856 68.071 166.353 68.6152 168.115 68.6152C169.69 68.6152 171.072 68.1283 172.261 67.1543C173.464 66.166 174.066 64.9271 174.066 63.4375C174.066 62.5352 173.865 61.7188 173.464 60.9883C173.078 60.2435 172.612 59.6419 172.068 59.1836C171.538 58.7253 170.822 58.2168 169.919 57.6582L164.505 54.3281C161.369 52.3802 159.8 49.974 159.8 47.1094C159.8 45.6484 160.187 44.3522 160.96 43.2207C161.748 42.0749 162.758 41.2155 163.99 40.6426C165.236 40.0553 166.582 39.7617 168.029 39.7617C170.335 39.7617 172.268 40.5781 173.83 42.2109C175.405 43.8438 176.3 45.9277 176.515 48.4629H173.658C173.529 46.6582 172.934 45.2116 171.874 44.123C170.829 43.0345 169.533 42.4902 167.986 42.4902C166.496 42.4902 165.221 42.9128 164.162 43.7578C163.102 44.5885 162.572 45.7057 162.572 47.1094C162.572 48.2409 162.858 49.1647 163.431 49.8809C164.018 50.597 164.806 51.2559 165.794 51.8574L171.294 55.252C175.018 57.5293 176.88 60.2578 176.88 63.4375C176.88 64.9557 176.465 66.3379 175.634 67.584C174.803 68.8158 173.722 69.7682 172.39 70.4414C171.058 71.1003 169.633 71.4297 168.115 71.4297C165.637 71.4297 163.488 70.6133 161.669 68.9805C159.85 67.3333 158.819 65.1348 158.576 62.3848ZM196.828 71.2578V56.8418H186.172V71H183.314V40.1484H186.172V54.1133H196.828V40.4277H199.686V71.2578H196.828ZM222.126 68.2715V71H208.44V68.2715H213.897V42.9199H208.44V40.1914H222.126V42.9199H216.754V68.2715H222.126ZM230.321 40.1914H239.56C241.135 40.1914 242.539 40.6139 243.771 41.459C245.017 42.2897 245.962 43.3926 246.607 44.7676C247.251 46.1426 247.573 47.6536 247.573 49.3008C247.573 51.8646 246.829 54.0345 245.339 55.8105C243.864 57.5723 241.937 58.4531 239.56 58.4531H233.179V71H230.321V40.1914ZM233.179 55.7246H239.56C240.677 55.7246 241.629 55.4238 242.417 54.8223C243.219 54.2064 243.799 53.4258 244.157 52.4805C244.53 51.5352 244.716 50.4753 244.716 49.3008C244.716 48.1263 244.53 47.0736 244.157 46.1426C243.799 45.1973 243.219 44.4238 242.417 43.8223C241.629 43.2207 240.677 42.9199 239.56 42.9199H233.179V55.7246ZM254.093 40.1914H263.332C264.907 40.1914 266.311 40.6139 267.543 41.459C268.789 42.2897 269.734 43.3926 270.379 44.7676C271.023 46.1426 271.345 47.6536 271.345 49.3008C271.345 51.8646 270.601 54.0345 269.111 55.8105C267.636 57.5723 265.709 58.4531 263.332 58.4531H256.951V71H254.093V40.1914ZM256.951 55.7246H263.332C264.449 55.7246 265.401 55.4238 266.189 54.8223C266.991 54.2064 267.571 53.4258 267.929 52.4805C268.302 51.5352 268.488 50.4753 268.488 49.3008C268.488 48.1263 268.302 47.0736 267.929 46.1426C267.571 45.1973 266.991 44.4238 266.189 43.8223C265.401 43.2207 264.449 42.9199 263.332 42.9199H256.951V55.7246ZM293.442 68.2715V71H279.756V68.2715H285.213V42.9199H279.756V40.1914H293.442V42.9199H288.071V68.2715H293.442ZM315.194 71L304.946 45.8848L305.075 71H302.218V40.1914H305.505L315.731 65.3711L315.581 40.1914H318.46V71H315.194ZM343.199 54.9941L343.328 71H340.857L340.513 67.6914C339.224 70.1836 337.212 71.4297 334.476 71.4297C333.044 71.4297 331.762 71.1146 330.63 70.4844C329.513 69.8398 328.604 69.0091 327.902 67.9922C327.2 66.9609 326.62 65.7435 326.161 64.3398C325.703 62.9219 325.381 61.5039 325.195 60.0859C325.023 58.6536 324.937 57.1569 324.937 55.5957C324.937 53.9772 325.037 52.4375 325.238 50.9766C325.438 49.5156 325.782 48.0905 326.269 46.7012C326.756 45.2975 327.365 44.0944 328.095 43.0918C328.84 42.0749 329.792 41.2656 330.953 40.6641C332.113 40.0482 333.423 39.7474 334.884 39.7617C337.262 39.776 339.16 40.5638 340.578 42.125C341.995 43.6862 342.841 45.8633 343.113 48.6562H340.234C339.962 46.7227 339.41 45.2188 338.579 44.1445C337.749 43.056 336.517 42.5046 334.884 42.4902C333.81 42.4759 332.843 42.7409 331.984 43.2852C331.139 43.8151 330.458 44.5169 329.943 45.3906C329.427 46.25 329.005 47.2741 328.675 48.4629C328.346 49.6517 328.117 50.8262 327.988 51.9863C327.859 53.1465 327.794 54.3496 327.794 55.5957C327.794 56.8418 327.837 58.0163 327.923 59.1191C328.023 60.222 328.217 61.3822 328.503 62.5996C328.804 63.8171 329.191 64.8626 329.663 65.7363C330.136 66.5957 330.781 67.3118 331.597 67.8848C332.428 68.4434 333.387 68.7227 334.476 68.7227C336.424 68.7227 337.913 67.9635 338.945 66.4453C339.99 64.9128 340.513 62.7643 340.513 60V57.7227H333.595V54.9941H343.199Z"/>
    </mask>
    <path d="M55.1198 54.0703V56.7773H43.7975V71H40.9401V40.1914H56.7741V43.0703H43.7975V54.0703H55.1198ZM78.2258 61.2246C78.5695 62.2129 79.1424 63.8027 79.9445 65.9941C80.7609 68.1712 81.3625 69.8398 81.7492 71H78.7414L75.7551 62.1914C75.2824 60.8164 74.5591 59.6921 73.5852 58.8184C72.6255 57.9447 71.3866 57.5293 69.8684 57.5723L66.6887 57.6152V71.043L63.8313 71V40.1914H72.8977C75.2896 40.1914 77.2375 41.015 78.7414 42.6621C80.2453 44.2949 80.9973 46.3359 80.9973 48.7852C80.9973 50.9622 80.4387 52.7812 79.3215 54.2422C78.2043 55.6888 76.7219 56.6413 74.8742 57.0996C75.619 57.5293 76.2922 58.1309 76.8938 58.9043C77.4953 59.6634 77.9393 60.4368 78.2258 61.2246ZM66.6887 42.9629V54.8867L72.3605 54.8438C74.1652 54.8438 75.576 54.2852 76.593 53.168C77.6242 52.0508 78.1398 50.5898 78.1398 48.7852C78.1398 47.0234 77.6672 45.6055 76.7219 44.5312C75.7909 43.457 74.4732 42.9199 72.7688 42.9199L66.6887 42.9629ZM102.836 54.0703V56.7773H91.5564V68.2715H104.103V71H88.699V40.1914H104.103V42.9199H91.5564V54.0703H102.836ZM126.608 54.0703V56.7773H115.328V68.2715H127.875V71H112.471V40.1914H127.875V42.9199H115.328V54.0703H126.608ZM158.576 62.3848H161.433C161.677 64.3613 162.407 65.8939 163.624 66.9824C164.856 68.071 166.353 68.6152 168.115 68.6152C169.69 68.6152 171.072 68.1283 172.261 67.1543C173.464 66.166 174.066 64.9271 174.066 63.4375C174.066 62.5352 173.865 61.7188 173.464 60.9883C173.078 60.2435 172.612 59.6419 172.068 59.1836C171.538 58.7253 170.822 58.2168 169.919 57.6582L164.505 54.3281C161.369 52.3802 159.8 49.974 159.8 47.1094C159.8 45.6484 160.187 44.3522 160.96 43.2207C161.748 42.0749 162.758 41.2155 163.99 40.6426C165.236 40.0553 166.582 39.7617 168.029 39.7617C170.335 39.7617 172.268 40.5781 173.83 42.2109C175.405 43.8438 176.3 45.9277 176.515 48.4629H173.658C173.529 46.6582 172.934 45.2116 171.874 44.123C170.829 43.0345 169.533 42.4902 167.986 42.4902C166.496 42.4902 165.221 42.9128 164.162 43.7578C163.102 44.5885 162.572 45.7057 162.572 47.1094C162.572 48.2409 162.858 49.1647 163.431 49.8809C164.018 50.597 164.806 51.2559 165.794 51.8574L171.294 55.252C175.018 57.5293 176.88 60.2578 176.88 63.4375C176.88 64.9557 176.465 66.3379 175.634 67.584C174.803 68.8158 173.722 69.7682 172.39 70.4414C171.058 71.1003 169.633 71.4297 168.115 71.4297C165.637 71.4297 163.488 70.6133 161.669 68.9805C159.85 67.3333 158.819 65.1348 158.576 62.3848ZM196.828 71.2578V56.8418H186.172V71H183.314V40.1484H186.172V54.1133H196.828V40.4277H199.686V71.2578H196.828ZM222.126 68.2715V71H208.44V68.2715H213.897V42.9199H208.44V40.1914H222.126V42.9199H216.754V68.2715H222.126ZM230.321 40.1914H239.56C241.135 40.1914 242.539 40.6139 243.771 41.459C245.017 42.2897 245.962 43.3926 246.607 44.7676C247.251 46.1426 247.573 47.6536 247.573 49.3008C247.573 51.8646 246.829 54.0345 245.339 55.8105C243.864 57.5723 241.937 58.4531 239.56 58.4531H233.179V71H230.321V40.1914ZM233.179 55.7246H239.56C240.677 55.7246 241.629 55.4238 242.417 54.8223C243.219 54.2064 243.799 53.4258 244.157 52.4805C244.53 51.5352 244.716 50.4753 244.716 49.3008C244.716 48.1263 244.53 47.0736 244.157 46.1426C243.799 45.1973 243.219 44.4238 242.417 43.8223C241.629 43.2207 240.677 42.9199 239.56 42.9199H233.179V55.7246ZM254.093 40.1914H263.332C264.907 40.1914 266.311 40.6139 267.543 41.459C268.789 42.2897 269.734 43.3926 270.379 44.7676C271.023 46.1426 271.345 47.6536 271.345 49.3008C271.345 51.8646 270.601 54.0345 269.111 55.8105C267.636 57.5723 265.709 58.4531 263.332 58.4531H256.951V71H254.093V40.1914ZM256.951 55.7246H263.332C264.449 55.7246 265.401 55.4238 266.189 54.8223C266.991 54.2064 267.571 53.4258 267.929 52.4805C268.302 51.5352 268.488 50.4753 268.488 49.3008C268.488 48.1263 268.302 47.0736 267.929 46.1426C267.571 45.1973 266.991 44.4238 266.189 43.8223C265.401 43.2207 264.449 42.9199 263.332 42.9199H256.951V55.7246ZM293.442 68.2715V71H279.756V68.2715H285.213V42.9199H279.756V40.1914H293.442V42.9199H288.071V68.2715H293.442ZM315.194 71L304.946 45.8848L305.075 71H302.218V40.1914H305.505L315.731 65.3711L315.581 40.1914H318.46V71H315.194ZM343.199 54.9941L343.328 71H340.857L340.513 67.6914C339.224 70.1836 337.212 71.4297 334.476 71.4297C333.044 71.4297 331.762 71.1146 330.63 70.4844C329.513 69.8398 328.604 69.0091 327.902 67.9922C327.2 66.9609 326.62 65.7435 326.161 64.3398C325.703 62.9219 325.381 61.5039 325.195 60.0859C325.023 58.6536 324.937 57.1569 324.937 55.5957C324.937 53.9772 325.037 52.4375 325.238 50.9766C325.438 49.5156 325.782 48.0905 326.269 46.7012C326.756 45.2975 327.365 44.0944 328.095 43.0918C328.84 42.0749 329.792 41.2656 330.953 40.6641C332.113 40.0482 333.423 39.7474 334.884 39.7617C337.262 39.776 339.16 40.5638 340.578 42.125C341.995 43.6862 342.841 45.8633 343.113 48.6562H340.234C339.962 46.7227 339.41 45.2188 338.579 44.1445C337.749 43.056 336.517 42.5046 334.884 42.4902C333.81 42.4759 332.843 42.7409 331.984 43.2852C331.139 43.8151 330.458 44.5169 329.943 45.3906C329.427 46.25 329.005 47.2741 328.675 48.4629C328.346 49.6517 328.117 50.8262 327.988 51.9863C327.859 53.1465 327.794 54.3496 327.794 55.5957C327.794 56.8418 327.837 58.0163 327.923 59.1191C328.023 60.222 328.217 61.3822 328.503 62.5996C328.804 63.8171 329.191 64.8626 329.663 65.7363C330.136 66.5957 330.781 67.3118 331.597 67.8848C332.428 68.4434 333.387 68.7227 334.476 68.7227C336.424 68.7227 337.913 67.9635 338.945 66.4453C339.99 64.9128 340.513 62.7643 340.513 60V57.7227H333.595V54.9941H343.199Z" fill="#001BAC"/>
    <path d="M55.1198 54.0703H56.1198V53.0703H55.1198V54.0703ZM55.1198 56.7773V57.7773H56.1198V56.7773H55.1198ZM43.7975 56.7773V55.7773H42.7975V56.7773H43.7975ZM43.7975 71V72H44.7975V71H43.7975ZM40.9401 71H39.9401V72H40.9401V71ZM40.9401 40.1914V39.1914H39.9401V40.1914H40.9401ZM56.7741 40.1914H57.7741V39.1914H56.7741V40.1914ZM56.7741 43.0703V44.0703H57.7741V43.0703H56.7741ZM43.7975 43.0703V42.0703H42.7975V43.0703H43.7975ZM43.7975 54.0703H42.7975V55.0703H43.7975V54.0703ZM54.1198 54.0703V56.7773H56.1198V54.0703H54.1198ZM55.1198 55.7773H43.7975V57.7773H55.1198V55.7773ZM42.7975 56.7773V71H44.7975V56.7773H42.7975ZM43.7975 70H40.9401V72H43.7975V70ZM41.9401 71V40.1914H39.9401V71H41.9401ZM40.9401 41.1914H56.7741V39.1914H40.9401V41.1914ZM55.7741 40.1914V43.0703H57.7741V40.1914H55.7741ZM56.7741 42.0703H43.7975V44.0703H56.7741V42.0703ZM42.7975 43.0703V54.0703H44.7975V43.0703H42.7975ZM43.7975 55.0703H55.1198V53.0703H43.7975V55.0703ZM78.2258 61.2246L79.1704 60.8961L79.1656 60.8829L78.2258 61.2246ZM79.9445 65.9941L79.0054 66.3379L79.0082 66.3453L79.9445 65.9941ZM81.7492 71V72H83.1366L82.6979 70.6838L81.7492 71ZM78.7414 71L77.7944 71.3211L78.0245 72H78.7414V71ZM75.7551 62.1914L76.7021 61.8703L76.7008 61.8663L75.7551 62.1914ZM73.5852 58.8184L72.9119 59.5578L72.9174 59.5627L73.5852 58.8184ZM69.8684 57.5723L69.8819 58.5722L69.8893 58.5721L69.8967 58.5719L69.8684 57.5723ZM66.6887 57.6152L66.6752 56.6153L65.6887 56.6287V57.6152H66.6887ZM66.6887 71.043L66.6736 72.0429L67.6887 72.0581V71.043H66.6887ZM63.8313 71H62.8313V71.9851L63.8162 71.9999L63.8313 71ZM63.8313 40.1914V39.1914H62.8313V40.1914H63.8313ZM78.7414 42.6621L78.0029 43.3364L78.0059 43.3396L78.7414 42.6621ZM79.3215 54.2422L80.113 54.8534L80.1158 54.8496L79.3215 54.2422ZM74.8742 57.0996L74.6335 56.129L72.2259 56.7262L74.3745 57.9658L74.8742 57.0996ZM76.8938 58.9043L76.1044 59.5183L76.11 59.5254L76.8938 58.9043ZM66.6887 42.9629L66.6816 41.9629L65.6887 41.9699V42.9629H66.6887ZM66.6887 54.8867H65.6887V55.8943L66.6962 55.8867L66.6887 54.8867ZM72.3605 54.8438L72.3605 53.8437L72.353 53.8438L72.3605 54.8438ZM76.593 53.168L75.8582 52.4897L75.8535 52.4948L76.593 53.168ZM76.7219 44.5312L75.9662 45.1862L75.9712 45.1919L76.7219 44.5312ZM72.7688 42.9199L72.7687 41.9199L72.7617 41.9199L72.7688 42.9199ZM77.2813 61.5531C77.6279 62.5496 78.2032 64.146 79.0055 66.3379L80.8836 65.6504C80.0817 63.4595 79.5112 61.8762 79.1703 60.8961L77.2813 61.5531ZM79.0082 66.3453C79.8234 68.5191 80.4198 70.1739 80.8005 71.3162L82.6979 70.6838C82.3052 69.5058 81.6985 67.8234 80.8809 65.643L79.0082 66.3453ZM81.7492 70H78.7414V72H81.7492V70ZM79.6885 70.6789L76.7021 61.8703L74.808 62.5125L77.7944 71.3211L79.6885 70.6789ZM76.7008 61.8663C76.179 60.3485 75.3674 59.0737 74.2529 58.074L72.9174 59.5627C73.7508 60.3104 74.3858 61.2843 74.8094 62.5165L76.7008 61.8663ZM74.2584 58.0789C73.0751 57.0016 71.5697 56.5237 69.8401 56.5727L69.8967 58.5719C71.2034 58.5349 72.176 58.8878 72.9119 59.5578L74.2584 58.0789ZM69.8548 56.5724L66.6752 56.6153L66.7022 58.6151L69.8819 58.5722L69.8548 56.5724ZM65.6887 57.6152V71.043H67.6887V57.6152H65.6887ZM66.7037 70.0431L63.8463 70.0001L63.8162 71.9999L66.6736 72.0429L66.7037 70.0431ZM64.8313 71V40.1914H62.8313V71H64.8313ZM63.8313 41.1914H72.8977V39.1914H63.8313V41.1914ZM72.8977 41.1914C75.0314 41.1914 76.7034 41.913 78.0029 43.3364L79.4799 41.9878C77.7716 40.1169 75.5477 39.1914 72.8977 39.1914V41.1914ZM78.0059 43.3396C79.3216 44.7681 79.9973 46.5588 79.9973 48.7852H81.9973C81.9973 46.113 81.169 43.8218 79.477 41.9846L78.0059 43.3396ZM79.9973 48.7852C79.9973 50.7844 79.4876 52.3787 78.5271 53.6347L80.1158 54.8496C81.3897 53.1838 81.9973 51.14 81.9973 48.7852H79.9973ZM78.53 53.631C77.5567 54.8913 76.2721 55.7225 74.6335 56.129L75.115 58.0702C77.1717 57.56 78.8519 56.4863 80.1129 54.8534L78.53 53.631ZM74.3745 57.9658C74.9928 58.3225 75.5712 58.8327 76.1044 59.5182L77.6831 58.2904C77.0132 57.429 76.2452 56.7361 75.3739 56.2334L74.3745 57.9658ZM76.11 59.5254C76.6551 60.2132 77.0414 60.8938 77.286 61.5664L79.1656 60.8829C78.8372 59.9799 78.3356 59.1136 77.6775 58.2832L76.11 59.5254ZM65.6887 42.9629V54.8867H67.6887V42.9629H65.6887ZM66.6962 55.8867L72.3681 55.8437L72.353 53.8438L66.6811 53.8867L66.6962 55.8867ZM72.3605 55.8438C74.3871 55.8438 76.0893 55.2068 77.3325 53.8411L75.8535 52.4948C75.0628 53.3635 73.9433 53.8438 72.3605 53.8438V55.8438ZM77.3278 53.8462C78.5606 52.5107 79.1398 50.7914 79.1398 48.7852H77.1398C77.1398 50.3883 76.6878 51.5909 75.8582 52.4897L77.3278 53.8462ZM79.1398 48.7852C79.1398 46.8388 78.6134 45.167 77.4726 43.8706L75.9712 45.1919C76.7209 46.0439 77.1398 47.2081 77.1398 48.7852H79.1398ZM77.4776 43.8763C76.3188 42.5393 74.6999 41.9199 72.7688 41.9199V43.9199C74.2464 43.9199 75.263 44.3748 75.9662 45.1862L77.4776 43.8763ZM72.7617 41.9199L66.6816 41.9629L66.6957 43.9629L72.7758 43.9199L72.7617 41.9199ZM102.836 54.0703H103.836V53.0703H102.836V54.0703ZM102.836 56.7773V57.7773H103.836V56.7773H102.836ZM91.5564 56.7773V55.7773H90.5564V56.7773H91.5564ZM91.5564 68.2715H90.5564V69.2715H91.5564V68.2715ZM104.103 68.2715H105.103V67.2715H104.103V68.2715ZM104.103 71V72H105.103V71H104.103ZM88.699 71H87.699V72H88.699V71ZM88.699 40.1914V39.1914H87.699V40.1914H88.699ZM104.103 40.1914H105.103V39.1914H104.103V40.1914ZM104.103 42.9199V43.9199H105.103V42.9199H104.103ZM91.5564 42.9199V41.9199H90.5564V42.9199H91.5564ZM91.5564 54.0703H90.5564V55.0703H91.5564V54.0703ZM101.836 54.0703V56.7773H103.836V54.0703H101.836ZM102.836 55.7773H91.5564V57.7773H102.836V55.7773ZM90.5564 56.7773V68.2715H92.5564V56.7773H90.5564ZM91.5564 69.2715H104.103V67.2715H91.5564V69.2715ZM103.103 68.2715V71H105.103V68.2715H103.103ZM104.103 70H88.699V72H104.103V70ZM89.699 71V40.1914H87.699V71H89.699ZM88.699 41.1914H104.103V39.1914H88.699V41.1914ZM103.103 40.1914V42.9199H105.103V40.1914H103.103ZM104.103 41.9199H91.5564V43.9199H104.103V41.9199ZM90.5564 42.9199V54.0703H92.5564V42.9199H90.5564ZM91.5564 55.0703H102.836V53.0703H91.5564V55.0703ZM126.608 54.0703H127.608V53.0703H126.608V54.0703ZM126.608 56.7773V57.7773H127.608V56.7773H126.608ZM115.328 56.7773V55.7773H114.328V56.7773H115.328ZM115.328 68.2715H114.328V69.2715H115.328V68.2715ZM127.875 68.2715H128.875V67.2715H127.875V68.2715ZM127.875 71V72H128.875V71H127.875ZM112.471 71H111.471V72H112.471V71ZM112.471 40.1914V39.1914H111.471V40.1914H112.471ZM127.875 40.1914H128.875V39.1914H127.875V40.1914ZM127.875 42.9199V43.9199H128.875V42.9199H127.875ZM115.328 42.9199V41.9199H114.328V42.9199H115.328ZM115.328 54.0703H114.328V55.0703H115.328V54.0703ZM125.608 54.0703V56.7773H127.608V54.0703H125.608ZM126.608 55.7773H115.328V57.7773H126.608V55.7773ZM114.328 56.7773V68.2715H116.328V56.7773H114.328ZM115.328 69.2715H127.875V67.2715H115.328V69.2715ZM126.875 68.2715V71H128.875V68.2715H126.875ZM127.875 70H112.471V72H127.875V70ZM113.471 71V40.1914H111.471V71H113.471ZM112.471 41.1914H127.875V39.1914H112.471V41.1914ZM126.875 40.1914V42.9199H128.875V40.1914H126.875ZM127.875 41.9199H115.328V43.9199H127.875V41.9199ZM114.328 42.9199V54.0703H116.328V42.9199H114.328ZM115.328 55.0703H126.608V53.0703H115.328V55.0703ZM158.576 62.3848V61.3848H157.483L157.58 62.473L158.576 62.3848ZM161.433 62.3848L162.426 62.2625L162.317 61.3848H161.433V62.3848ZM163.624 66.9824L162.958 67.7279L162.962 67.7318L163.624 66.9824ZM172.261 67.1543L172.895 67.9278L172.896 67.927L172.261 67.1543ZM173.464 60.9883L172.577 61.4491L172.582 61.4594L172.588 61.4695L173.464 60.9883ZM172.068 59.1836L171.414 59.94L171.424 59.9485L172.068 59.1836ZM169.919 57.6582L170.446 56.8079L170.443 56.8064L169.919 57.6582ZM164.505 54.3281L163.978 55.1777L163.981 55.1799L164.505 54.3281ZM160.96 43.2207L160.136 42.6542L160.135 42.6564L160.96 43.2207ZM163.99 40.6426L164.411 41.5493L164.416 41.5472L163.99 40.6426ZM173.83 42.2109L173.107 42.902L173.11 42.9053L173.83 42.2109ZM176.515 48.4629V49.4629H177.603L177.512 48.3784L176.515 48.4629ZM173.658 48.4629L172.66 48.5341L172.727 49.4629H173.658V48.4629ZM171.874 44.123L171.153 44.8158L171.158 44.8207L171.874 44.123ZM164.162 43.7578L164.778 44.5449L164.785 44.5397L164.162 43.7578ZM163.431 49.8809L162.65 50.5056L162.658 50.5149L163.431 49.8809ZM165.794 51.8574L166.32 51.0064L166.314 51.0032L165.794 51.8574ZM171.294 55.252L170.769 56.1029L170.773 56.1051L171.294 55.252ZM175.634 67.584L176.463 68.1431L176.466 68.1387L175.634 67.584ZM172.39 70.4414L172.833 71.3378L172.841 71.3339L172.39 70.4414ZM161.669 68.9805L160.998 69.7217L161.001 69.7246L161.669 68.9805ZM158.576 63.3848H161.433V61.3848H158.576V63.3848ZM160.441 62.507C160.707 64.6689 161.522 66.4444 162.958 67.7279L164.291 66.237C163.292 65.3433 162.646 64.0538 162.426 62.2625L160.441 62.507ZM162.962 67.7318C164.391 68.994 166.128 69.6152 168.115 69.6152V67.6152C166.578 67.6152 165.322 67.148 164.287 66.2331L162.962 67.7318ZM168.115 69.6152C169.915 69.6152 171.523 69.0522 172.895 67.9278L171.627 66.3808C170.622 67.2043 169.465 67.6152 168.115 67.6152V69.6152ZM172.896 67.927C174.318 66.7587 175.066 65.2416 175.066 63.4375H173.066C173.066 64.6126 172.61 65.5733 171.626 66.3816L172.896 67.927ZM175.066 63.4375C175.066 62.3812 174.83 61.397 174.341 60.507L172.588 61.4695C172.901 62.0405 173.066 62.6891 173.066 63.4375H175.066ZM174.352 60.5275C173.915 59.6869 173.373 58.9752 172.712 58.4187L171.424 59.9485C171.851 60.3087 172.24 60.8001 172.577 61.4491L174.352 60.5275ZM172.722 58.4272C172.137 57.9215 171.373 57.3818 170.446 56.8079L169.393 58.5085C170.271 59.0518 170.939 59.529 171.414 59.94L172.722 58.4272ZM170.443 56.8064L165.029 53.4764L163.981 55.1799L169.395 58.51L170.443 56.8064ZM165.033 53.4786C162.093 51.6532 160.8 49.528 160.8 47.1094H158.8C158.8 50.4199 160.644 53.1072 163.978 55.1776L165.033 53.4786ZM160.8 47.1094C160.8 45.8358 161.134 44.7391 161.786 43.785L160.135 42.6564C159.24 43.9653 158.8 45.461 158.8 47.1094H160.8ZM161.784 43.7872C162.473 42.7851 163.346 42.045 164.411 41.5493L163.568 39.7359C162.17 40.386 161.023 41.3647 160.136 42.6542L161.784 43.7872ZM164.416 41.5472C165.522 41.0259 166.722 40.7617 168.029 40.7617V38.7617C166.442 38.7617 164.949 39.0848 163.563 39.738L164.416 41.5472ZM168.029 40.7617C170.068 40.7617 171.739 41.4711 173.107 42.902L174.552 41.5199C172.798 39.6852 170.601 38.7617 168.029 38.7617V40.7617ZM173.11 42.9053C174.506 44.3526 175.321 46.2118 175.519 48.5473L177.512 48.3784C177.28 45.6437 176.304 43.3349 174.549 41.5166L173.11 42.9053ZM176.515 47.4629H173.658V49.4629H176.515V47.4629ZM174.655 48.3916C174.513 46.3986 173.846 44.714 172.591 43.4254L171.158 44.8207C172.023 45.7092 172.545 46.9178 172.66 48.5341L174.655 48.3916ZM172.596 43.4303C171.356 42.14 169.797 41.4902 167.986 41.4902V43.4902C169.268 43.4902 170.301 43.929 171.153 44.8158L172.596 43.4303ZM167.986 41.4902C166.294 41.4902 164.793 41.9755 163.538 42.9759L164.785 44.5397C165.65 43.85 166.699 43.4902 167.986 43.4902V41.4902ZM163.545 42.9708C162.231 44.0002 161.572 45.4136 161.572 47.1094H163.572C163.572 45.9979 163.972 45.1769 164.778 44.5449L163.545 42.9708ZM161.572 47.1094C161.572 48.4134 161.905 49.5737 162.65 50.5056L164.212 49.2562C163.812 48.7557 163.572 48.0684 163.572 47.1094H161.572ZM162.658 50.5149C163.332 51.3368 164.213 52.0655 165.274 52.7116L166.314 51.0032C165.399 50.4462 164.705 49.8572 164.204 49.2468L162.658 50.5149ZM165.269 52.7084L170.769 56.1029L171.82 54.401L166.32 51.0064L165.269 52.7084ZM170.773 56.1051C174.323 58.2762 175.88 60.7297 175.88 63.4375H177.88C177.88 59.7859 175.714 56.7824 171.816 54.3988L170.773 56.1051ZM175.88 63.4375C175.88 64.7612 175.522 65.9498 174.802 67.0293L176.466 68.1387C177.408 66.7259 177.88 65.1503 177.88 63.4375H175.88ZM174.805 67.0248C174.07 68.1144 173.119 68.9524 171.939 69.5489L172.841 71.3339C174.325 70.5841 175.537 69.5171 176.463 68.1431L174.805 67.0248ZM171.947 69.5451C170.756 70.1342 169.483 70.4297 168.115 70.4297V72.4297C169.783 72.4297 171.36 72.0663 172.833 71.3378L171.947 69.5451ZM168.115 70.4297C165.88 70.4297 163.97 69.7019 162.337 68.2363L161.001 69.7246C163.007 71.5246 165.394 72.4297 168.115 72.4297V70.4297ZM162.341 68.2392C160.732 66.7826 159.796 64.8296 159.572 62.2966L157.58 62.473C157.842 65.44 158.969 67.8841 160.998 69.7217L162.341 68.2392ZM196.828 71.2578H195.828V72.2578H196.828V71.2578ZM196.828 56.8418H197.828V55.8418H196.828V56.8418ZM186.172 56.8418V55.8418H185.172V56.8418H186.172ZM186.172 71V72H187.172V71H186.172ZM183.314 71H182.314V72H183.314V71ZM183.314 40.1484V39.1484H182.314V40.1484H183.314ZM186.172 40.1484H187.172V39.1484H186.172V40.1484ZM186.172 54.1133H185.172V55.1133H186.172V54.1133ZM196.828 54.1133V55.1133H197.828V54.1133H196.828ZM196.828 40.4277V39.4277H195.828V40.4277H196.828ZM199.686 40.4277H200.686V39.4277H199.686V40.4277ZM199.686 71.2578V72.2578H200.686V71.2578H199.686ZM197.828 71.2578V56.8418H195.828V71.2578H197.828ZM196.828 55.8418H186.172V57.8418H196.828V55.8418ZM185.172 56.8418V71H187.172V56.8418H185.172ZM186.172 70H183.314V72H186.172V70ZM184.314 71V40.1484H182.314V71H184.314ZM183.314 41.1484H186.172V39.1484H183.314V41.1484ZM185.172 40.1484V54.1133H187.172V40.1484H185.172ZM186.172 55.1133H196.828V53.1133H186.172V55.1133ZM197.828 54.1133V40.4277H195.828V54.1133H197.828ZM196.828 41.4277H199.686V39.4277H196.828V41.4277ZM198.686 40.4277V71.2578H200.686V40.4277H198.686ZM199.686 70.2578H196.828V72.2578H199.686V70.2578ZM222.126 68.2715H223.126V67.2715H222.126V68.2715ZM222.126 71V72H223.126V71H222.126ZM208.44 71H207.44V72H208.44V71ZM208.44 68.2715V67.2715H207.44V68.2715H208.44ZM213.897 68.2715V69.2715H214.897V68.2715H213.897ZM213.897 42.9199H214.897V41.9199H213.897V42.9199ZM208.44 42.9199H207.44V43.9199H208.44V42.9199ZM208.44 40.1914V39.1914H207.44V40.1914H208.44ZM222.126 40.1914H223.126V39.1914H222.126V40.1914ZM222.126 42.9199V43.9199H223.126V42.9199H222.126ZM216.754 42.9199V41.9199H215.754V42.9199H216.754ZM216.754 68.2715H215.754V69.2715H216.754V68.2715ZM221.126 68.2715V71H223.126V68.2715H221.126ZM222.126 70H208.44V72H222.126V70ZM209.44 71V68.2715H207.44V71H209.44ZM208.44 69.2715H213.897V67.2715H208.44V69.2715ZM214.897 68.2715V42.9199H212.897V68.2715H214.897ZM213.897 41.9199H208.44V43.9199H213.897V41.9199ZM209.44 42.9199V40.1914H207.44V42.9199H209.44ZM208.44 41.1914H222.126V39.1914H208.44V41.1914ZM221.126 40.1914V42.9199H223.126V40.1914H221.126ZM222.126 41.9199H216.754V43.9199H222.126V41.9199ZM215.754 42.9199V68.2715H217.754V42.9199H215.754ZM216.754 69.2715H222.126V67.2715H216.754V69.2715ZM230.321 40.1914V39.1914H229.321V40.1914H230.321ZM243.771 41.459L243.205 42.2837L243.216 42.291L243.771 41.459ZM245.339 55.8105L244.573 55.1679L244.572 55.1685L245.339 55.8105ZM233.179 58.4531V57.4531H232.179V58.4531H233.179ZM233.179 71V72H234.179V71H233.179ZM230.321 71H229.321V72H230.321V71ZM233.179 55.7246H232.179V56.7246H233.179V55.7246ZM242.417 54.8223L243.024 55.617L243.026 55.6154L242.417 54.8223ZM244.157 52.4805L243.227 52.1139L243.222 52.1262L244.157 52.4805ZM244.157 46.1426L243.222 46.4968L243.225 46.5054L243.229 46.514L244.157 46.1426ZM242.417 43.8223L241.81 44.6171L241.817 44.6223L242.417 43.8223ZM233.179 42.9199V41.9199H232.179V42.9199H233.179ZM230.321 41.1914H239.56V39.1914H230.321V41.1914ZM239.56 41.1914C240.945 41.1914 242.149 41.5592 243.205 42.2836L244.336 40.6344C242.929 39.6686 241.325 39.1914 239.56 39.1914V41.1914ZM243.216 42.291C244.308 43.019 245.133 43.9799 245.701 45.192L247.512 44.3431C246.791 42.8052 245.726 41.5604 244.325 40.6269L243.216 42.291ZM245.701 45.192C246.278 46.4232 246.573 47.7877 246.573 49.3008H248.573C248.573 47.5196 248.224 45.8619 247.512 44.3431L245.701 45.192ZM246.573 49.3008C246.573 51.6562 245.895 53.5914 244.573 55.1679L246.105 56.4532C247.762 54.4776 248.573 52.073 248.573 49.3008H246.573ZM244.572 55.1685C243.295 56.6944 241.653 57.4531 239.56 57.4531V59.4531C242.221 59.4531 244.433 58.4501 246.106 56.4526L244.572 55.1685ZM239.56 57.4531H233.179V59.4531H239.56V57.4531ZM232.179 58.4531V71H234.179V58.4531H232.179ZM233.179 70H230.321V72H233.179V70ZM231.321 71V40.1914H229.321V71H231.321ZM233.179 56.7246H239.56V54.7246H233.179V56.7246ZM239.56 56.7246C240.867 56.7246 242.04 56.3685 243.024 55.617L241.81 54.0275C241.219 54.4792 240.487 54.7246 239.56 54.7246V56.7246ZM243.026 55.6154C243.976 54.8864 244.669 53.9538 245.093 52.8347L243.222 52.1262C242.93 52.8977 242.463 53.5263 241.808 54.0291L243.026 55.6154ZM245.088 52.847C245.513 51.7682 245.716 50.5814 245.716 49.3008H243.716C243.716 50.3691 243.547 51.3021 243.227 52.1139L245.088 52.847ZM245.716 49.3008C245.716 48.0205 245.513 46.8387 245.086 45.7712L243.229 46.514C243.547 47.3084 243.716 48.2321 243.716 49.3008H245.716ZM245.093 45.7884C244.668 44.6672 243.972 43.7386 243.017 43.0223L241.817 44.6223C242.466 45.109 242.931 45.7273 243.222 46.4968L245.093 45.7884ZM243.024 43.0275C242.04 42.2761 240.867 41.9199 239.56 41.9199V43.9199C240.487 43.9199 241.219 44.1653 241.81 44.617L243.024 43.0275ZM239.56 41.9199H233.179V43.9199H239.56V41.9199ZM232.179 42.9199V55.7246H234.179V42.9199H232.179ZM254.093 40.1914V39.1914H253.093V40.1914H254.093ZM267.543 41.459L266.977 42.2837L266.988 42.291L267.543 41.459ZM269.111 55.8105L268.345 55.1679L268.344 55.1685L269.111 55.8105ZM256.951 58.4531V57.4531H255.951V58.4531H256.951ZM256.951 71V72H257.951V71H256.951ZM254.093 71H253.093V72H254.093V71ZM256.951 55.7246H255.951V56.7246H256.951V55.7246ZM266.189 54.8223L266.796 55.617L266.798 55.6154L266.189 54.8223ZM267.929 52.4805L266.999 52.1139L266.994 52.1262L267.929 52.4805ZM267.929 46.1426L266.994 46.4968L266.997 46.5054L267.001 46.514L267.929 46.1426ZM266.189 43.8223L265.582 44.6171L265.589 44.6223L266.189 43.8223ZM256.951 42.9199V41.9199H255.951V42.9199H256.951ZM254.093 41.1914H263.332V39.1914H254.093V41.1914ZM263.332 41.1914C264.717 41.1914 265.921 41.5592 266.977 42.2836L268.108 40.6344C266.701 39.6686 265.098 39.1914 263.332 39.1914V41.1914ZM266.988 42.291C268.08 43.019 268.905 43.9799 269.473 45.192L271.284 44.3431C270.563 42.8052 269.498 41.5604 268.097 40.6269L266.988 42.291ZM269.473 45.192C270.05 46.4232 270.345 47.7877 270.345 49.3008H272.345C272.345 47.5196 271.996 45.8619 271.284 44.3431L269.473 45.192ZM270.345 49.3008C270.345 51.6562 269.667 53.5914 268.345 55.1679L269.877 56.4532C271.534 54.4776 272.345 52.073 272.345 49.3008H270.345ZM268.344 55.1685C267.067 56.6944 265.425 57.4531 263.332 57.4531V59.4531C265.993 59.4531 268.205 58.4501 269.878 56.4526L268.344 55.1685ZM263.332 57.4531H256.951V59.4531H263.332V57.4531ZM255.951 58.4531V71H257.951V58.4531H255.951ZM256.951 70H254.093V72H256.951V70ZM255.093 71V40.1914H253.093V71H255.093ZM256.951 56.7246H263.332V54.7246H256.951V56.7246ZM263.332 56.7246C264.639 56.7246 265.812 56.3685 266.796 55.617L265.582 54.0275C264.991 54.4792 264.259 54.7246 263.332 54.7246V56.7246ZM266.798 55.6154C267.748 54.8864 268.441 53.9538 268.865 52.8347L266.994 52.1262C266.702 52.8977 266.235 53.5263 265.58 54.0291L266.798 55.6154ZM268.86 52.847C269.285 51.7682 269.488 50.5814 269.488 49.3008H267.488C267.488 50.3691 267.319 51.3021 266.999 52.1139L268.86 52.847ZM269.488 49.3008C269.488 48.0205 269.285 46.8387 268.858 45.7712L267.001 46.514C267.319 47.3084 267.488 48.2321 267.488 49.3008H269.488ZM268.865 45.7884C268.44 44.6672 267.744 43.7386 266.789 43.0223L265.589 44.6223C266.238 45.109 266.703 45.7273 266.994 46.4968L268.865 45.7884ZM266.796 43.0275C265.812 42.2761 264.639 41.9199 263.332 41.9199V43.9199C264.259 43.9199 264.991 44.1653 265.582 44.617L266.796 43.0275ZM263.332 41.9199H256.951V43.9199H263.332V41.9199ZM255.951 42.9199V55.7246H257.951V42.9199H255.951ZM293.442 68.2715H294.442V67.2715H293.442V68.2715ZM293.442 71V72H294.442V71H293.442ZM279.756 71H278.756V72H279.756V71ZM279.756 68.2715V67.2715H278.756V68.2715H279.756ZM285.213 68.2715V69.2715H286.213V68.2715H285.213ZM285.213 42.9199H286.213V41.9199H285.213V42.9199ZM279.756 42.9199H278.756V43.9199H279.756V42.9199ZM279.756 40.1914V39.1914H278.756V40.1914H279.756ZM293.442 40.1914H294.442V39.1914H293.442V40.1914ZM293.442 42.9199V43.9199H294.442V42.9199H293.442ZM288.071 42.9199V41.9199H287.071V42.9199H288.071ZM288.071 68.2715H287.071V69.2715H288.071V68.2715ZM292.442 68.2715V71H294.442V68.2715H292.442ZM293.442 70H279.756V72H293.442V70ZM280.756 71V68.2715H278.756V71H280.756ZM279.756 69.2715H285.213V67.2715H279.756V69.2715ZM286.213 68.2715V42.9199H284.213V68.2715H286.213ZM285.213 41.9199H279.756V43.9199H285.213V41.9199ZM280.756 42.9199V40.1914H278.756V42.9199H280.756ZM279.756 41.1914H293.442V39.1914H279.756V41.1914ZM292.442 40.1914V42.9199H294.442V40.1914H292.442ZM293.442 41.9199H288.071V43.9199H293.442V41.9199ZM287.071 42.9199V68.2715H289.071V42.9199H287.071ZM288.071 69.2715H293.442V67.2715H288.071V69.2715ZM315.194 71L314.268 71.3778L314.522 72H315.194V71ZM304.946 45.8848L305.872 45.507L303.946 45.8899L304.946 45.8848ZM305.075 71V72H306.08L306.075 70.9949L305.075 71ZM302.218 71H301.218V72H302.218V71ZM302.218 40.1914V39.1914H301.218V40.1914H302.218ZM305.505 40.1914L306.431 39.8151L306.178 39.1914H305.505V40.1914ZM315.731 65.3711L314.805 65.7474L316.731 65.3651L315.731 65.3711ZM315.581 40.1914V39.1914H314.575L314.581 40.1974L315.581 40.1914ZM318.46 40.1914H319.46V39.1914H318.46V40.1914ZM318.46 71V72H319.46V71H318.46ZM316.12 70.6222L305.872 45.507L304.02 46.2626L314.268 71.3778L316.12 70.6222ZM303.946 45.8899L304.075 71.0051L306.075 70.9949L305.946 45.8796L303.946 45.8899ZM305.075 70H302.218V72H305.075V70ZM303.218 71V40.1914H301.218V71H303.218ZM302.218 41.1914H305.505V39.1914H302.218V41.1914ZM304.578 40.5677L314.805 65.7474L316.658 64.9948L306.431 39.8151L304.578 40.5677ZM316.731 65.3651L316.581 40.1854L314.581 40.1974L314.731 65.3771L316.731 65.3651ZM315.581 41.1914H318.46V39.1914H315.581V41.1914ZM317.46 40.1914V71H319.46V40.1914H317.46ZM318.46 70H315.194V72H318.46V70ZM343.199 54.9941L344.199 54.9861L344.191 53.9941H343.199V54.9941ZM343.328 71V72H344.336L344.327 70.9919L343.328 71ZM340.857 71L339.862 71.1033L339.955 72H340.857V71ZM340.513 67.6914L341.508 67.5881L341.162 64.2602L339.625 67.232L340.513 67.6914ZM330.63 70.4844L330.131 71.3506L330.137 71.3543L330.144 71.358L330.63 70.4844ZM327.902 67.9922L327.075 68.5548L327.079 68.5602L327.902 67.9922ZM326.161 64.3398L325.21 64.6474L325.211 64.6502L326.161 64.3398ZM325.195 60.0859L324.202 60.2051L324.203 60.2161L325.195 60.0859ZM325.238 50.9766L324.247 50.8406L325.238 50.9766ZM326.269 46.7012L327.213 47.032L327.214 47.0289L326.269 46.7012ZM328.095 43.0918L327.288 42.5009L327.287 42.5029L328.095 43.0918ZM330.953 40.6641L331.413 41.5519L331.421 41.5473L330.953 40.6641ZM334.884 39.7617L334.874 40.7617L334.878 40.7617L334.884 39.7617ZM343.113 48.6562V49.6562H344.215L344.108 48.5593L343.113 48.6562ZM340.234 48.6562L339.244 48.7956L339.365 49.6562H340.234V48.6562ZM338.579 44.1445L337.785 44.7512L337.788 44.7563L338.579 44.1445ZM334.884 42.4902L334.871 43.4902L334.875 43.4902L334.884 42.4902ZM331.984 43.2852L332.515 44.1324L332.519 44.13L331.984 43.2852ZM329.943 45.3906L330.8 45.9051L330.804 45.8989L329.943 45.3906ZM328.675 48.4629L327.711 48.1958L328.675 48.4629ZM327.923 59.1191L326.926 59.1968L326.927 59.2097L327.923 59.1191ZM328.503 62.5996L327.53 62.8287L327.532 62.8395L328.503 62.5996ZM329.663 65.7363L328.784 66.2122L328.787 66.2182L329.663 65.7363ZM331.597 67.8848L331.023 68.7033L331.031 68.709L331.039 68.7146L331.597 67.8848ZM338.945 66.4453L338.119 65.8817L338.117 65.8834L338.945 66.4453ZM340.513 57.7227H341.513V56.7227H340.513V57.7227ZM333.595 57.7227H332.595V58.7227H333.595V57.7227ZM333.595 54.9941V53.9941H332.595V54.9941H333.595ZM342.199 55.0022L342.328 71.0081L344.327 70.9919L344.199 54.9861L342.199 55.0022ZM343.328 70H340.857V72H343.328V70ZM341.851 70.8967L341.508 67.5881L339.518 67.7947L339.862 71.1033L341.851 70.8967ZM339.625 67.232C339.048 68.3475 338.337 69.1334 337.511 69.6449C336.686 70.1556 335.687 70.4297 334.476 70.4297V72.4297C336 72.4297 337.376 72.0807 338.563 71.3453C339.75 70.6108 340.689 69.5275 341.401 68.1508L339.625 67.232ZM334.476 70.4297C333.196 70.4297 332.084 70.1495 331.117 69.6107L330.144 71.358C331.439 72.0796 332.892 72.4297 334.476 72.4297V70.4297ZM331.13 69.6182C330.136 69.0445 329.339 68.3136 328.725 67.4242L327.079 68.5602C327.869 69.7047 328.891 70.6352 330.131 71.3506L331.13 69.6182ZM328.728 67.4296C328.088 66.4889 327.546 65.3595 327.112 64.0294L325.211 64.6502C325.693 66.1275 326.312 67.433 327.075 68.5548L328.728 67.4296ZM327.113 64.0323C326.673 62.6697 326.364 61.311 326.186 59.9557L324.203 60.2161C324.398 61.6968 324.734 63.1741 325.21 64.6474L327.113 64.0323ZM326.188 59.9668C326.021 58.5771 325.937 57.1203 325.937 55.5957H323.937C323.937 57.1935 324.025 58.7302 324.202 60.2051L326.188 59.9668ZM325.937 55.5957C325.937 54.0184 326.035 52.5243 326.228 51.1125L324.247 50.8406C324.04 52.3507 323.937 53.9361 323.937 55.5957H325.937ZM326.228 51.1125C326.42 49.7178 326.748 48.358 327.213 47.032L325.325 46.3704C324.816 47.823 324.457 49.3134 324.247 50.8406L326.228 51.1125ZM327.214 47.0289C327.674 45.7008 328.241 44.5895 328.903 43.6807L327.287 42.5029C326.488 43.5993 325.837 44.8943 325.324 46.3734L327.214 47.0289ZM328.902 43.6827C329.552 42.7947 330.384 42.0851 331.413 41.5518L330.492 39.7763C329.2 40.4461 328.128 41.355 327.288 42.5009L328.902 43.6827ZM331.421 41.5473C332.418 41.0181 333.561 40.7488 334.874 40.7617L334.894 38.7618C333.285 38.746 331.807 39.0782 330.484 39.7808L331.421 41.5473ZM334.878 40.7617C337.015 40.7746 338.632 41.4707 339.837 42.7973L341.318 41.4527C339.687 39.6569 337.508 38.7775 334.89 38.7617L334.878 40.7617ZM339.837 42.7973C341.069 44.1538 341.859 46.1042 342.117 48.7532L344.108 48.5593C343.822 45.6224 342.922 43.2186 341.318 41.4527L339.837 42.7973ZM343.113 47.6562H340.234V49.6562H343.113V47.6562ZM341.224 48.5169C340.938 46.482 340.344 44.7917 339.371 43.5328L337.788 44.7563C338.476 45.6458 338.986 46.9633 339.244 48.7956L341.224 48.5169ZM339.374 43.5379C338.319 42.1555 336.768 41.5067 334.893 41.4903L334.875 43.4902C336.266 43.5024 337.178 43.9565 337.785 44.7512L339.374 43.5379ZM334.897 41.4903C333.641 41.4736 332.481 41.7863 331.449 42.4403L332.519 44.13C333.205 43.6955 333.979 43.4783 334.871 43.4901L334.897 41.4903ZM331.452 42.438C330.47 43.0544 329.677 43.8734 329.082 44.8824L330.804 45.8989C331.24 45.1605 331.808 44.5758 332.515 44.1323L331.452 42.438ZM329.085 44.8761C328.514 45.8282 328.06 46.9393 327.711 48.1958L329.639 48.7299C329.95 47.6089 330.34 46.6718 330.8 45.9051L329.085 44.8761ZM327.711 48.1958C327.369 49.4331 327.129 50.6599 326.994 51.8759L328.982 52.0968C329.104 50.9924 329.323 49.8703 329.639 48.7299L327.711 48.1958ZM326.994 51.8759C326.861 53.0751 326.794 54.3152 326.794 55.5957H328.794C328.794 54.3841 328.857 53.2179 328.982 52.0968L326.994 51.8759ZM326.794 55.5957C326.794 56.8645 326.838 58.0651 326.926 59.1968L328.92 59.0415C328.837 57.9674 328.794 56.8191 328.794 55.5957H326.794ZM326.927 59.2097C327.032 60.3647 327.234 61.5713 327.53 62.8286L329.477 62.3706C329.2 61.193 329.015 60.0793 328.919 59.0286L326.927 59.2097ZM327.532 62.8395C327.849 64.1187 328.262 65.2475 328.784 66.2121L330.543 65.2605C330.12 64.4778 329.76 63.5154 329.474 62.3598L327.532 62.8395ZM328.787 66.2182C329.335 67.2137 330.083 68.0442 331.023 68.7033L332.171 67.0662C331.478 66.5795 330.937 65.9777 330.54 65.2544L328.787 66.2182ZM331.039 68.7146C332.049 69.3938 333.207 69.7227 334.476 69.7227V67.7227C333.568 67.7227 332.806 67.4929 332.155 67.0549L331.039 68.7146ZM334.476 69.7227C336.731 69.7227 338.541 68.8188 339.772 67.0072L338.117 65.8834C337.286 67.1082 336.117 67.7227 334.476 67.7227V69.7227ZM339.771 67.0089C340.973 65.2472 341.513 62.8725 341.513 60H339.513C339.513 62.6562 339.008 64.5783 338.119 65.8817L339.771 67.0089ZM341.513 60V57.7227H339.513V60H341.513ZM340.513 56.7227H333.595V58.7227H340.513V56.7227ZM334.595 57.7227V54.9941H332.595V57.7227H334.595ZM333.595 55.9941H343.199V53.9941H333.595V55.9941Z" fill="#001BAC" mask="url(#path-2-outside-1_416_1146)"/>
    </svg>
    